<svg id="Ebene_1" xmlns="http://www.w3.org/2000/svg" viewBox="0 0 640 480"><style>.st0{fill:#00C4FF;} .st1{fill:#FFFFFF;} .st2{fill:#FFD600;stroke:#000000;stroke-width:0.625;stroke-opacity:0.387;} .st3{fill:#EFC000;stroke:#000000;stroke-width:0.5;stroke-opacity:0.387;} .st4{fill:#F0BF00;stroke:#000000;stroke-width:0.625;stroke-linejoin:round;stroke-opacity:0.387;} .st5{fill-opacity:0.368;} .st6{fill:#FFD700;} .st7{fill:#FFD700;stroke:#000000;stroke-width:0.625;stroke-linejoin:round;stroke-opacity:0.387;} .st8{fill:#F0BF00;stroke:#000000;stroke-width:0.625;stroke-linecap:round;stroke-linejoin:round;stroke-opacity:8.200000e-02;} .st9{fill:#F0BF00;stroke:#000000;stroke-width:0.625;stroke-linejoin:round;stroke-opacity:8.200000e-02;} .st10{fill:#FFD700;stroke:#000000;stroke-width:0.625;stroke-linejoin:round;stroke-opacity:0.149;} .st11{fill:none;stroke:#00699D;stroke-width:0;stroke-linecap:round;stroke-linejoin:round;}</style><path class="st0" d="M0 0v159.8h261.6c-2.3-2.8-3.6-4.2-1.5-6 4-.1 7.1 2.4 9.6 6h10.6c-2.8-8.3-4.2-14.5-2.1-14.7 1.6-1.5 6.1 5.4 11.1 14.7h9.6c-3.2-7.4-6.2-16.5-.9-21.3 5.6-.3.3 7.3 8.2 21.3h9c.8-12.5 2.2-23.2 4.8-22.4 2.3-.9 3.8 9.7 4.4 22.4h9c7.6-13.7 2.5-21.1 8.1-20.8 5.2 4.8 2.4 13.5-.8 20.8h9.8c4.9-9.3 9.5-16.1 11.2-14.6 1.9.1.6 6.3-2.2 14.6H370c2.5-3.5 5.6-6 9.6-6 2.1 1.8.8 3.2-1.5 6H640V0H0z"/><path class="st1" d="M336.4 169.2c-2.3 6.2 2 11.8-.9 22.1 3.4-8.1 9.4-21.3 14.9-31.5h-9.8c-1.6 3.7-3.4 7.1-4.2 9.4zM303.6 293.5c-2.8 7.3-7.2 17.3-11.7 26h9c.9-1.9 1.7-3.7 2.2-5 2.1-5.9-1.8-11.3.5-21z"/><path class="st1" d="M368.7 180.4c-1.7 9.7-10.7 8.4-17.8 24-.6 1.4-7.8-3.9-6.9-5.9 5.6-12.6 14-13.2 17.2-19.8 2-4 4.5-12.9 8.8-19h-10.5c-4.4 13.1-12.5 31.5-17.1 39.1-1.1 1.8-8.2-2-8.4-3.5-1.8 1.4-9.4.3-8.8-.9 6.2-15.9-1.1-21.1 4.8-29.2 1.4-1.9 2.6-3.8 3.5-5.5h-9c.6 12.6.4 27.3-.5 34.4-.3 2.1-9.1 1.2-9.2-.2-.2-6.7-.2-21.4.6-34.2h-9c.9 1.6 2 3.3 3.3 5.1 5.8 8.1-1.5 13.3 4.6 29.2.6 1.4-8.4 2.5-9.2.5-5.1-12.8.5-18.9-2-25.8-.8-2.2-2.4-5.4-4-9h-9.6c6.4 12 13.4 28 15.8 35.9.6 2.1-7.9 4.7-8.5 3.3-3.6-7.4-11.8-25.9-16.2-39.2H270c4.3 6 6.8 14.9 8.7 19 3.2 6.6 11.6 7.2 17.2 19.8.9 2-6.4 7.3-6.9 5.9-7.1-15.5-16.1-14.2-17.8-24-2-11.5-6.5-17.2-9.4-20.7H0V319.5h265.1c2.4-3.6 5-8.7 6.3-16.6 1.7-9.7 10.7-8.4 17.8-24 .6-1.4 7.8 3.9 6.9 5.9-5.6 12.6-14 13.2-17.2 19.8-1.5 3.2-3.4 9.5-6.3 14.9h9.5c4.6-12.8 11.6-28.5 14.8-35.2.7-1.3 9.2 1.3 8.5 3.3-.1.2-.1.4-.2.7 1.8-1.5 9.4-.4 8.9.9-6.1 15.9 1.2 21.1-4.6 29.2-.3.4-.5.7-.8 1.1h6.1c-.4-11.4-.1-23.5.7-29.8.3-2.1 9.1-1.2 9.2.2.2 5.9.2 18-.3 29.6h5.9c-.1-.2-.2-.3-.3-.5-5.8-8.1 1.5-13.3-4.6-29.2-.6-1.4 8.4-2.5 9.2-.5 5.1 12.8-.5 18.9 2 25.8.4 1.2 1.1 2.7 1.9 4.3h9.3c-5.7-11.2-11.3-24.4-13.3-31.2-.6-2.1 7.9-4.7 8.5-3.3 3.2 6.6 10 21.9 14.6 34.5h9.5c-2.7-5.3-4.5-11.2-6-14.3-3.2-6.6-11.6-7.2-17.2-19.8-.9-2 6.4-7.3 6.9-5.9 7.1 15.5 16.1 14.2 17.8 24 1.3 7.5 3.6 12.5 5.9 16H640V159.7H378.1c-2.9 3.5-7.4 9.2-9.4 20.7zm-4.3 38.1c-2 .9-7.5-6.2-6.1-6.7 16-6.9 14.7-15.6 24.7-17.2 21.5-3.4 23.3-15.1 27.5-10.5.2 10.5-19.2 14.8-25.7 17.8-6.8 3-7.5 11.1-20.4 16.6zm-.5 1c12.4-5.7 55.1-23 55.7-17.8 3.5 3.4-37.8 22-52.2 26-2.2.7-4.9-7.6-3.5-8.2zm4.5 8c13.2-4.9 19.5.5 26.6-1.9 6.9-2.3 23.9-12.3 31.2-4.7.3 6.1-9.4-1-27.3 11.1-8.4 5.6-13.7-1.5-30.1 4.5-1.3.5-2.4-8.2-.4-9zm-17.1-23.2c9.4-9.6 42.9-40.7 45.3-36 4.6 2-27.1 33.8-39 42.5-1.8 1.4-7.3-5.4-6.3-6.5zm-63.6.8c1.4 1.7-5.6 7.1-6.7 6.1-9.9-9.1-42-41.6-37.1-43.9 2-4.5 34.8 26.2 43.8 37.8zm-17 31.5c-16.4-6-21.7 1-30.1-4.6-17.8-12.2-27.5-5.2-27.2-11.2 7.4-7.6 24.4 2.5 31.2 4.9 6.4 2.2 12.2-2 23.1.9-15.7-6.2-51.1-21.8-47.9-25.4.1-4.8 42.6 11.4 55.5 18.8 1.9 1-2 8-3.6 8.1 1.5 1.6.3 9-1 8.5zm4.3-18.3c-13-5.5-13.6-13.6-20.4-16.7-6.6-3-26-7.4-25.7-17.8 4.2-4.5 5.9 7.1 27.5 10.6 10.1 1.7 8.7 10.3 24.7 17.2 1.4.5-4.1 7.5-6.1 6.7zm-63.1 23.2c-1.8-4.5 43.8-5.6 58.6-3.7 2.2.3 1.3 8.9-.2 8.9-13.7.5-60-.2-58.4-5.2zm8.6 41.3c-3.4-3.8 35.7-20.8 50.1-26.3-12.6 4.5-18.8-.6-25.8 1.8-6.8 2.3-23.8 12.5-31.2 4.9-.3-6.1 9.4 1 27.2-11.2 8.3-5.7 13.7 1.4 30.1-4.6 1.4-.6 2.6 7.9.6 8.9.2-.1.5-.2.7-.3 1.4-.5 5.8 7 3.8 8.1-12.9 7.3-55.3 23.6-55.5 18.7zm8.9 17.1c-.2-10.5 19.1-14.8 25.7-17.8 6.8-3.1 7.4-11.2 20.4-16.7 2-.9 7.5 6.2 6.1 6.7-16 6.9-14.7 15.6-24.7 17.2-21.6 3.5-23.3 15.1-27.5 10.6zm58-21c-9 11.6-41.9 42.3-43.9 37.8-4.8-2.4 27.2-34.8 37.1-43.9 1.2-1 8.1 4.4 6.8 6.1zm32.4 5.8c-24.1 0-43.6-19.1-43.6-42.7s19.5-42.7 43.6-42.7 43.6 19.1 43.6 42.7-19.5 42.7-43.6 42.7zm76 32c-2 4.4-34.8-26.3-43.9-37.8-1.4-1.7 5.6-7.1 6.7-6.1 10 9.1 42 41.6 37.2 43.9zm-12.5-27.1c-10.1-1.7-8.7-10.3-24.7-17.2-1.4-.6 4-7.6 6.1-6.7 13 5.5 13.6 13.6 20.4 16.7 6.6 3 26 7.4 25.7 17.8-4.2 4.5-5.9-7.1-27.5-10.6zm42.9-26.4c-7.4 7.6-24.4-2.5-31.2-4.9-6.4-2.2-12.2 2-23.1-.9 15.7 6.2 51.1 21.8 47.9 25.4-.1 4.8-42.6-11.4-55.5-18.8-1.9-1 2.1-8 3.6-8.1-1.5-1.7-.3-9.1 1-8.6 16.4 6 21.7-1 30.1 4.6 17.8 12.3 27.5 5.2 27.2 11.3zm-57.1-17c-2.2-.3-1.3-8.9.2-8.9 13.7-.5 60 .2 58.4 5.2 1.9 4.4-43.7 5.6-58.6 3.7z"/><path class="st0" d="M379.6 330.2c-5.6.1-9.5-4.9-12.4-10.6h-9.5c3.8 10.5 6.2 19.2 3.7 19.4-1.8 1.7-7.7-7.8-13.5-19.4h-9.3c3.6 7.8 9.5 20 3 25.9-6.2.3.9-8.9-11.1-25.9h-5.9c-.7 14.4-2.1 27.9-5 27-2.6 1-4.1-12.4-4.6-27h-6.1c-11.4 16.6-4.5 25.6-10.7 25.3-6.3-5.7-.9-17.5 2.7-25.3h-9c-5.8 11.3-11.4 20.5-13.2 18.8-2.4-.2-.2-8.5 3.5-18.8h-9.5c-2.9 5.5-6.7 10.1-12.1 10-2.9-2.5.6-4.1 4.6-10H0V480h640V319.5H374.6c4.1 6.4 8 8.1 5 10.7z"/><path class="st2" d="M319.8 199.3c-24.1 0-43.6 19.1-43.6 42.7s19.5 42.7 43.6 42.7 43.6-19.1 43.6-42.7-19.5-42.7-43.6-42.7zm36.8 35.9h5.6-5.6zm5.1 2.6h-5.4 5.4zm-6-5.3h5.9-5.9zm.2-2.3h5.3-5.3zm-.3-2.4h4.4-4.4zm-1.3-2.2h4.4-4.4zm-.4-2.4h4-4zm3-2.5h-4 4zm-35.3 3.8c7.3-2.5 15.8-5.6 23.6-3.2 2.1 1.5 1.6 2.4-.4 3-2.9-2.3-12.3-2.4-22 3-1.4-.5-2.4-1.4-1.2-2.8zm28.4 7c-4.2-2.1-10-1.7-14-1.8-5.6.1-5.7.8-13.5 2.2 5.3-3.2 18-6.3 27.5-.4zm-57.1-10.3c7.8-2.3 16.3.8 23.6 3.2 1.2 1.4.3 2.4-1.2 2.7-9.7-5.3-19.1-5.3-22-3-2-.4-2.6-1.4-.4-2.9zm24 11c-7.7-1.4-7.9-2.1-13.5-2.2-4 .1-9.8-.3-14 1.8 9.6-5.9 22.2-2.8 27.5.4zm-15.7 3.9c-2.8-.4-3.9-2-2.6-3.5 1.4-1.5 4.8-2.4 7.6-2 2.8.4 3.9 2 2.6 3.5-1.4 1.5-4.8 2.4-7.6 2zm17.6 34.9c-2.4-.1-5.6.1-8.3-5 7 2.8 8.6 2.4 16.2.3-1.6 4-5.6 4.9-7.9 4.7zm0-5.8c-3.7-2.2-11.8-.2-15.7-3.2 4.6-.5 12.4-3.9 15.2-1.1 2.4-2.5 10.8.7 16.2 1.1-4 2.3-11.9.7-15.7 3.2zm15.3-29.7c-2.9-.4-4.1-1.9-2.6-3.3s4.9-2.3 7.8-1.9c2.9.4 4.1 1.9 2.6 3.3-1.4 1.4-4.9 2.2-7.8 1.9zm8 39.3h3.9-3.9zm1.2-2.9h6-6zm2.7-3.2h6-6zm1.3-2.7h6-6zm1.9-2.7h6-6zm1.6-2.9h6-6zm1.7-2.5h6-6zm1.7-3.1h6-6zm.1-2.7h6-6zm1-3.2h6-6zm.2-2.4h6-6zm-.6-3.3h7-7zm1.4-2.9h5.6-5.6z"/><path class="st3" d="M293.3 224.2c2.9-2.3 12.3-2.4 22 3 1.5-.3 2.4-1.3 1.2-2.7-7.3-2.5-15.8-5.6-23.6-3.2-2.2 1.4-1.6 2.4.4 2.9zM322.8 227.2c9.7-5.3 19.1-5.3 22-3 2-.6 2.5-1.5.4-3-7.8-2.3-16.3.8-23.6 3.2-1.2 1.5-.2 2.4 1.2 2.8z"/><path class="st4" d="M316.9 232.2c-5.3-3.2-17.9-6.3-27.5-.4 4.2-2.1 10-1.7 14-1.8 5.6.2 5.7.8 13.5 2.2z"/><path class="st5" d="M308.8 234.1c1.4-1.5.2-3.1-2.6-3.5-2.8-.4-6.2.5-7.6 2-1.4 1.5-.2 3.1 2.6 3.5s6.2-.5 7.6-2zm-7.9-.9c-.7.2-1.4.1-1.5-.2-.1-.4.3-.8 1-1 .7-.2 1.4-.1 1.5.2.1.3-.3.8-1 1z"/><path class="st6" d="M301.9 232.1c-.1-.4-.8-.5-1.5-.2-.7.2-1.1.7-1 1 .1.3.8.5 1.5.2.7-.1 1.1-.6 1-1z"/><path class="st7" d="M303.1 314.6c-.5 1.3-1.3 3-2.2 5-3.6 7.8-9 19.6-2.7 25.3 6.1.3-.8-8.7 10.7-25.3.3-.4.5-.7.8-1.1 5.8-8.1-1.5-13.3 4.6-29.2.5-1.3-7.1-2.3-8.9-.9-.5 1.5-1.1 3.2-1.8 5.1-2.3 9.7 1.6 15.1-.5 21.1zM319.6 346.5c2.9.9 4.3-12.6 5-27 .5-11.5.6-23.7.3-29.6-.1-1.5-8.9-2.4-9.2-.2-.9 6.3-1.1 18.4-.7 29.8.5 14.6 2 28 4.6 27z"/><path class="st8" d="M318.3 260.9c-2.8-2.8-10.5.6-15.2 1.1 4 3 12.1 1 15.7 3.2 3.8-2.4 11.7-.9 15.6-3.2-5.4-.4-13.8-3.7-16.1-1.1z"/><path class="st9" d="M310.6 266c2.7 5.1 5.9 4.8 8.3 5 2.3.2 6.3-.7 7.9-4.7-7.7 2.1-9.2 2.5-16.2-.3z"/><path class="st10" d="M260.6 329.5c5.4.1 9.2-4.5 12.1-10 2.9-5.5 4.8-11.8 6.3-14.9 3.2-6.6 11.6-7.2 17.2-19.8.9-2-6.4-7.3-6.9-5.9-7.1 15.5-16.1 14.2-17.8 24-1.3 7.9-3.9 13.1-6.3 16.6-4 5.9-7.5 7.5-4.6 10zM281.6 272.1c1.4-.6-4-7.6-6.1-6.7-13 5.5-13.6 13.6-20.4 16.7-6.6 3-26 7.4-25.7 17.8 4.2 4.5 5.9-7.1 27.5-10.6 10-1.6 8.7-10.3 24.7-17.2zM270.9 247.3c-16.4 6-21.7-1-30.1 4.6-17.8 12.2-27.5 5.2-27.2 11.2 7.4 7.6 24.4-2.5 31.2-4.9 7-2.4 13.2 2.7 25.8-1.8l.9-.3c2-.8.8-9.3-.6-8.8zM278.7 338.3c1.8 1.7 7.4-7.4 13.2-18.8 4.4-8.7 8.9-18.7 11.7-26 .7-1.9 1.3-3.6 1.8-5.1.1-.2.1-.5.2-.7.6-2.1-7.9-4.7-8.5-3.3-3.3 6.7-10.2 22.4-14.8 35.2-3.8 10.2-6 18.5-3.6 18.7z"/><path class="st10" d="M280.6 272.8c-9.9 9.1-42 41.6-37.1 43.9 2 4.4 34.8-26.3 43.9-37.8 1.3-1.7-5.6-7.1-6.8-6.1zM276 264.1c1.9-1.1-2.4-8.6-3.8-8.1-.2.1-.4.2-.7.3l-.9.3c-14.3 5.5-53.5 22.5-50.1 26.3.2 4.8 42.6-11.5 55.5-18.8z"/><path class="st7" d="M369.4 237.3c-1.5.1-2.5 8.7-.2 8.9 14.8 1.9 60.4.8 58.6-3.7 1.6-5-44.7-5.7-58.4-5.2zM341.6 345.5c6.5-5.9.6-18.1-3-25.9-.8-1.7-1.4-3.2-1.9-4.3-2.5-6.9 3.1-13-2-25.8-.8-2-9.8-.9-9.2.5 6.1 15.9-1.2 21.1 4.6 29.2.1.2.2.3.3.5 12.1 16.9 5 26 11.2 25.8z"/><path class="st10" d="M379.6 330.2c3-2.6-.9-4.2-5-10.6-2.3-3.5-4.6-8.6-5.9-16-1.7-9.7-10.7-8.4-17.8-24-.6-1.4-7.8 3.9-6.9 5.9 5.6 12.6 14 13.2 17.2 19.8 1.5 3.1 3.3 9 6 14.3 2.9 5.7 6.8 10.7 12.4 10.6zM385.1 282.4c-6.8-3.1-7.4-11.2-20.4-16.7-2-.9-7.5 6.2-6.1 6.7 16 6.9 14.7 15.6 24.7 17.2 21.5 3.5 23.3 15.1 27.5 10.6.2-10.5-19.1-14.8-25.7-17.8zM399 252c-8.3-5.7-13.7 1.4-30.1-4.6-1.3-.5-2.4 6.9-1 8.6h.2c1.1.4 2.3.9 3.7 1.4 10.9 2.9 16.6-1.3 23.1.9 6.8 2.3 23.8 12.5 31.2 4.9.4-6.1-9.3 1-27.1-11.2zM361.4 338.9c2.4-.2.1-8.9-3.7-19.4-4.6-12.7-11.4-28-14.6-34.5-.7-1.3-9.2 1.3-8.5 3.3 2 6.8 7.7 20 13.3 31.2 5.8 11.7 11.7 21.2 13.5 19.4z"/><path class="st10" d="M358.7 272.8c-1.1-1-8.1 4.4-6.7 6.1 9 11.6 41.9 42.3 43.9 37.8 4.7-2.3-27.3-34.8-37.2-43.9zM368 256c-1.6.1-5.5 7.1-3.6 8.1 12.9 7.4 55.3 23.6 55.5 18.8 3.2-3.6-32.1-19.2-47.9-25.4-1.4-.6-2.7-1-3.7-1.4-.2-.2-.2-.1-.3-.1z"/><path class="st7" d="M270.3 246.7c1.5-.1 2.5-8.7.2-8.9-14.8-1.9-60.4-.8-58.6 3.7-1.6 5 44.7 5.7 58.4 5.2zM302.9 168.7c2.5 6.9-3.1 13 2 25.8.8 2 9.8.9 9.2-.5-6.1-15.9 1.2-21.1-4.6-29.2-1.3-1.8-2.4-3.5-3.3-5.1-7.9-14-2.6-21.5-8.2-21.3-5.3 4.8-2.3 13.9.9 21.3 1.6 3.7 3.3 6.9 4 9z"/><path class="st10" d="M271 180.4c1.7 9.7 10.7 8.4 17.8 24 .6 1.4 7.8-3.9 6.9-5.9-5.6-12.6-14-13.2-17.2-19.8-1.9-4-4.5-12.9-8.7-19-2.5-3.5-5.6-6.1-9.6-6-2.1 1.8-.8 3.2 1.5 6 2.8 3.5 7.3 9.2 9.3 20.7zM281.1 211.6c-16-6.9-14.7-15.6-24.7-17.2-21.5-3.5-23.3-15.1-27.5-10.6-.2 10.5 19.1 14.8 25.7 17.8 6.8 3.1 7.4 11.2 20.4 16.7 2 .8 7.5-6.2 6.1-6.7zM267.8 226.5c-10.9-2.9-16.6 1.3-23.1-.9-6.8-2.3-23.8-12.5-31.2-4.9-.3 6.1 9.4-1 27.2 11.2 8.3 5.7 13.7-1.4 30.1 4.6 1.3.5 2.4-6.9.9-8.6h-.2c-1.1-.3-2.3-.8-3.7-1.4zM296.6 199c.7 1.3 9.2-1.3 8.5-3.3-2.3-7.8-9.4-23.9-15.8-35.9-5-9.4-9.6-16.2-11.1-14.7-2.1.2-.7 6.4 2.1 14.7 4.5 13.2 12.7 31.8 16.3 39.2zM243.9 167.2c-4.8 2.4 27.2 34.8 37.1 43.9 1.1 1 8.1-4.4 6.7-6.1-9-11.5-41.8-42.2-43.8-37.8z"/><path class="st10" d="M275.3 219.9c-12.9-7.3-55.3-23.6-55.5-18.8-3.2 3.6 32.2 19.2 47.9 25.4 1.4.6 2.7 1 3.7 1.4h.2c1.7 0 5.6-7 3.7-8z"/><path class="st7" d="M314.6 194c.1 1.5 8.9 2.4 9.2.2 1-7.2 1.2-21.8.5-34.4-.6-12.6-2.1-23.2-4.4-22.4-2.5-.8-4 9.8-4.8 22.4-.6 12.7-.7 27.5-.5 34.2zM368.9 236.5c16.4-5.9 21.7 1.2 30.1-4.5 17.9-12.1 27.5-5 27.3-11.1-7.4-7.6-24.4 2.4-31.2 4.7-7.1 2.4-13.4-3-26.6 1.9-2.1.8-1 9.5.4 9z"/><path class="st10" d="M384.8 201.8c6.6-3 26-7.3 25.7-17.8-4.2-4.5-5.9 7.1-27.5 10.5-10.1 1.7-8.7 10.3-24.7 17.2-1.4.6 4 7.6 6.1 6.7 12.9-5.4 13.6-13.5 20.4-16.6zM361.2 178.7c-3.2 6.6-11.6 7.2-17.2 19.8-.9 2 6.3 7.3 6.9 5.9 7.1-15.5 16.1-14.2 17.8-24 2-11.5 6.5-17.2 9.4-20.7 2.3-2.8 3.6-4.1 1.5-6-4-.1-7.1 2.4-9.6 6-4.3 6.1-6.8 15-8.8 19zM329.9 165.3c-5.9 8.1 1.4 13.3-4.8 29.2-.5 1.2 7 2.3 8.8.9v-.2c.4-1.1 1-2.4 1.6-3.9 2.9-10.4-1.4-15.9.9-22.1.8-2.3 2.6-5.6 4.2-9.4 3.2-7.3 6-16.1.8-20.8-5.6-.3-.4 7.1-8.1 20.8-.9 1.7-2 3.5-3.4 5.5zM367.3 227.8c14.4-4 55.8-22.6 52.2-26-.5-5.2-43.3 12.1-55.7 17.8-1.3.5 1.4 8.8 3.5 8.2z"/><path class="st10" d="M357.6 210.8c11.9-8.8 43.6-40.6 39-42.5-2.4-4.7-35.9 26.4-45.3 36-1 1.1 4.5 7.9 6.3 6.5zM335.5 191.3c-.6 1.5-1.2 2.8-1.6 3.9v.2c.2 1.5 7.3 5.3 8.4 3.5 4.6-7.6 12.7-26 17.1-39.1 2.8-8.3 4.2-14.6 2.2-14.6-1.8-1.5-6.3 5.4-11.2 14.6-5.5 10.2-11.5 23.4-14.9 31.5z"/><path class="st11" d="M352.9 220.7h4M353.9 223.2h4M354.3 225.6h4.4M355.6 227.8h4.4M355.9 230.2h5.3M355.7 232.5h5.9M356.6 235.2h5.6M361.7 237.8h-5.4M356.3 240.3h5.6M354.9 243.2h7M355.5 246.5h6M355.3 248.9h6M354.3 252.1h6M354.2 254.8h6M352.5 257.9h6M356.8 260.4h-6M349.2 263.3h6M347.3 266h6M346 268.7h6M343.3 271.9h6M346 274.8h-3.9"/><path class="st4" d="M322.5 231.9c7.7-1.4 7.9-2.1 13.5-2.2 4 .1 9.8-.3 14 1.8-9.5-5.9-22.2-2.8-27.5.4z"/><path class="st5" d="M339.3 230.2c-2.9-.4-6.4.5-7.8 1.9s-.2 2.9 2.6 3.3c2.9.4 6.4-.5 7.8-1.9 1.5-1.4.3-2.9-2.6-3.3zm-5.2 2.4c-.7.2-1.4.1-1.5-.2-.1-.4.3-.8 1-1 .7-.2 1.4-.1 1.5.2.1.3-.3.7-1 1z"/><path class="st6" d="M335.1 231.5c-.1-.4-.8-.5-1.5-.2-.7.2-1.1.7-1 1 .1.4.8.5 1.5.2.7-.2 1.1-.6 1-1z"/></svg>