<svg id="Ebene_1" xmlns="http://www.w3.org/2000/svg" viewBox="0 0 640 480"><style>.st0{fill:#000066;} .st1{fill:#FFFFFF;} .st2{fill:#CC0000;}</style><path class="st0" d="M345.7 0v27.9l-76.6 55.4h76.6v83.4h-76.6l76.6 55.4V250H307l-105.4-76.2V250H144v-76.2L38.6 250H0v230h640V0H345.7zm-83.6 439.7L231.9 408l-30.2 31.8 6-43.4-43.7-3.8 37.7-22.4-24.2-36.5 41 15.5 13.4-41.7 13.4 41.7 41-15.5-24.2 36.5 37.7 22.4-43.7 3.8 6 43.3zM476 134.6l17.8 6.7 5.8-18.1 5.8 18.1 17.8-6.7-10.5 15.9 16.4 9.7-19 1.7 2.6 18.8-13.1-13.8-13.1 13.8 2.6-18.9-19-1.6 16.4-9.7-10.5-15.9zm-69 160.7l-13.1-13.8-13.1 13.8 2.6-18.9-19-1.6 16.4-9.7-10.5-15.9 17.8 6.7 5.8-18.1 5.8 18.1 17.8-6.7-10.6 15.8 16.4 9.7-19 1.6 2.7 19zm105.7 167.4L499.6 449l-13.1 13.8 2.6-18.9-19-1.6 16.4-9.7-10.5-15.9 17.8 6.7 5.8-18.1 5.8 18.1 17.8-6.7-10.5 15.9 16.4 9.7-19 1.7 2.6 18.7zm39.6-136.3l-10.4-6.4-10.4 6.4 2.9-11.8-9.3-7.9 12.2-.9 4.6-11.3 4.6 11.3 12.2.9-9.3 7.9 2.9 11.8zm54.5-59.4l-13.1-13.8-13.2 13.8 2.6-18.9-18.9-1.6 16.4-9.7L570 221l17.8 6.7 5.8-18.1 5.9 18.1 17.8-6.7-10.5 15.9 16.4 9.7-19 1.6 2.6 18.8zM307 0H201.6v76.2zM0 166.7V222l76.6-55.3zM0 27.9v55.4h76.6zM144 0H38.6L144 76.2z"/><path class="st1" d="M345.7 100V83.3h-76.6l76.6-55.4V0L230.5 83.3h-25.8L319.9 0H307L201.6 76.2V0h-11.5v100zM141 166.7L25.8 250h12.8L144 173.8V250h11.6V150H0v16.7h76.6L0 222v28l115.2-83.3zM155.6 0H144v76.2L38.6 0H0l115.2 83.3H89.5L0 18.6v9.3l76.6 55.4H0V100h155.6zM190.1 250h11.5v-76.2L307 250h38.7l-115.2-83.3h25.7l89.5 64.7V222l-76.6-55.3h76.6V150H190.1z"/><path class="st2" d="M141 166.7h-25.8L0 250h25.8zM115.2 83.3L0 0v18.6l89.5 64.7zM230.5 166.7L345.7 250v-18.6l-89.5-64.7zM230.5 83.3L345.7 0h-25.8L204.7 83.3z"/><path class="st2" d="M155.6 250h34.5V150h155.6v-50H190.1V0h-34.5v100H0v50h155.6z"/><path class="st1" d="M606.8 236.8l10.5-15.8-17.8 6.7-5.9-18.1-5.7 18.1L570 221l10.6 15.8-16.4 9.7 18.9 1.7-2.6 18.8 13.1-13.8 13.2 13.8-2.7-18.8 19-1.7zM406.9 265l10.6-15.8-17.8 6.7-5.9-18.1-5.8 18.1-17.8-6.7 10.5 15.8-16.3 9.8 18.9 1.6-2.6 18.9 13.1-13.8 13.2 13.8-2.7-18.9 19-1.6zM262.1 370.2l24.2-36.5-40.9 15.5-13.5-41.7-13.4 41.7-41-15.5 24.3 36.5-37.7 22.3 43.7 3.8-6.1 43.4 30.2-31.7 30.2 31.7-6-43.4 43.7-3.8zM489.1 161.8l-2.6 18.8 13.1-13.7 13.1 13.7-2.6-18.8 19-1.7-16.4-9.7 10.6-15.8-17.8 6.7-5.9-18.1-5.8 18.1-17.8-6.7 10.5 15.8-16.3 9.7zM512.7 432.5l10.6-15.8-17.8 6.7-5.9-18.1-5.8 18.1-17.8-6.7 10.5 15.8-16.3 9.7 18.9 1.7-2.6 18.8 13.1-13.7 13.1 13.7-2.6-18.8 19-1.7zM546.5 305.8l-4.6-11.3-4.6 11.3-12.1.9 9.3 7.8-2.9 11.9 10.3-6.5 10.4 6.5-2.9-11.9 9.3-7.8z"/></svg>