<svg id="Ebene_1" xmlns="http://www.w3.org/2000/svg" viewBox="0 0 640 480"><style>.st0{fill:#229E45;} .st1{fill:#F8E509;} .st2{fill:#2B49A3;} .st3{fill:#FFFFEF;} .st4{fill:#FFFFFF;} .st5{fill:#309E3A;} .st6{fill:#F7FFFF;}</style><path class="st0" d="M0 0v480h640V0H0zm321.4 435.9L17.1 240.7 319.6 44.1l303.3 196.2-301.5 195.6z"/><path class="st1" d="M17.1 240.7l304.3 195.2 301.5-195.7L319.6 44.1 17.1 240.7zm435.7-.7c0 8.9-.9 17.6-2.7 26-1.3 7-3.8 14.7-5.8 19.8l-.1-.1c-18.4 47.7-64.8 81.6-119.1 81.6-70.4 0-127.5-57-127.5-127.3 0-12.8 1.9-25.2 5.4-36.9h-.1c2.3-7.4 5-14.3 8.5-20.9 21.1-41.3 64.1-69.6 113.7-69.6 70.6.1 127.7 57.1 127.7 127.4z"/><path class="st2" d="M203.1 203.2c-3.5 11.7-5.4 24-5.4 36.9 0 70.3 57.1 127.3 127.5 127.3 54.3 0 100.7-33.9 119.1-81.6-45.4-43.4-128.2-93.4-241.2-82.6zm16.2 84.4l-2.6-1.5-2.7 1.4.6-3-2.1-2.2 3-.4 1.4-2.7 1.3 2.8 3 .5-2.2 2.1.3 3zm1.9-64.4l-4.1 2 .9-4.5-3.2-3.3 4.5-.5 2.1-4.1 1.9 4.2 4.5.8-3.3 3.1.6 4.6-3.9-2.3zm100 59.2l2.2-.3 1.1-2 .9 2.1 2.2.4-1.7 1.6.3 2.3-2-1.1-2 1 .5-2.3-1.5-1.7zm8.5 58.8l-1.7-1-1.7.8.4-1.9-1.3-1.4 1.9-.2.9-1.7.8 1.8 1.9.3-1.4 1.3.2 2zm64.7-2.1l-2.3-1.4-2.4 1.2.5-2.8-1.9-2 2.7-.3 1.3-2.5 1.1 2.6 2.6.5-2 1.9.4 2.8zm24.6-39.4l-2.1-1.1-2.2 1 .5-2.3-1.7-1.7 2.5-.3 1.2-2 1 2.1 2.4.4-1.8 1.6.2 2.3zm11.4-15.8l1.1-2 .9 2.1 2.2.4-1.7 1.6.3 2.3-2-1.1-2 1 .5-2.3-1.6-1.7 2.3-.3zm-17-.3l1.8-3.5 1.6 3.6 3.8.7-2.8 2.7.5 3.9-3.3-1.9-3.5 1.7.8-3.9-2.7-2.8 3.8-.5zm-1.5 21.3l1.4-2.7 1.3 2.8 3 .5-2.2 2.1.4 3.1-2.6-1.5-2.7 1.3.6-3-2.1-2.2 2.9-.4zm-10.4 3.9l1.1-2.1 1 2.2 2.3.4-1.7 1.6.3 2.4-2-1.2-2.1 1 .5-2.3-1.6-1.7 2.2-.3zm-10.2-.1l1.2-2.3 1 2.3 2.5.5-1.8 1.7.3 2.5-2.2-1.3-2.3 1.1.5-2.5-1.7-1.8 2.5-.2zm-.8 13.7l1.4-2.5 1.2 2.6 2.9.5-2.2 1.9.4 2.8-2.6-1.4-2.7 1.2.6-2.8-2-2 3-.3zM372.2 309l1.1-2 .9 2.1 2.2.4-1.7 1.6.3 2.3-2-1.1-2 1 .5-2.3-1.6-1.7 2.3-.3zm-5.2 20.4l4.5.8-3.3 3.1.6 4.6-3.9-2.3-4.1 2 .9-4.5-3.2-3.3 4.5-.5 2.1-4.1 1.9 4.2zm-9.1-95.1l1.5-2.8 1.3 2.9 3.1.6-2.3 2.2.4 3.2-2.7-1.6-2.8 1.4.6-3.2-2.2-2.3 3.1-.4zm-3.8 74.7l1.1-2 .9 2.1 2.2.4-1.7 1.6.3 2.3-2-1.1-2 1 .5-2.3-1.6-1.7 2.3-.3zm-15-38.6l1.4-2.7 1.3 2.8 3 .5-2.2 2.1.4 3.1-2.6-1.5-2.7 1.4.6-3-2.1-2.2 2.9-.5zm-7.2 32.9l-3.4-2-3.5 1.7.8-3.9-2.7-2.9 3.9-.5 1.8-3.5 1.6 3.6 3.9.7-2.9 2.7.5 4.1zm-7.3-46.9l2.1-4.1 1.9 4.2 4.5.8-3.3 3.1.6 4.6-3.9-2.3-4.1 2 .9-4.5-3.2-3.3 4.5-.5zm-11.1 14l1.4-2.7 1.3 2.8 3 .5-2.2 2.1.4 3.1-2.6-1.5-2.8 1.3.6-3-2.1-2.2 3-.4zm-36-26.5l2.1-4.1 1.9 4.2 4.5.8-3.3 3.1.6 4.6-3.9-2.3-4.1 2 .9-4.5-3.2-3.3 4.5-.5zm0 63.7l2.1-4.1 1.9 4.2 4.5.8-3.3 3.1.6 4.6-3.9-2.3-4.1 2 .9-4.5-3.2-3.3 4.5-.5zm-20.2-25.8l1.4-2.7 1.3 2.8 3 .5-2.2 2.1.4 3.1-2.6-1.5-2.7 1.4.6-3-2.1-2.2 2.9-.5zm-3.8 11.2l1.3 2.8 3 .5-2.2 2.1.4 3.1-2.6-1.5-2.7 1.4.6-3-2.1-2.2 3-.4 1.3-2.8zm-7.7-29.4l.9-1.7.8 1.8 1.9.3-1.4 1.3.3 1.9-1.6-1-1.7.8.4-1.9-1.3-1.4 1.7-.1zm-9.8 6l4.5.8-3.3 3.1.6 4.6-3.9-2.3-4.1 2 .9-4.5-3.2-3.3 4.5-.5 2.1-4.1 1.9 4.2z"/><path class="st2" d="M211.5 182.3c95.4-6.3 170.9 24.2 238.6 83.7 1.7-8.4 2.7-17.1 2.7-26 0-70.3-57.1-127.3-127.5-127.3-49.7 0-92.7 28.3-113.8 69.6zM364 198.5l1.9-3.6 1.7 3.7 3.9.7-3 2.8.6 4-3.5-2-3.6 1.9.8-4-2.8-3 4-.5z"/><path class="st3" d="M227.5 269.9l3.2 3.4-.9 4.5 4-2 4 2.3-.6-4.6 3.3-3.1-4.5-.8-1.8-4.3-2.2 4.1zM411.4 290.7l3.5-1.7 3.4 1.9-.6-3.9 2.9-2.6-3.8-.7-1.6-3.6-1.8 3.5-3.9.4 2.7 2.8zM322.3 264.8l4.1-2 4 2.2-.7-4.6 3.4-3.1-4.5-.8-1.9-4.2-2.1 4.1-4.5.5 3.2 3.3zM358.5 329.8l3.2 3.3-1 4.6 4.1-2.1 4 2.3-.7-4.6 3.4-3.1-4.5-.8-1.9-4.2-2.1 4.1zM330.4 296l-1.6-3.7-1.8 3.6-3.9.4 2.7 2.9-.8 3.9 3.5-1.7 3.4 1.9-.5-3.9 2.9-2.7zM418 295.5l-1-2.2-1.1 2.1-2.5.2 1.7 1.7-.5 2.3 2.2-1 2.2 1.1-.4-2.3 1.9-1.5zM227.8 217.8l-4.4-.8-1.9-4.2-2.1 4.1-4.5.5 3.1 3.3-.9 4.6 4.1-2.1 3.9 2.3-.6-4.6zM356.3 240.2l2.9-1.4 2.7 1.6-.4-3.2 2.3-2.2-3.1-.6-1.3-2.9-1.5 2.8-3.2.4 2.2 2.3zM275.3 316l4.1-2 3.9 2.3-.6-4.6 3.3-3.1-4.4-.8-1.9-4.3-2.2 4.1-4.5.5 3.2 3.4zM362 206l3.6-1.8 3.5 2-.5-4.1 2.9-2.7-3.9-.8-1.7-3.7-1.9 3.6-4 .5 2.8 2.9zM312 276l2.8-1.4 2.6 1.6-.4-3.1 2.2-2.1-3-.5-1.2-2.9-1.5 2.8-3 .3 2.1 2.3zM255.8 287.4l2.7-1.3 2.6 1.5-.4-3.1 2.3-2.1-3-.5-1.3-2.8-1.4 2.7-3 .4 2.1 2.2zM275.3 252.3l4.1-2 3.9 2.3-.6-4.6 3.3-3.1-4.4-.8-1.9-4.2-2.2 4-4.5.6 3.2 3.3zM324.3 285.3l2 1.1-.3-2.3 1.6-1.5-2.2-.4-.9-2.1-1.1 2-2.2.3 1.5 1.6-.4 2.3zM337.5 276l2.8-1.4 2.6 1.6-.4-3.1 2.2-2.1-3-.5-1.2-2.8-1.4 2.7-3.1.3 2.1 2.3zM244.8 267.2l1.7-.9 1.7 1-.3-2 1.4-1.3-1.9-.3-.8-1.8-.8 1.7-1.9.3 1.3 1.4zM389 327.5l2.7-1.2 2.5 1.4-.4-2.8 2.2-1.9-2.9-.5-1.2-2.6-1.4 2.5-2.9.3 2 2zM251.2 298.3l-.6 3.1 2.7-1.4 2.6 1.5-.4-3 2.3-2.1-3-.6-1.3-2.8-1.4 2.7-3 .4zM400.4 313.1l2.1-1 2 1.2-.3-2.4 1.7-1.6-2.3-.4-1-2.2-1.1 2.1-2.3.3 1.6 1.7zM371.1 313.1l2-1 2 1.2-.3-2.3 1.6-1.6-2.2-.4-.9-2.1-1.1 2.1-2.2.2 1.6 1.7zM410.4 310.6l2.7-1.4 2.6 1.5-.4-3 2.3-2.1-3-.6-1.3-2.8-1.4 2.7-3 .4 2.1 2.2zM329 337.6l-.8-1.8-.9 1.7-1.9.2 1.3 1.4-.4 1.9 1.7-.8 1.7 1-.3-2 1.4-1.3zM429.3 288l2-1 2 1.1-.3-2.2 1.7-1.6-2.3-.4-.9-2.1-1.1 2.1-2.2.2 1.6 1.7zM390 313.4l2.3-1.1 2.2 1.2-.4-2.5 1.9-1.8-2.5-.4-1-2.4-1.2 2.3-2.5.3 1.8 1.9zM353 313.1l2-1 2 1.2-.3-2.3 1.6-1.6-2.2-.4-.9-2.1-1.1 2.1-2.2.2 1.6 1.7zM393.4 333.9l-1.2-2.6-1.2 2.5-2.7.3 1.9 2.1-.6 2.8 2.5-1.3 2.3 1.4-.4-2.8 2-1.9zM218.1 281.9l-1.3-2.8-1.4 2.7-3 .4 2.1 2.2-.6 3 2.7-1.3 2.7 1.5-.5-3.1 2.3-2z"/><path class="st4" d="M444.4 285.8zM211.5 182.3c-3.4 6.6-6.2 13.4-8.5 20.9h.1c112.9-10.7 195.7 39.2 241.2 82.6l.1.1c1.9-5.1 4.4-12.7 5.8-19.8-67.8-59.6-143.3-90.1-238.7-83.8zm16.6 14.5c-1.3 1.2-2.9 1.8-5 1.8-2.1-.1-3.7-.7-4.9-2-1.2-1.3-1.8-3.1-1.7-5.3 0-1.4.3-2.6.7-3.6.3-.7.8-1.3 1.3-1.9.6-.6 1.2-1 1.8-1.2.9-.3 1.9-.5 3-.5 2.1.1 3.7.7 4.9 2.1 1.2 1.3 1.8 3.1 1.7 5.4.1 2.2-.6 4-1.8 5.2zm200.5 59.3c.7-.4 1.4-.7 2.1-.9.7-.2 1.5-.2 2.2 0 .9.2 1.9.6 2.8 1.2 1.7 1.2 2.7 2.6 3 4.4.3 1.8-.2 3.6-1.4 5.5-1.3 1.9-2.8 3-4.5 3.4-1.7.4-3.4 0-5.1-1.2-1.7-1.2-2.7-2.6-3-4.4-.3-1.7.2-3.5 1.4-5.4.8-1.2 1.6-2.1 2.5-2.6zm-12.6-.2c.2.6.6 1.2 1.3 1.7.8.5 1.4.7 2 .7.6-.1 1-.3 1.3-.7.2-.3.3-.6.2-.9 0-.3-.2-.7-.5-1.1-.2-.3-.7-.9-1.5-1.8-1-1.2-1.7-2.1-1.9-2.9-.3-1.1-.1-2.1.5-3.1.4-.6.9-1 1.6-1.3.7-.3 1.4-.4 2.2-.2.8.2 1.7.5 2.5 1.1 1.5 1 2.3 2 2.6 3.2.3 1.1.1 2.3-.6 3.3l-2.4-1.5c.3-.7.4-1.2.2-1.7-.1-.5-.5-1-1.2-1.4-.7-.5-1.3-.7-1.9-.7-.3 0-.7.2-.9.5-.2.3-.2.6-.1.9.1.4.7 1.2 1.6 2.2 1 1 1.6 1.9 2 2.5.4.7.5 1.3.5 2.1 0 .7-.3 1.4-.8 2.2-.4.7-1.1 1.2-1.8 1.5-.8.3-1.6.4-2.4.2-.9-.2-1.8-.6-2.8-1.3-1.5-1-2.4-2.1-2.7-3.3-.3-1.2-.1-2.5.6-3.9l2.4 1.3c0 1-.1 1.8 0 2.4zm-11.3-7.6c.2.6.7 1.2 1.4 1.6.8.5 1.5.7 2 .6.6-.1 1-.3 1.3-.8.2-.3.2-.6.2-.9 0-.3-.2-.7-.5-1.1-.2-.3-.8-.8-1.6-1.7-1.1-1.1-1.7-2.1-2-2.9-.3-1.1-.2-2.1.4-3.1.4-.6.9-1.1 1.6-1.4.7-.3 1.4-.4 2.2-.3.8.1 1.7.5 2.6 1 1.5.9 2.4 2 2.8 3.1.3 1.1.2 2.2-.4 3.4l-2.5-1.4c.3-.7.3-1.3.1-1.7-.2-.5-.6-.9-1.3-1.4-.7-.4-1.3-.6-1.9-.6-.4 0-.6.2-.8.5-.2.3-.2.6-.1.9.1.4.7 1.2 1.7 2.2 1 1 1.7 1.8 2.1 2.5.4.6.6 1.3.6 2s-.2 1.4-.7 2.2c-.4.7-1 1.2-1.8 1.6-.7.4-1.6.5-2.4.3-.9-.1-1.8-.5-2.8-1.2-1.5-.9-2.4-2-2.8-3.2-.4-1.2-.2-2.5.4-3.9l2.5 1.2c-.4 1.1-.5 1.9-.3 2.5zm-.4-13.8l-1.2 2-6.4-3.9-1.6 2.7 6 3.7-1.2 2-6-3.7-2 3.3 6.7 4.1-1.2 2-9.1-5.6 7.3-12 8.7 5.4zM386 223.4c1.3.7 2.2 1.3 2.7 1.8s.8 1.2.8 1.9c.1.8-.1 1.5-.5 2.2-.5.9-1.2 1.6-2 1.9-.9.3-1.9.3-3-.1.4.6.6 1.2.8 1.7.2.6.3 1.5.4 2.8l.3 3.2-3-1.6-.4-3.6c-.1-1.3-.3-2.1-.4-2.5-.1-.4-.3-.7-.5-.9-.2-.2-.6-.5-1.2-.8l-.5-.3-2.7 5.2-2.5-1.3 6.4-12.5 5.3 2.9zm-23.8-4.3c.7-1.3 1.5-2.3 2.6-3 1.1-.7 2.3-1.1 3.6-1.1 1 0 2.1.3 3.3.9 1.5.8 2.6 1.7 3.1 2.8.5 1.1.6 2.3.3 3.6l-2.7-.8c.1-.7.1-1.4-.3-2-.3-.6-.8-1.1-1.5-1.5-1.1-.6-2.1-.7-3.2-.3-1 .4-1.8 1.2-2.6 2.6-.8 1.5-1 2.8-.7 3.8.3 1.1.9 1.9 2 2.4.5.3 1.1.4 1.7.5.6.1 1.2 0 1.8 0l.8-1.6-2.9-1.5 1.1-2.1 5.4 2.8-2.5 5c-.8.2-1.8.3-3 .2-1.2-.1-2.3-.5-3.3-1-1.3-.7-2.3-1.5-3-2.6-.7-1-1-2.2-1-3.5.1-1.2.4-2.4 1-3.6zm-15.2-5.5c.4-1.4 1-2.4 1.7-3.2.5-.6 1.1-1.1 1.8-1.5.7-.4 1.4-.6 2.1-.7.9-.1 2 0 3 .4 2 .6 3.3 1.7 4.1 3.3.8 1.6.9 3.5.2 5.7s-1.8 3.7-3.3 4.5c-1.5.9-3.3 1-5.3.4s-3.4-1.7-4.2-3.3c-.7-1.6-.8-3.5-.1-5.6zm-11.8-12.7l5.6 2c1.4.5 2.4 1 2.9 1.4.6.5.9 1.1 1.1 1.8.2.7.1 1.5-.2 2.3-.3 1-.9 1.7-1.7 2.2-.8.4-1.8.5-3 .3.5.5.8 1.1 1 1.6.2.5.5 1.4.8 2.7l.7 3.1-3.2-1.1-.9-3.6c-.3-1.3-.6-2.1-.7-2.4-.2-.4-.4-.6-.6-.8-.2-.2-.7-.4-1.3-.6l-.5-.2-1.9 5.5-2.7-.9 4.6-13.3zm-17.6 9.3l3.3-13.6 4.4 1.1c1.7.4 2.7.7 3.2 1 .7.4 1.3 1 1.6 1.8.4.8.4 1.8.2 2.8-.2.8-.5 1.5-1 2-.4.5-.9.9-1.5 1.1-.5.2-1.1.3-1.6.3-.7 0-1.7-.2-2.9-.5l-1.8-.4-1.2 5.1-2.7-.7zm-15.8-5.7l2.2-9.8 7.3 1.7-.3 1.6-5.3-1.2-.5 2.2 4.9 1.1-.4 1.7-4.9-1.1-.6 2.7 5.5 1.3-.4 1.7-7.5-1.9zm-24.5-2.9l2-13.9 4.2.6 1.1 9.8 3.9-9.1 4.2.6-2 13.9-2.6-.4 1.6-10.9-4.3 10.5-2.7-.4-1.1-11.3-1.6 10.9-2.7-.3zm-14.1-1.6l1.3-14 10.3 1-.2 2.4-7.5-.7-.3 3.1 7 .7-.2 2.4-7-.7-.4 3.8 7.8.7-.2 2.4-10.6-1.1zM249 185.2l5.1.3c1.2.1 2 .2 2.6.4.8.3 1.5.8 2 1.4.6.6 1 1.4 1.2 2.3.3.9.4 2 .3 3.3-.1 1.2-.3 2.1-.6 3-.4 1-.9 1.8-1.6 2.4-.5.5-1.2.8-2 1-.6.2-1.5.2-2.5.2l-5.3-.3.8-14zm-6.6-.2c.7.3 1.2.7 1.6 1.4.4.7.6 1.4.6 2.2 0 1.1-.3 1.9-1 2.6-.6.7-1.5 1.1-2.8 1.3.6.4 1.1.8 1.5 1.2.4.4.9 1.2 1.6 2.3l1.7 2.8h-3.4l-2-3.1c-.7-1.1-1.2-1.8-1.5-2.1-.3-.3-.5-.5-.8-.6-.3-.1-.8-.2-1.4-.2h-.6l-.1 5.9H233l.2-14 5.9.1c1.5-.2 2.6-.1 3.3.2z"/><path class="st5" d="M365.2 228.9c1 .5 2.2.9 3.3 1 1.2.1 2.2.1 3-.2l2.5-5-5.4-2.8-1.1 2.1 2.9 1.5-.8 1.6c-.5.1-1.1.1-1.8 0-.6-.1-1.2-.2-1.7-.5-1.1-.6-1.7-1.4-2-2.4-.3-1.1 0-2.4.7-3.8s1.6-2.2 2.6-2.6c1-.4 2.1-.3 3.2.3.7.4 1.2.9 1.5 1.5.3.6.4 1.3.3 2l2.7.8c.3-1.3.2-2.5-.3-3.6s-1.6-2-3.1-2.8c-1.2-.6-2.3-.9-3.3-.9-1.3 0-2.5.4-3.6 1.1-1.1.7-1.9 1.7-2.6 3-.6 1.1-.9 2.4-1 3.7 0 1.2.3 2.4 1 3.5.7.9 1.7 1.8 3 2.5zM281.5 191.1l1.1 11.3 2.7.4 4.4-10.5-1.7 10.9 2.6.4 2.1-13.8-4.2-.7-3.9 9.1-1.1-9.8-4.2-.6-2 13.8 2.6.4zM274 198.7l-7.8-.8.4-3.8 6.9.7.3-2.4-7-.6.3-3.1 7.5.7.2-2.4-10.3-1-1.3 14 10.6 1zM397.3 246.6l1.2-2-6.6-4.1 1.9-3.3 6 3.7 1.3-2-6-3.7 1.6-2.6 6.4 3.9 1.2-2-8.8-5.4-7.3 11.9zM388.2 241zM402.4 244.8c-.7 1.4-.8 2.7-.4 3.9.4 1.2 1.3 2.3 2.8 3.2 1 .6 2 1 2.8 1.2.9.1 1.7 0 2.4-.3s1.3-.9 1.8-1.6c.5-.8.7-1.5.7-2.2 0-.7-.2-1.4-.6-2-.4-.6-1.1-1.5-2.1-2.5s-1.6-1.7-1.7-2.2c-.1-.3-.1-.7.1-.9.2-.3.5-.5.8-.5.6 0 1.2.2 1.9.6.7.4 1.1.9 1.3 1.4.2.5.1 1.1-.1 1.7l2.5 1.4c.6-1.1.8-2.2.4-3.4-.3-1.1-1.3-2.1-2.8-3.1-.9-.6-1.8-.9-2.6-1-.8-.1-1.6 0-2.2.3-.6.3-1.2.8-1.6 1.4-.6.9-.7 2-.4 3.1.2.8.9 1.7 2 2.9.8.9 1.4 1.4 1.6 1.7.3.4.5.8.5 1.1 0 .3 0 .6-.2.9-.3.4-.7.7-1.3.8-.6.1-1.3-.1-2-.6s-1.2-1-1.4-1.6c-.2-.6-.1-1.4.2-2.3l-2.4-1.4zM413.9 252.4c-.7 1.4-.9 2.7-.6 3.9.3 1.2 1.2 2.3 2.7 3.3 1 .7 1.9 1.1 2.8 1.3.9.2 1.7.1 2.4-.2.7-.3 1.4-.8 1.8-1.5.5-.7.8-1.5.8-2.2 0-.7-.1-1.4-.5-2.1-.3-.7-1-1.5-2-2.5s-1.5-1.8-1.6-2.2c-.1-.4-.1-.7.1-.9.2-.3.5-.5.9-.5.6 0 1.2.2 1.9.7.7.4 1.1.9 1.2 1.4.2.5.1 1.1-.2 1.7l2.4 1.5c.7-1.1.9-2.2.6-3.3-.3-1.1-1.2-2.2-2.6-3.2-.9-.6-1.7-1-2.5-1.1-.8-.2-1.6-.1-2.2.2-.7.3-1.2.7-1.6 1.3-.6.9-.8 1.9-.5 3.1.2.8.8 1.8 1.9 2.9.8.9 1.3 1.5 1.5 1.8.3.4.5.8.5 1.1 0 .3 0 .6-.2.9-.3.4-.7.7-1.3.7-.6.1-1.3-.2-2-.7-.7-.5-1.2-1-1.3-1.7-.2-.6-.1-1.4.3-2.3l-2.7-1.4zM223.4 184.1c-1.1 0-2.1.1-3 .5-.7.3-1.3.7-1.8 1.2-.6.5-1 1.2-1.3 1.9-.5 1-.7 2.2-.7 3.6-.1 2.2.5 4 1.7 5.3 1.2 1.3 2.8 2 4.9 2 2 .1 3.7-.5 5-1.8 1.3-1.2 1.9-3 2-5.3.1-2.3-.5-4.1-1.7-5.4-1.4-1.2-3-1.9-5.1-2zm2.6 11c-.7.8-1.7 1.2-2.8 1.1-1.1 0-2-.5-2.7-1.3-.7-.8-1-2.1-1-3.6 0-1.6.4-2.8 1.2-3.6.7-.8 1.7-1.2 2.8-1.1 1.2 0 2.1.5 2.8 1.3.7.8 1 2 1 3.6-.2 1.5-.6 2.8-1.3 3.6z"/><path class="st6" d="M223.4 186.5c-1.2 0-2.1.3-2.8 1.1-.7.8-1.1 2-1.2 3.6 0 1.6.3 2.8 1 3.6.7.8 1.6 1.3 2.7 1.3s2.1-.4 2.8-1.1c.7-.8 1.1-2 1.2-3.6 0-1.6-.3-2.8-1-3.6-.6-.8-1.5-1.2-2.7-1.3zM219.4 191.3z"/><path class="st5" d="M233.1 198.5h2.8l.1-5.9h.6c.6 0 1.1.1 1.4.2.3.1.6.3.8.6.3.3.8 1 1.5 2.1l2 3.1h3.4l-1.7-2.8c-.7-1.1-1.2-1.9-1.6-2.3-.4-.4-.9-.8-1.5-1.2 1.2-.2 2.2-.6 2.8-1.3.6-.7.9-1.5 1-2.6 0-.8-.2-1.6-.6-2.2-.4-.6-.9-1.1-1.6-1.4-.7-.3-1.8-.4-3.2-.4l-5.9-.1-.3 14.2zm2.9-8v-3.6h2.2c1.1 0 1.8 0 2.1.1.5.1.8.3 1.1.6.3.3.4.7.4 1.1 0 .4-.1.8-.3 1-.2.3-.5.5-.8.6-.3.1-1.2.2-2.5.1l-2.2.1z"/><path class="st4" d="M240.6 190.3c.3-.1.6-.3.8-.6.2-.3.3-.6.3-1 0-.5-.1-.9-.4-1.1-.2-.3-.6-.5-1.1-.6-.2 0-.9-.1-2.1-.1h-2.2v3.6h2.1c1.4 0 2.3-.1 2.6-.2z"/><path class="st5" d="M249 185.2zM253.6 199.5c1 .1 1.9 0 2.5-.2.8-.2 1.5-.6 2-1 .7-.6 1.2-1.4 1.6-2.4.3-.8.5-1.8.6-3 .1-1.3 0-2.4-.3-3.3-.3-.9-.7-1.7-1.2-2.3-.5-.6-1.2-1.1-2-1.4-.6-.2-1.5-.3-2.6-.4l-5.1-.3-.7 14 5.2.3zm-1.9-11.8l1.3.1c1.1.1 1.9.1 2.3.3.5.1.9.4 1.3.7.3.3.6.8.7 1.4.2.6.2 1.4.2 2.5-.1 1.1-.2 1.9-.4 2.6-.2.6-.5 1.1-.8 1.3-.3.3-.7.4-1.2.5-.4.1-.9.1-1.7 0l-2.1-.1.4-9.3z"/><path class="st4" d="M253.3 197.1h1.7c.5-.1.8-.3 1.2-.5.3-.3.6-.7.8-1.3.2-.6.4-1.5.4-2.6.1-1.1 0-1.9-.2-2.5-.2-.6-.4-1.1-.7-1.4-.3-.3-.8-.6-1.3-.7-.4-.1-1.2-.2-2.3-.3l-1.3-.1-.5 9.3 2.2.1z"/><path class="st5" d="M321.6 205.7l1.8.4c1.2.3 2.2.5 2.9.5.5 0 1-.1 1.6-.3.5-.2 1-.6 1.5-1.1.4-.5.8-1.2 1-2 .3-1.1.2-2-.2-2.8-.4-.8-.9-1.4-1.6-1.8-.5-.3-1.5-.6-3.2-1l-4.4-1.1-3.3 13.6 2.7.7 1.2-5.1zm1.5-6.1l1.3.3c1 .2 1.6.4 2 .6.4.2.7.5 1 .9.2.4.3.8.1 1.3-.2.8-.8 1.4-1.6 1.4-.4.1-1.1 0-2.2-.3l-1.5-.4.9-3.8z"/><path class="st4" d="M325.9 204.1c.8-.1 1.4-.7 1.6-1.4.1-.5.1-.9-.1-1.3s-.5-.7-1-.9c-.3-.1-1-.3-2-.6l-1.3-.3-.9 3.9 1.5.4c1 .1 1.8.2 2.2.2z"/><path class="st5" d="M333.3 215l1.9-5.5.5.2c.6.2 1 .4 1.3.6.2.2.4.5.6.8.2.4.4 1.2.7 2.4l.9 3.6 3.2 1.1-.7-3.1c-.3-1.3-.5-2.1-.8-2.7-.2-.5-.6-1.1-1-1.6 1.2.2 2.2.1 3-.3.8-.4 1.4-1.2 1.7-2.2.3-.8.3-1.5.2-2.3-.2-.7-.5-1.3-1.1-1.8-.5-.5-1.5-.9-2.9-1.4l-5.6-2-4.6 13.2 2.7 1zm3.8-10.9l2.1.7c1.1.4 1.7.6 1.9.7.4.2.7.5.8.9.1.4.1.8 0 1.2-.1.4-.3.7-.6.9-.3.2-.6.3-.9.3-.4 0-1.2-.2-2.4-.7l-2-.7 1.1-3.3z"/><path class="st4" d="M337.9 208.1c1.3.5 2.1.7 2.4.7.4 0 .7-.1.9-.3.3-.2.5-.5.6-.9.2-.4.2-.8 0-1.2-.1-.4-.4-.6-.8-.9-.2-.1-.8-.4-1.9-.7l-2.1-.7-1.2 3.4 2.1.6z"/><path class="st5" d="M347.2 219.2c.8 1.6 2.2 2.7 4.2 3.3 2 .6 3.7.5 5.3-.4 1.5-.9 2.7-2.4 3.3-4.5.7-2.2.6-4.1-.2-5.7-.8-1.6-2.2-2.7-4.1-3.3-1.1-.3-2.1-.5-3-.4-.7.1-1.4.3-2.1.7-.7.4-1.3.9-1.8 1.5-.7.8-1.2 1.9-1.7 3.2-.8 2.1-.7 4 .1 5.6zm2.6-4.8c.5-1.5 1.2-2.6 2.1-3.1.9-.6 1.9-.7 3-.3 1.1.3 1.9 1 2.3 2 .4 1 .4 2.2-.1 3.8-.5 1.6-1.2 2.6-2.1 3.2-.9.6-1.9.7-3 .3-1.1-.3-1.8-1-2.3-2-.4-1.1-.3-2.4.1-3.9z"/><path class="st4" d="M349.8 218.2c.5 1 1.2 1.7 2.3 2 1.1.3 2.1.2 3-.3.9-.6 1.6-1.6 2.1-3.2.5-1.5.5-2.8.1-3.8s-1.2-1.6-2.3-2c-1.1-.3-2.1-.2-3 .3-.9.5-1.6 1.6-2.1 3.1-.5 1.6-.6 2.9-.1 3.9z"/><path class="st5" d="M374.3 233.1l2.5 1.3 2.7-5.2.5.3c.6.3 1 .6 1.2.8.2.2.4.5.5.9.1.4.2 1.2.4 2.5l.4 3.6 3 1.6-.3-3.2c-.1-1.3-.2-2.2-.4-2.8-.2-.6-.4-1.1-.8-1.7 1.2.4 2.2.5 3 .1.9-.3 1.5-1 2-1.9.4-.7.5-1.5.5-2.2-.1-.8-.3-1.4-.8-1.9s-1.4-1.1-2.7-1.8l-5.3-2.7-6.4 12.3zm7.8-9l2 1c1 .5 1.6.9 1.8 1 .4.3.6.6.7 1 .1.4 0 .8-.2 1.2-.2.4-.4.6-.7.8-.3.2-.6.2-1 .2-.4-.1-1.1-.4-2.3-1l-1.9-1 1.6-3.2z"/><path class="st4" d="M382.4 228.2c1.2.6 2 1 2.3 1 .4.1.7 0 1-.2.3-.2.5-.4.7-.8.2-.4.3-.8.2-1.2-.1-.4-.3-.7-.7-1-.2-.1-.8-.5-1.8-1l-2-1-1.6 3.2 1.9 1z"/><path class="st5" d="M426.1 258.7c-1.2 1.8-1.7 3.6-1.4 5.4.3 1.7 1.3 3.2 3 4.4 1.7 1.2 3.4 1.5 5.1 1.2 1.7-.4 3.2-1.5 4.5-3.4 1.3-1.9 1.8-3.7 1.4-5.5-.3-1.8-1.3-3.2-3-4.4-.9-.6-1.9-1.1-2.8-1.2-.7-.1-1.5-.1-2.2 0-.8.2-1.5.5-2.1.9-.9.5-1.7 1.4-2.5 2.6zm2.5 1.6c.9-1.3 1.9-2.1 2.9-2.4 1-.3 2-.1 3 .6s1.5 1.5 1.6 2.6c.1 1.1-.2 2.2-1.1 3.6-.9 1.3-1.9 2.2-2.9 2.4-1 .3-2 .1-3-.5-.9-.6-1.5-1.5-1.6-2.6-.2-1.2.2-2.4 1.1-3.7z"/><path class="st4" d="M427.5 263.9c.2 1.1.7 1.9 1.6 2.6.9.6 1.9.8 3 .5 1.1-.3 2-1.1 2.9-2.4.9-1.3 1.3-2.5 1.1-3.6-.1-1-.7-1.9-1.6-2.6-1-.7-2-.9-3-.6-1 .3-2 1.1-2.9 2.4-.9 1.4-1.3 2.6-1.1 3.7z"/><path class="st5" d="M309.7 204.6l-5.5-1.3.6-2.7 4.9 1.2.4-1.7-4.9-1.1.5-2.2 5.3 1.2.3-1.6-7.2-1.7-2.3 9.8 7.5 1.7zM301.8 204.5z"/></svg>