<svg id="Ebene_1" xmlns="http://www.w3.org/2000/svg" viewBox="0 0 640 480"><style>.st0{fill:#B20000;} .st1{fill:#429F00;} .st2{fill:#FFFFFF;}</style><path class="st0" d="M106.3 0H640v318.9H106.3z"/><path class="st1" d="M106.3 318.9H640V480H106.3z"/><path class="st2" d="M106.3 0H81v8.1h-5.1V0H55.7v8.1h-5.1V0H30.4v8.1h-5.1V0H0v40.7h5.1v-8.1h5.1v-8.1h5.1v-8.1h5.1V8.1h15.2v8.1h5.1v8.1h5.1v8.1h5.1v8.1H56v-8.1h5.1v-8.1h5.1v-8.1h5.1V8.1H86v8.1h5.1v8.1h5.1v8.1h5.1v8.1h5.1v8.1h-5.1V57h-5.1v8.1h-5.1v8.1H86v8.1h-5v8.1h-5.1v-8.1h-5.1v-8.1h-5.1v-8.1h-5.1V57h-5.1v-8.1h-5.1V57h-5.1v8.1h-5.1v8.1h-5.1v8.1H30v8.1h-5.1v-8.1h-5.1v-8.1h-5.1v-8.1H9.6V57H5.1v-8.1H0v24.4h5.1v8.1H0v16.3h5.1v-8.1h5.1v-8.1h5.1v8.1h5.1v8.1h5.1v8.1h-5.1v8.1h-5.1v8.1h-5.1v-8.1H5.1v-8.1H0V122h5.1v8.1H0v24.4h5.1v-8.1h5.1v-8.1h5.1v-8.1h5.1V122h5.1v-8.1h5.1v8.1h5.1v8.1h5.1v8.1h5.1v8.1H51v8.1h5.1v-8.1h5.1v-8.1h5.1v-8.1h5.1V122h5.1v-8.1H81v8.1h5v8.1h5.1v8.1h5.1v8.1h5.1v8.1h5.1v8.1h-5.1v8.1h-5.1v8.1H70.9v-8.1H76v-8.1h5v-16.2h-5.1v8.1h-5.1v8.1h-5.1v8.1h-5.1v8.1h-5.1v8.1h5.1v8.1h5.1v8.1h5.1v8.1h5.1v8.1H81v8.1h5v-8.1h5.1v-8.1h5.1V203h5.1v-8.1h5.1v16.2h-5.1v8.1h-5.1v8.1h-5.1v8.1H86v8.1h5.1v8.1H75.9v-8.1H81v-8.1h-5.1v-8.1h-5.1v-8.1h-5.1v-8.1h-5.1V203h-5.1v-8.1h-5.1v8.1h-5.1v8.1h-5.1v8.1h-5.1v8.1H30v8.1h-5.1v8.1H30v8.1H15.2v-8.1h5.1v-8.1h-5.1v-8.1h-5.1v-8.1h-5v-8.1H0v24.4h5.1v8.1H0V268h10.1v8.1H0h5.1v8.1H0v32.5h25.3v8.1H0v24.4h5.1v8.1H0v16.3h10.1v8.1h5.1v-8.1h10.1v8.1h-5.1v8.1H5.1v-8.1H0V398h5.1v8.1H0v24.4h10.1v8.1H0V480h106.3V0zM10.1 16.3h-5V8.1h5.1v8.2zm91.1 0h-5.1V8.2h5.1v8.1zM50.6 73.2h5.1v8.1h-5.1v-8.1zm5.1 57h-5.1V122h5.1v8.2zm20.2-24.4h-5.1v8.1h-5.1v8.1h-5.1v-8.1h-5.1v-8.1h-5.1v8.1h-5.1v8.1h-5.1v-8.1h-5.1v-8.1H30v-8.1h5.1v-8.1h5.1v-8.1h5.1v8.1h5.1v8.1h5.1v-8.1h5.1v-8.1h5.1v8.1h5.1v8.1h5.1v8.1zm15.2 81.3H86v8.1h-5v-8.1h-5.1V179h15.2v8.1zm15.2-113.9v8.1h-5.1v-8.1h5.1zm0 57h-5.1v-8.1h5.1v8.1zm-5.1-24.4v8.1h-5.1v8.1H91v-8.1h-5v-8.1h-5v-8.1h5v-8.1h5.1v-8.1h5.1v8.1h5.1v8.1h5.1v8.1h-5.2zm5.1 170.8H96.2v-8.1h10.1v8.1zm-5.1 57h-5.1v8.1H60.7v-8.1h-5.1v-8.1h20.2v8.1H81v-8.1h20.2v8.1zm5.1 16.2v8.1h-5.1v-8.1h5.1zM86 398.6v8.1H70.9v-8.1H76v-8.1h5v8.1h5zm10.2 16.3v8.1h5.1v8.1H91.1V423H86v-8.1h10.2zm-5.1-16.3v-8.1h5.1v8.1h-5.1zm10.1 8.2v-8.1h5.1v8.1h-5.1zm-10.1 8.1H81v-8.1h10.1v8.1zM81 431.2v8.1h-5.1v-8.1H81zm-45.6-8.1V415h10.1v8.1h5.1v8.1H40.5v-8.1h-5.1zm-5-40.7v-8.1h10.1v8.1h5.1v-8.1h15.2v8.1h5.1v-8.1H76v8.1h-5.1v8.1H55.7v-8.1h-5.1v8.1H35.4v-8.1h-5zm10.1-32.6H15.2v-8.1h25.3v8.1zm5 8.2v8.1h-5.1V358h5.1zm5.1 8.1v8.1H35.4v-8.1h15.2zm15.2-8.1v8.1h-5.1V358h5.1zm0-8.2v-8.1h25.3v8.1H65.8zm5.1 16.3v8.1H55.7v-8.1h15.2zM55.7 358h-5.1v-8.1h5.1v8.1zm10.1 32.5v8.1h-5.1v-8.1h5.1zm-10.1 8.1v8.1h-5.1v-8.1h5.1zm-10.2-8.1v8.1h-5.1v-8.1h5.1zm-5 16.3v8.1H30.4v-8.1h10.1zm5.1 24.4h15.2v8.1H45.6v-8.1zm10.1 0V423h5.1v-8.1h10.1v8.1h-5.1v8.1H55.7zm10.1-16.3v-8.1h10.1v8.1H65.8zm5.1-56.9v-8.1H86v8.1h-5v8.1h-5.1V358h-5zm15.1 8.1h15.2v8.1H86v-8.1zm5.1 0V358h5.1v8.1h-5.1zm-20.2-56.9V301h25.3v8.1h5.1v8.1H75.9v-8.1h-5zm5-8.2v-8.1h15.2v8.1H75.9zm25.3-16.2v-8.1h5.1v8.1h-5.1zm5.1-48.9v8.1h-5.1v-8.1h5.1zM86 252.2h10.1v8.1h5.1v8.1H91.1v-8.1H86v-8.1zm-5 32.5h5v8.1h-5v-8.1zm-15.2-48.8h5.1v8.1h-5.1v-8.1zm0 24.4h5.1v-8.1H81v8.1h-5.1v8.1H65.8v-8.1zm-5.1 8.2h10.1v8.1H60.7v-8.1zm-10.1-57h5.1v8.1h-5.1v-8.1zm-5 32.6h5.1V236h-5.1v-8.1h5.1v8.1h5.1v-8.1h5.1v8.1h-5.1v8.1h5.1v8.1h-5.1v-8.1h-5.1v8.1h-5.1v-8.1zm10.1 16.2v8.1h-5.1v-8.1h5.1zm-5.1 16.3v8.1h5.1v-8.1h10.1v8.1h-5.1v8.1h-5.1v8.1h-5.1v-8.1h-5.1v-8.1h-5.1v-8.1h10.3zm15.2 32.6v8.1H40.5v-8.1h5.1V301h15.2v8.1h5zm-20.2-40.7v8.1H35.4v-8.1h10.2zm-10.2-32.6h5.1v8.1h-5.1v-8.1zm-10.1 16.3h10.1v8.1h5.1v8.1H30.4v-8.1h-5.1v-8.1zm0 32.5v8.1h5.1v8.1H15.2v-8.1h5.1v-8.1h5zM5.1 268.5v-8.1h5.1v-8.1h10.1v8.1h-5.1v8.1H5.1zm0 48.8v-8.1h5.1v-8.1h25.3v8.1h-5.1v8.1H5.1zm30.3 0h35.4v8.1H35.4v-8.1zM5.1 333.6v-8.1h20.2v8.1h5.1v-8.1h20.2v8.1h-5.1v8.1H10.1v-8.1h-5zM15.2 358v8.1h-5.1V358h5.1zm5 16.2H5.1v-8.1h15.2v8.1zm5.1-8.1V358h-5.1v-8.1h15.2v8.1h-5.1v8.1h-5zm-5.1 32.5h5.1v-8.1h5.1v8.1h5.1v8.1H20.2v-8.1zm-5 8.2h10.1v8.1H15.2v-8.1zm15.2 24.4v8.1h-5.1v-8.1h5.1zm-20.3-40.7h5.1v8.1h-5.1v-8.1zm-5 40.7V423h5.1v-8.1h10.1v8.1h-5.1v8.1H5.1zm5 40.7h-5v-8.1h5.1v8.1zm0-16.3v-8.1h-5v-8.1h10.1v8.1h5.1v8.1h5.1v8.1H15.2v-8.1h-5.1zm25.3 16.3h-5.1v8.1h-5.1v-8.1h-5.1v-8.1h15.2v8.1zm5.1-8.2H30.4v-8.1h10.1v8.1zm10.1-16.2h-5.1v8.1H35.4v-8.1h5.1v-8.1h10.1v8.1zm5.1 32.5h-5.1v-8.1h5.1v8.1zm0-32.5v-8.1h10.1v8.1h5.1v8.1H60.7v-8.1h-5zm10.1 8.1h10.1v8.1H65.8v-8.1zM86 471.9h-5v8.1h-5.1v-8.1h-5.1v-8.1H86v8.1zm5.1-8.2H81v-8.1h10.1v8.1zm10.1 8.2h-5.1v-8.1h5.1v8.1zm0-24.4h-5.1v8.1H86v-8.1h5.1v-8.1h10.1v8.1zm5.1-8.2H96.2v-8.1h10.1v8.1zm0-56.9h-5.1v8.1H86v-8.1h-5v-8.1h10.1v8.1h5.1v-8.1h10.1v8.1zm-25.3-57v-8.1h25.3v8.1H81z"/><path class="st2" d="M91.1 97.6h5.1v8.1h-5.1zM5.1 203.4h5v8.1h5.1v8.2h5v8.1h5.1v-8.1h5.1v-8.2h5v-8.1h5.1v-8.1h5.1v-8.2h5V179h-5v-8.1h-5.1v-8.2h-5.1v-8.1h-5v-8.2h-5.1V162.7h5.1v8.2h5v8.1h-5v8.1h-5.1v8.2h-5.1v-8.2h-5V179h-5.1v-8.1h-5v-8.2H0v32.6h5.1zM60.7 48.8h5.1V57h5.1v8.1H76v8.1h5v-8.1h5V57h5.1v-8.1h5.1v-8.1h-5.1v-8.1H86v-8.1h-5v-8.1h-5.1v8.1h-5.1v8.1h-5.1v8.1h-5.1v8zm15.2-8.1H81v8.1h-5.1v-8.1zM15.2 57h5.1v8.1h5.1v8.1h5.1v-8.1h5.1V57h5.1v-8.1h5.1v-8.1h-5.1v-8.1h-5.1v-8.1h-5.1v-8.1h-5.1v8.1h-5.1v8.1h-5.1v8.1h-5.1v8.1h5.1V57zm15.2-16.3v8.1h-5.1v-8.1h5.1zM60.7 97.6h5.1v8.1h-5.1zM10.1 97.6h5.1v8.1h-5.1zM40.5 97.6h5.1v8.1h-5.1z"/><path class="st0" d="M25.3 0h5.1v8.1h-5.1zM5.1 8.1h5.1v8.1H5.1zM75.9 0H81v8.1h-5.1zM50.6 0h5.1v8.1h-5.1zM96.2 8.1h5.1v8.1h-5.1zM101.2 73.2h5.1v8.1h-5.1zM50.6 73.2h5.1v8.1h-5.1zM0 73.2h5.1v8.1H0zM75.9 187.1H81v8.2h5v-8.2h5.1V179H75.9zM101.2 122h5.1v8.1h-5.1zM0 122h5.1v8.1H0z"/><path class="st0" d="M5.1 57h5.1v8.1h5.1v8.1h5.1v8.1h5.1v8.1h5.1v-8.1h5.1v-8.1h5.1v-8.1h5.1V57H51v-8.1h5.1V57h5.1v8.1h5.1v8.1h5.1v8.1h5.1v8.1H81v-8.1h5v-8.1h5.1v-8.1h5.1V57h5.1v-8.1h5.1v-8.1h-5.1v-8.1h-5.1v-8.1h-5.1v-8.1H86V8.1H70.9v8.1h-5.1v8.1h-5.1v8.1h-5.1v8.1h-5.1v-8.1h-5.1v-8.1h-5.1v-8.1h-5.1V8.1h-15v8.1h-5.1v8.1H10v8.1H5.1v8.1H0v8.1h5.1V57zm60.7-16.3v-8.1h5.1v-8.1H76v-8.1h5v8.1h5v8.1h5.1v8.1h5.1v8.1h-5.1V57H86v8.1h-5v8.1h-5.1v-8.1h-5.1V57h-5.1v-8.1h-5.1v-8.1h5.2zm-55.7 0h5.1v-8.1h5.1v-8.1h5.1v-8.1h5.1v8.1h5.1v8.1h5.1v8.1h5.1v8.1h-5.1V57h-5.1v8.1h-5.1v8.1h-5.1v-8.1h-5.1V57h-5.1v-8.1h-5.1v-8.2zM5.1 219.7h5v8.1h5.1v8.1h5v8.2h-5v8.1h15.2v-8.1h-5.1v-8.2h5.1v-8.1h5v-8.1h5.1v-8.2h5.1v-8.1h5v-8.1h5.1v8.1h5v8.1h5.1v8.2h5.1v8.1h5v8.1H81v8.2h-5.1v8.1h15.2v-8.1H86v-8.2h5.1v-8.1h5.1v-8.1h5v-8.2h5.1v-16.2h-5.1v8.1h-5v8.1h-5.1v8.2H86v8.1h-5v-8.1h-5.1v-8.2h-5v-8.1h-5.1v-8.1h-5.1v-8.2h-5V179h5v-8.1h5.1v-8.2h5.1v-8.1h5v-8.2H81V162.7h-5.1v8.2h-5v8.1h25.3v-8.1h5v-8.2h5.1v-8.1h-5.1v-8.2h-5v-8.1h-5.1v-8.1H86V122h-5v-8.1h-5.1v8.1h-5v8.2h-5.1v8.1h-5.1v8.1h-5v8.2h-5.1v-8.2h-5.1v-8.1h-5v-8.1h-5.1V122h-5v-8.1h-5.1v8.1h-5.1v8.2h-5v8.1h-5.1v8.1h-5v8.2H0v8.1h5.1v8.2h5v8.1h5.1v8.1h5v8.2h5.1v-8.2h5.1V179h5v-8.1h-5v-8.2h-5.1V146.4h5.1v8.2h5v8.1h5.1v8.2h5.1v8.1h5v8.1h-5v8.2h-5.1v8.1h-5.1v8.1h-5v8.2h-5.1v8.1h-5.1v-8.1h-5v-8.2h-5.1v-8.1h-5v-8.1H0v16.2h5.1zM0 235.9h5.1v8.1H0z"/><path class="st0" d="M25.3 40.7h5.1v8.1h-5.1zM50.6 211.5h5.1v8.1h-5.1zM75.9 40.7H81v8.1h-5.1zM35.4 235.9h5.1v8.1h-5.1zM50.6 122h5.1v8.1h-5.1zM65.8 235.9h5.1v8.1h-5.1zM101.2 235.9h5.1v8.1h-5.1zM70.9 89.5h-5.1v-8.1h-5.1v8.1h-5.1v8.1h-5.1v-8.1h-5.1v-8.1h-5.1v8.1h-5.1v8.1h-5.1v8.1h5.1v8.1h5.1v8.1h5.1v-8.1h5.1v-8.1h5.1v8.1h5.1v8.1h5.1v-8.1h5.1v-8.1H76v-8.1h-5.1v-8.1zm-5.1 8.1v8.1h-5.1v-8.1h5.1zm-20.2 0v8.1h-5.1v-8.1h5.1zM106.3 97.6h-5.1v-8.1h-5.1v-8.1H91v8.1h-5v8.1h-5v8.1h5v8.1h5.1v8.1h5.1v-8.1h5.1v-8.1h5.1v-8.1zm-10.1 0v8.1h-5.1v-8.1h5.1zM5.1 113.9h5.1v8.1h5.1v-8.1h5.1v-8.1h5.1v-8.1h-5.1v-8.1h-5.1v-8.1h-5.1v8.1H5.1v8.1H0v8.1h5.1v8.1zm5-8.1v-8.1h5.1v8.1h-5.1zM20.2 471.9h5.1v8.1h5.1v-8.1h5v-8.2H20.2zM5.1 463.7h5.1v8.1H5.1zM50.6 471.9h5.1v8.1h-5.1zM70.9 471.9h5v8.1H81v-8.1h5v-8.2H70.9z"/><path class="st0" d="M81 455.6h10.1v8.1H81zM25.3 463.7v-8.1h-5.1v-8.1h-5v-8.2H5.1v8.2h5v8.1h5.1v8.1zM96.2 463.7h5.1v8.1h-5.1zM65.8 455.6h10.1v8.1H65.8zM30.4 455.6h10.1v8.1H30.4zM70.9 455.6v-8.1h-5.1v-8.2H55.7v8.2h5v8.1zM35.4 398.6h-5v-8.1h-5.1v8.1h-5.1v8.2h15.2zM15.2 406.8h10.1v8.1H15.2zM91.1 447.5H86v8.1h10.2v-8.1h5v-8.2H91.1zM40.5 447.5h-5.1v8.1h10.2v-8.1h5v-8.2H40.5zM30.4 406.8h10.1v8.1H30.4zM65.8 406.8h10.1v8.1H65.8zM86 423.1h5.1v8.1h10.1V423h-5v-8.1H86z"/><path class="st0" d="M81 406.8h10.1v8.1H81zM30.4 358h5v-8.2H20.2v8.2h5.1v8.1h5.1zM75.9 390.5v8.1h-5v8.2H86v-8.2h-5v-8.1zM0 398.6h5.1v8.1H0zM101.2 398.6h5.1v8.1h-5.1zM50.6 398.6h5.1v8.1h-5.1zM15.2 341.7h25.3v8.1H15.2zM81 366.1V358h5v-8.2H70.9v8.2h5v8.1zM35.4 268.5h10.1v8.1H35.4zM15.2 292.9v8.1h15.2v-8.1h-5.1v-8.2h-5.1v8.2zM30.4 268.5h10.1v-8.2h-5.1v-8.1H25.3v8.1h5.1zM60.7 268.5h10.1v8.1H60.7zM81 317.3h25.3v8.1H81zM75.9 260.3H81v-8.1H70.9v8.1h-5.1v8.2h10.1zM45.6 301v8.2h-5.1v8.1h25.3v-8.1h-5.1V301zM75.9 292.9h15.2v8.1H75.9z"/><path class="st0" d="M40.5 284.8h5.1v8.1h5v8.1h5.1v-8.1h5v-8.1h5.1v-8.2H55.7v8.2h-5.1v-8.2H40.5zM50.6 431.2V423h-5v-8.1H35.4v8.2h5.1v8.1zM65.8 341.7h25.3v8.1H65.8zM0 349.8h5.1v8.1H0zM45.6 431.2h15.2v8.1H45.6zM96.2 431.2h10.1v8.1H96.2zM0 431.2h10.1v8.1H0zM101.2 349.8h5.1v8.1h-5.1zM35.4 317.3h35.4v8.1H35.4z"/><path class="st0" d="M15.2 423.1h5v-8.2H10.1v8.1h-5v8.2h10.1zM10.1 341.7h35.4v-8.1h5.1v-8.2H30.4v8.2h-5.1v-8.2H5.1v8.2h5z"/><path class="st0" d="M25.3 317.3H0v8.1h25.3zM65.8 423.1h5.1v-8.2H60.7v8.1h-5v8.2h10.1zM91.1 268.5h10.1v-8.2h-5v-8.1H86v8.1h5.1zM96.2 268.5h10.1v8.1H96.2zM15.2 260.3h5v-8.1H10.1v8.1h-5v8.2h10.1zM0 268.5h10.1v8.1H0zM50.6 260.3h5.1v8.1h-5.1zM35.4 366.1h15.2v8.1H35.4zM25.3 431.2h5.1v8.1h-5.1zM40.5 358h5.1v8.1h-5.1zM50.6 349.8h5.1v8.1h-5.1zM75.9 431.2H81v8.1h-5.1zM40.5 390.5h5.1v8.1h-5.1zM60.7 390.5h5.1v8.1h-5.1z"/><path class="st0" d="M50.6 390.5v-8.1h5.1v8.1h15.2v-8.1h5v-8.2H65.8v8.2h-5.1v-8.2H45.6v8.2h-5.1v-8.2H30.4v8.2h5v8.1z"/><path class="st0" d="M55.7 366.1h15.2v8.1H55.7zM60.7 358h5.1v8.1h-5.1zM86 366.1h15.2v8.1H86zM91.1 390.5h5.1v8.1h-5.1zM91.1 358h5.1v8.1h-5.1z"/><path class="st0" d="M96.2 382.4h-5.1v-8.2H81v8.2h5v8.1h15.2v-8.1h5.1v-8.2H96.2zM5.1 390.5h15.1v-8.1h5.1v-8.2H15.2v8.2h-5.1v-8.2H0v8.2h5.1zM50.6 244.1h5.1v8.1h5v-8.1h-5v-8.2h5v-8.1h-5v8.1h-5.1v-8.1h-5v8.1h5v8.2h-5v8.1h5zM30.4 309.2h5V301H10.1v8.2h-5v8.1h25.3zM101.2 276.6h5.1v8.1h-5.1zM0 276.6h5.1v8.1H0zM81 284.7h5.1v8.1H81zM101.2 317.3v-8.1h-5V301H70.9v8.2h5v8.1zM10.1 390.5h5.1v8.1h-5.1zM81 333.6h-5.1v-8.2H55.7v8.2h5v8.1h35.5v-8.1h5v-8.2H81z"/><path class="st0" d="M5.1 366.1h15.2v8.1H5.1zM10.1 358h5.1v8.1h-5.1z"/></svg>