<svg id="Ebene_1" xmlns="http://www.w3.org/2000/svg" viewBox="0 0 640 480"><style>.st0{fill:#FFFFFF;} .st1{fill:#BF0A30;}</style><path class="st0" d="M150.2 480h339.6V0H150.2v480zm41.9-295.8c12.1 2.6 30.1 9.4 35.5 7.2 5.4-2.4 8.1-13.1 12.2-19.6l31.1 35.4c3.1 1.6 5.6.8 6.7-2.2L264 130.8l22.7 12.7c1.5 1.2 3.3 1 5-.7L315.4 95l22.9 46c1.3 2.3 3.3 3.1 5.3 2.2l23.8-13.4-15 74.8c.8 3 2.4 4.4 5.9 3.6l32.6-35.8 9.1 17.5c2.3 6.4 38.2-5.9 38.2-5.9-1.9 16.3-14.5 42.1-5.7 48.9l10.7 3.9-61.3 51c-3.8 13.9-.1 18.6 4 27.3l-66.7-7.9 3 66.5-13.8.4 1.7-67-66.6 8.5c4-7.3 10.2-11.3 5.6-25.2l-61.4-53.9 13.2-4.5c8.2-8.2-4.7-32.9-8.8-47.8z"/><path class="st1" d="M489.8 0h169.8v480H489.8zM187.8 236.5l61.4 53.9c4.6 13.8-1.6 17.9-5.6 25.2l66.6-8.5-1.7 67 13.8-.4-3-66.5 66.7 7.9c-4.1-8.7-7.8-13.3-4-27.3l61.3-51-10.7-3.9c-8.8-6.8 3.8-32.6 5.7-48.9 0 0-35.8 12.3-38.2 5.9l-9.1-17.5-32.6 35.8c-3.6.9-5.1-.6-5.9-3.6l15-74.8-23.8 13.4c-2 .9-4 .1-5.3-2.2l-22.9-46-23.6 47.8c-1.8 1.7-3.6 1.9-5 .7l-22.7-12.7 13.6 74.2c-1.1 2.9-3.7 3.8-6.7 2.2L240 171.8c-4.1 6.5-6.8 17.2-12.2 19.6-5.4 2.2-23.4-4.5-35.5-7.2 4.1 14.9 17 39.7 8.9 47.8l-13.4 4.5zM150.2 0H-19.6v480h169.8V0z"/></svg>