<svg id="Ebene_1" xmlns="http://www.w3.org/2000/svg" viewBox="0 0 640 480"><style>.st0{fill:#DE2910;} .st1{fill:#FFDE00;}</style><path class="st0" d="M0 0v480h640V0H0zm162.3 178.3L120 147.5l-42.3 30.8 16.2-49.8-42.4-30.8h52.4L120 48l16.1 49.7h52.4l-42.4 30.8 16.2 49.8zm59.9-146.1l16.1 6.8 11.5-13.2-1.6 17.4 16.1 6.8-17 3.9-1.6 17.4-9-15-17 3.9 11.4-13.1-8.9-14.9zm24.1 207l-9.6-14.6-16.9 4.6 10.9-13.6-9.6-14.5 16.3 6.1 10.9-13.6-.8 17.5 16.3 6.2-16.8 4.6-.7 17.3zm33.5-147.7l-2.5-17.3 12.2 12.5 15.7-7.7-8.2 15.5 12.2 12.5-17.2-3-8.2 15.4-2.5-17.3-17.2-3 15.7-7.6zm23 95.4l-14.5-9.8-13.8 10.8 4.8-16.8-14.4-9.7 17.4-.6 4.8-16.8 6 16.4 17.4-.6-13.7 10.7 6 16.4z"/><path class="st1" d="M136.1 97.7L120 48l-16.1 49.7H51.5l42.3 30.8-16.1 49.8 42.3-30.8 42.3 30.8-16.1-49.8 42.3-30.8zM236.7 56.4l9 15 1.5-17.4 17-3.9-16-6.8 1.5-17.4-11.5 13.2-16-6.9 8.9 15-11.4 13.1zM283.8 119.5L292 104l17.2 3L297 94.5l8.2-15.4-15.7 7.7-12.1-12.6 2.4 17.3-15.6 7.7 17.1 3zM293.1 160.4l-6-16.4-4.8 16.8-17.4.6 14.4 9.7-4.8 16.8 13.8-10.7 14.5 9.7-6-16.4 13.7-10.7zM247.6 211l.8-17.4-10.9 13.6-16.3-6.1 9.6 14.5-11 13.6 16.9-4.6 9.6 14.6.8-17.4 16.8-4.6z"/></svg>