<?xml version="1.0" encoding="utf-8"?>
<!-- Generator: Adobe Illustrator 20.0.0, SVG Export Plug-In . SVG Version: 6.00 Build 0)  -->
<svg version="1.1" id="Ebene_1" xmlns="http://www.w3.org/2000/svg" xmlns:xlink="http://www.w3.org/1999/xlink" x="0px" y="0px"
	 viewBox="0 0 640 480" style="enable-background:new 0 0 640 480;" xml:space="preserve">
<style type="text/css">
	.st0{fill:#FFFFFF;}
	.st1{fill:#CE1126;}
	.st2{fill:#FFFFFF;stroke:#C09300;stroke-width:1.27;stroke-linejoin:round;}
	.st3{fill:#C09300;}
	.st4{fill:#C09300;stroke:#C09300;stroke-width:1.074;}
	.st5{fill:#FFFFFF;stroke:#C09300;stroke-width:1.189;stroke-linejoin:round;}
	.st6{fill:none;stroke:#C09300;stroke-width:1.27;stroke-linejoin:round;}
	.st7{fill:#FFFFFF;stroke:#C09300;stroke-width:2.378;stroke-linecap:round;stroke-linejoin:round;}
	.st8{fill:#FFFFFF;stroke:#C09300;stroke-width:1.27;stroke-linecap:round;stroke-linejoin:round;}
	.st9{fill:#FFFFFF;stroke:#C09300;stroke-width:0.891;stroke-linecap:round;stroke-linejoin:round;}
	.st10{fill:#FFFFFF;stroke:#C09300;stroke-width:1.15;}
	.st11{fill:#FFFFFF;stroke:#C09300;stroke-width:0.916;}
	.st12{fill:#FFFFFF;stroke:#C09300;stroke-width:1.218;}
	.st13{fill:none;stroke:#C09300;stroke-width:1.27;}
	.st14{fill:#C09300;stroke:#C09300;stroke-width:0.354;}
</style>
<path d="M-1,320h640v160H-1V320z"/>
<path class="st0" d="M-1,160h640v160H-1V160z"/>
<path class="st1" d="M-1,0h640v160H-1V0z"/>
<g transform="matrix(.8 0 0 .8 -40 0)">
	<path class="st2" d="M449.6,302.4L518,366l-4.9-115.5c-0.7-17.5-15.9-13.5-27-7.2c-11.2,7.2-24,7.2-37.4,2.4
		c-13.5,4.7-26.3,4.7-37.4-2.4c-11-6.3-26.3-10.3-27,7.2L379.5,366L449.6,302.4L449.6,302.4z"/>
	<path id="a" class="st3" d="M392.2,246.5l-4.7,112.3l-8,7.2l4.9-115.5C386.6,248.9,390.6,246.5,392.2,246.5L392.2,246.5z
		 M401.8,254.5l-4,94l-8,8.2l4.9-108.5C396.2,249.8,401,253.7,401.8,254.5L401.8,254.5z M410.6,261.7l-3.2,78.4l-6.5,6.3l4-89.4
		C406.6,258.5,409.7,260.8,410.6,261.7L410.6,261.7z M420.1,265.7l-3.2,66.8l-6.3,5.1l3.2-74.3C415.3,264,418.5,265.7,420.1,265.7
		L420.1,265.7z M428.8,265.7l-2.3,55.7l-6.5,6.3l2.4-61.3C424.1,266.4,428.1,266.4,428.8,265.7L428.8,265.7z"/>
	<g transform="matrix(-1 0 0 1 900 0)">
		<path id="a_1_" class="st3" d="M505.3,246.5l4.7,112.3l8,7.2l-4.9-115.5C510.9,248.9,506.9,246.5,505.3,246.5L505.3,246.5z
			 M495.7,254.5l4,94l8,8.2l-4.9-108.5C501.3,249.8,496.5,253.7,495.7,254.5L495.7,254.5z M486.9,261.7l3.2,78.4l6.5,6.3l-4-89.4
			C490.9,258.5,487.8,260.8,486.9,261.7L486.9,261.7z M477.4,265.7l3.2,66.8l6.3,5.1l-3.2-74.3C482.2,264,479,265.7,477.4,265.7
			L477.4,265.7z M468.7,265.7l2.3,55.7l6.5,6.3l-2.4-61.3C473.4,266.4,469.4,266.4,468.7,265.7L468.7,265.7z"/>
	</g>
	<path class="st4" d="M451.9,315.1l9.6,43.8l-3.2,3.2l-3.3-2.4l-5.5-39l2.3,39l-3.2,4l-3.2-4l2.3-39l-5.5,39l-3.3,2.4l-3.2-3.2
		l9.6-43.8L451.9,315.1L451.9,315.1z"/>
	<g id="b">
		<path class="st5" d="M427.2,295.8l-19.1,67.7l26.3,4l11.2-50.9L427.2,295.8L427.2,295.8z"/>
		<path class="st6" d="M420.9,318.9l2.3,5.6l12.4-11.8"/>
		<path class="st6" d="M429.5,304.9l2.6,24.3l7.9-10.3 M436.8,322.9l4.3,14.9 M442.8,332.4l-8.7,13.2 M436.8,358.8l-2.8-13.2
			l-2.4-13.4l-5.8,7.9l-2.6-9.1l-8.2,8.4l4.2,15.3l5.7-9.4l3.2,9.6l5.9-9.2"/>
		<path class="st6" d="M413.7,362l5.3-7.4l3.5,11.5l4.7-8l3.2,9.6"/>
	</g>
	<g transform="matrix(-1 0 0 1 900 0)">
		<g id="b_1_">
			<path class="st5" d="M470.3,295.8l19.1,67.7l-26.3,4l-11.2-50.9L470.3,295.8L470.3,295.8z"/>
			<path class="st6" d="M476.6,318.9l-2.3,5.6l-12.4-11.8"/>
			<path class="st6" d="M468,304.9l-2.6,24.3l-7.9-10.3 M460.7,322.9l-4.3,14.9 M454.7,332.4l8.7,13.2 M460.7,358.8l2.8-13.2
				l2.4-13.4l5.8,7.9l2.6-9.1l8.2,8.4l-4.2,15.3l-5.7-9.4l-3.2,9.6l-5.9-9.2"/>
			<path class="st6" d="M483.8,362l-5.3-7.4L475,366l-4.7-8l-3.2,9.6"/>
		</g>
	</g>
	<g>
		<path class="st7" d="M448.8,393.8c19.9,0,39-1.6,50.2-4.7c4.7-0.9,4.7-3.3,4.7-6.5c4.7-1.6,2.3-7.2,5.6-7.2c-3.3,0.9-4-5.6-8-4.7
			c0-5.6-5.6-6.3-10.3-4.7c-9.5,3.2-26.3,3.9-42.2,3.9c-15.9-0.7-32.6-0.7-42.2-3.9c-4.7-1.6-10.3-0.9-10.3,4.7
			c-4-0.9-4.7,5.6-8,4.7c3.3,0,0.9,5.6,5.6,7.2c0,3.2,0,5.6,4.9,6.5C409.7,392.2,428.8,393.8,448.8,393.8L448.8,393.8z"/>
		<path class="st8" d="M421.6,363.5c6.5,0.9,13.6,1.6,19.2,0.9c3.2,0,5.5,5.5-0.9,6.3c-5.6,0.7-14.3,0-19.1-0.9
			c-4-0.7-12.8-2.3-18.4-3.9c-5.6-2.4-1.6-7.2,1.6-6.5C409,361.1,415.3,362.7,421.6,363.5L421.6,363.5z M475.9,363.5
			c-6.5,0.9-13.6,1.6-19.1,0.9c-3.3,0-5.6,5.5,0.7,6.3c5.6,0.7,14.3,0,19.1-0.9c4-0.7,12.8-2.3,18.4-3.9c5.6-2.4,1.6-7.2-1.6-6.5
			C488.5,361.1,482.2,362.7,475.9,363.5L475.9,363.5z"/>
		<path class="st8" d="M401.8,360.4c-4.9-0.9-7.2,4.7-5.6,7.9c0.7-1.6,4-1.6,4.7-3.2C401.8,362.7,400.3,362.7,401.8,360.4z
			 M420.9,375.1c0-3.2,3.2-2.8,3.2-5.9c0-1.6-0.9-4-2.4-4c-1.6,0-3.2,1.6-3.2,3.2C417.8,371.4,420.9,371.9,420.9,375.1L420.9,375.1z
			 M443.6,366c4.7,0,4.3,6.3,2,9.5c0-2.3-4-3.2-4-4.7C441.6,368.3,445.2,368.3,443.6,366L443.6,366z M495.7,360.4
			c4.9-0.9,7.2,4.7,5.6,7.9c-0.7-1.6-4-1.6-4.7-3.2C495.7,362.7,497.2,362.7,495.7,360.4L495.7,360.4z M476.6,375.1
			c0-3.2-3.2-2.8-3.2-5.9c0-1.6,0.9-4,2.4-4c1.6,0,3.2,1.6,3.2,3.2C479.7,371.4,476.6,371.9,476.6,375.1L476.6,375.1z M453.9,366
			c-4.7,0-4.3,6.3-2,9.5c0-2.3,4-3.2,4-4.7C455.9,368.3,452.3,368.3,453.9,366z"/>
		<path class="st9" d="M403.4,362c1.6,0,4,0.7,4.7,1.6L403.4,362L403.4,362z M411.3,364.4c0.9,0,4,0.7,5.6,1.6L411.3,364.4
			L411.3,364.4z M440,367.6c-1.6,0-4.7,0-5.6,0.7L440,367.6L440,367.6z M431.3,367.6c-0.9-0.9-4-0.9-5.6,0H431.3L431.3,367.6z
			 M494.1,362c-1.6,0-3.9,0.7-4.7,1.6L494.1,362z M486.2,364.4c-0.9,0-4,0.7-5.6,1.6L486.2,364.4L486.2,364.4z M457.5,367.6
			c1.6,0,4.7,0,5.6,0.7L457.5,367.6L457.5,367.6z M466.3,367.6c0.9-0.9,4-0.9,5.6,0H466.3L466.3,367.6z"/>
		<g>
			<path class="st3" d="M402.1,374.6c-0.5-0.1-0.8-0.5-0.7-1c0.2-0.6,0.6-1,1.1-0.8c0.3,0.1,0.8,0.6,0.8,0.8c0,0.2-0.3,0.8-0.4,0.8
				c-0.1,0-0.1,0-0.2,0.1C402.7,374.6,402.4,374.6,402.1,374.6L402.1,374.6z M457,378.5c-0.2-0.1-0.5-0.5-0.5-0.7c0-0.4,0.6-1,0.9-1
				c0.2,0,0.7,0.2,0.8,0.4c0.3,0.3,0.3,0.9-0.2,1.2C457.9,378.6,457.3,378.6,457,378.5L457,378.5z M457.4,381
				c-0.4-0.1-0.6-0.3-0.6-0.8c0-0.5,0-0.6,0.5-0.8l0.4-0.2l0.3,0.2c0.5,0.2,0.7,0.4,0.7,0.8c0,0.3-0.2,0.7-0.6,0.9
				C457.7,381.1,457.7,381.1,457.4,381L457.4,381z"/>
			<path class="st3" d="M406.5,370.1c-0.3,0-0.8,0.3-1.1,0.5c-0.6,0.1-1.4,0.5-2,0.1c-0.6-0.2-1.4,0-1.5,0.7c0.2,0.7,1.1,1,1.6,0.6
				c0.4-0.5,1.5-0.9,1.7,0.1c-0.5,0.7-0.4,1.6-0.8,2.3c-0.1,0.5-0.3,0.9-0.5,1.3c-0.5,0-1,0-1.3,0.3c-0.6,0-1.3,0.3-1.6,0.9
				c-0.4,0.6-0.8,1.2-0.9,1.9c0.1,0.7,0.9,0.9,1.6,1c0.7,0.2,1.3,0.4,2,0.6c1.1,0.2,2.1,0.6,3.2,0.9c1.6,0.5,3.2,0.7,4.8,1.1
				c0.2,0.1,0.3,0.1,0.5,0.1c0.7,0.1,1-0.6,1.1-1.1c0.3-1.2,0.6-2.3,0.9-3.5c0.2-0.5,0.5-1.5-0.4-1.3c-0.5,0.3-1,0.8-1.6,0.8
				c-0.9,0-0.4,0.9,0,1.3c0.1,0.6-0.1,1.3-0.5,1.8c-0.5,0.3-1.2-0.1-1.7-0.2c-0.6,0-1.7-0.3-1.2-1.1c0.2-0.6,0.2-1.2,0.4-1.8
				c0.3-0.6,0.3-1.3,0.5-1.9c-0.4-0.8-1,0.3-1.5,0.3c-0.3,0.2-1.6,0.3-0.9,0.9c0.6,0.4,0.1,1.2,0,1.8c0,0.8-0.8,1-1.5,0.8
				c-0.6,0-1.5-0.5-1-1.2c0.1-0.6,0.3-1.1,0.4-1.7c0.2-0.7,0.4-1.4,0.7-2.1c0.1-0.6,0.3-1.2,0.6-1.8c0-0.7,0.5-1.3,0.5-2
				C406.9,370.2,406.7,370.1,406.5,370.1L406.5,370.1z M402.9,377.3c0.1,0,0.2,0,0.2,0c0.3,0.1,0.3,0.3,0,0.5
				c-0.1,0.1-0.2,0.2-0.3,0.2c-0.5,0-0.6-0.1-0.6-0.3c0-0.2,0-0.2,0.3-0.3C402.7,377.4,402.8,377.4,402.9,377.3L402.9,377.3z
				 M401.9,382.4c-0.5-0.5-0.4-0.8,0.3-1.4c0.3-0.2,0.5-0.2,0.9,0.1c0.6,0.5,0.6,0.8,0.1,1.3c-0.2,0.2-0.3,0.3-0.6,0.3
				C402.2,382.6,402.1,382.6,401.9,382.4L401.9,382.4z M404.9,383.3c-0.5-0.1-0.7-0.6-0.6-1c0,0,0,0,0-0.1c0.1-0.4,0.2-0.5,0.8-0.5
				c0.7,0,0.9,0.1,0.9,0.7c0,0.4,0,0.4-0.2,0.6C405.6,383.3,405.2,383.3,404.9,383.3L404.9,383.3z M494,383.4
				c-0.2-0.2-0.3-0.3-0.3-0.5c0-0.4,0.2-0.7,0.7-0.9c0.7-0.3,1-0.3,1.2,0.2c0.3,0.6,0.3,0.8-0.1,1.3c-0.2,0.2-0.3,0.2-0.8,0.2
				C494.3,383.6,494.3,383.6,494,383.4L494,383.4z M409,384.5c-0.4-0.1-0.6-0.4-0.6-0.8c0-0.3,0-0.4,0.3-0.6
				c0.2-0.1,0.4-0.2,0.6-0.2c0.3,0,0.4,0,0.6,0.1c0.5,0.4,0.7,0.8,0.4,1.1C409.8,384.6,409.5,384.7,409,384.5L409,384.5z
				 M430.9,385.5c-0.1-0.1-0.3-0.2-0.3-0.3c0-0.6,0.1-1.1,0.2-1.6c0.1-0.5,0-1.1,0.2-1.6c0.2-0.9,0.2-1.9,0.4-2.8
				c0-0.5,0.1-1,0.2-1.4c0.2-0.7,0-1.5,0.2-2.2c0-0.3,0.3-1,0.6-0.6c0.4,0.6,0.9,1,1.4,1.5c0.4,0.3,0,0.6-0.3,0.8
				c-0.4,0.2-0.5,0.6-0.5,1c-0.1,0.4-0.2,0.8-0.2,1.2c-0.1,0.6-0.1,1.3-0.1,1.9c-0.2,0.6-0.1,1.3-0.2,1.9c0,0.4-0.2,0.8-0.2,1.2
				c0,0.4-0.1,0.9-0.4,1.2C431.6,385.8,431.2,385.8,430.9,385.5L430.9,385.5z M460.6,375.7c-0.5,0.4-0.9,0.8-1.3,1.2
				c-0.6,0.4,0.5,0.7,0.6,1.1c0.2,0.6,0.1,1.2,0.2,1.8c0.2,0.6,0.3,1.1,0.2,1.7c0,0.6-0.9,0.5-1.2,0.8c-0.5,0.2-0.7,0.7-1.1,1
				c-0.2,0.5-0.3,1.1-0.3,1.6c0,0.4-0.3,1,0,1.3c0,0.1,0.1,0.1,0.1,0.2c0.1,0.1,0.3,0,0.5,0.1c0.5,0,1,0,1.5-0.2
				c1.2-0.2,2.4-0.2,3.7-0.3c0.8,0,1.5-0.2,2.2-0.2c0.6,0.1,0.9-0.5,0.8-1c-0.3-0.7,0-1.4-0.3-2.1c-0.2-0.7-0.1-1.4-0.3-2.1
				c0-0.5-0.7-0.8-1.1-0.3c-0.3,0.3-0.9,0.4-1.2,0.8c-0.3,0.6,0.6,0.6,0.8,1.1c0.2,0.5,0.1,1,0.2,1.5c0.1,0.6-0.5,0.6-0.9,0.7
				c-0.5,0.2-1.3,0.3-1.6-0.3c-0.2-0.5-0.2-1-0.2-1.5c0-0.9-0.2-1.8-0.3-2.7c-0.1-1.1-0.2-2.2-0.3-3.3
				C461.3,376.3,461.2,375.6,460.6,375.7L460.6,375.7z M460,383.9l0.3,0l0,0.4l0,0.4l-0.4,0.1c-0.1,0-0.3,0.1-0.4,0.1
				c-0.1,0-0.1-0.1-0.2-0.1c-0.2-0.2-0.2-0.4,0.1-0.7C459.6,384,459.7,383.9,460,383.9L460,383.9z M430,374.7
				c-0.4,0.1-0.9,0.7-1.3,0.7c-0.9,0.1-0.8,0.9-0.1,1.2c0.1,0.3,0,0.6,0,0.9c0.1,0.8-0.4,1.4-0.3,2.2c0,0.9-0.3,1.7-0.3,2.6
				c-0.2,0.9-0.3,1.8-0.4,2.8c-0.1,0.8-0.7,0.5-1.2,0.3c0-0.4,0-0.7,0-1.1c0.2-0.8-0.4-1.1-1.1-1.2c-0.7,0.1-1-0.5-0.9-1.1
				c0.3-0.4,1-0.3,1.5-0.3c1,0.2,0.9-1.1,0.4-1.6c-0.3-0.6-1.2-0.9-1.4-1.6c0.1-0.9-0.5-1.7-1.2-2.2c-1.1-0.1-1.9,0.9-2.3,1.8
				c-0.5,0.1-0.9,0.3-1.3,0.4c-0.7,0.2-1.7,1.4-0.8,1.9c0.5,0.1,2.2,0.5,1.5,1.3c-0.4,0.7-1.2,0.7-1.9,0.5c-0.7,0-1.5-0.4-1.5-1.2
				c-0.1-0.8-0.1-1.6-0.5-2.3c-0.1-0.8-1.1-0.6-1.2,0.1c-0.7,0.5-0.6,1.4-0.1,2c0.3,0.7,0,1.6-0.3,2.3c-0.2,0.9-1.2,0.9-1.8,1.2
				c-0.3,0.1-1.6-0.1-1.2,0.7c0.8,0.3,1.7,0.5,2.4,0.3c0.8-0.1,1.5-0.7,1.9-1.4c0.6-0.6,1.5-0.3,2.2-0.3c0.8,0,1.6,0.5,2.3,0.2
				c0.2-0.6,1.2-1.5,1.5-0.5c-0.1,0.9,0.7,1.3,1.5,1.2c0.9,0,0.5,0.6,0.5,1.1c0.1,0.9,0.7,1.4,1.4,1.8c0.3,0.1,0.5,0,0.8,0
				c0.8-0.2,1.6-0.6,1.8-1.4c0.3-0.7,0.3-1.5,0.5-2.2c0.2-1.1,0.4-2.3,0.4-3.4c0.3-1,0.2-2.1,0.4-3.2c0.1-0.8,0.2-1.6,0.3-2.3
				C430.4,374.7,430.2,374.6,430,374.7L430,374.7z M423.2,378.8c0.1,0,0.2,0.2,0.3,0.5c0,0.4,0.2,0.7,0.4,0.7c0.2,0,0.2,0.2,0,0.4
				c-0.1,0.1-0.3,0.1-0.7,0.1c-0.6,0-0.9-0.2-1.3-0.5l-0.2-0.2l0.3-0.2c0.1-0.1,0.4-0.3,0.6-0.5
				C422.9,378.9,423.1,378.8,423.2,378.8L423.2,378.8z M489.3,370.9c-0.6,0-1.1,0.1-1.7,0.3c-1-0.1-1.6,1-0.6,1.6
				c0.6,1.5,1.5-0.3,2.5-0.2c1.4,0.3,1.6,1.8,1.8,3c0.1,1.2,0.4,2.3,0.8,3.4c1,1.1-0.7,1.7-1.4,0.9c-0.6-0.7-1.9-1.5-2.7-0.6
				c-0.9,0.4-0.9,1.6-1.7,1.9c-1.2,0.4-1.4-1.1-2-1.8c-0.6-0.8-1.7-0.9-2.6-1.2c-0.4-0.9-0.2-2.3-1.1-2.9c-0.7,0.3-2.1,1.7-1,2.3
				c1.1,1-0.5,1.4-1,2.1c-0.7,0.8-0.9,1.9-1,3c-1.3,0.7-1.5-0.8-1.7-1.7c-0.1-1.1-1-0.8-1.7-0.4c-1,0.4-1.4,1.3-2.1,2
				c-0.1,0.6,0,1.4,0,2c0.2,0.8,1.2,0.4,1.8,0.4c1-0.4,1.4,0.6,0.6,1.2c-0.5,0.7-2.2,0.3-2.1,1.4c0.5,0.1,1.1,0,1.7,0
				c1.1-0.3,2.3-1.1,2.4-2.3c0.1-1.1,1.7-0.9,2.5-1.1c1-0.3,2.3-0.4,2.5,0.9c0.7,0.7,2.3,1.6,3,0.6c0.8-0.5,1.2-1.3,1.1-2.3
				c-0.2-0.8,1.3-0.8,1.6-0.4c0.5,0.9,2.1,0.6,2.9,0.1c0.8-0.6,1-1.7,2.2-1.7c1.8-0.5,3.6-0.8,5.4-1.5c1.4-0.3-0.2-1.2-0.6-1.7
				c-1.1-0.5-2,1.6-3.2,0.6c-0.9-0.7-0.9-2.1-1.2-3.1c-0.2-1.4-0.2-2.9-1.2-4C491.1,371.1,490.2,370.9,489.3,370.9L489.3,370.9z
				 M482.4,380.4c0.1,0,0.3,0.1,0.5,0.2c0.4,0.2,0.8,0.6,0.8,1c0,0.2-0.1,0.2-0.4,0.4c-0.2,0.1-0.4,0.2-0.5,0.2
				c-0.2,0-0.6-0.4-0.6-0.5c0-0.1-0.1-0.3-0.1-0.5c-0.1-0.3-0.1-0.3,0.1-0.5C482.2,380.5,482.3,380.4,482.4,380.4L482.4,380.4z
				 M489,380.8c0.4,0,0.6,0.1,0.8,0.4c0.2,0.3,0.1,0.6-0.4,0.8c-0.2,0.1-0.4,0.2-0.4,0.2s-0.2-0.1-0.4-0.2c-0.3-0.2-0.3-0.3-0.3-0.5
				C488.2,381.1,488.5,380.8,489,380.8L489,380.8z M480,380.8c0.1,0,0.2,0,0.3,0.2c0.2,0.2,0.2,0.3,0.3,0.6c0,0.2,0,0.5,0,0.6
				c0,0.2-0.1,0.2-0.6,0.2c-0.6,0-0.7-0.1-0.7-0.7c0-0.4,0-0.5,0.2-0.7C479.8,380.9,479.9,380.9,480,380.8L480,380.8z M474.5,382.3
				c0.2,0,0.4,0.2,0.4,0.4c0.1,0.3,0,0.5-0.3,0.6c-0.2,0.1-0.7,0.1-0.9,0.1c-0.1,0-0.1-0.1-0.2-0.2c-0.1-0.1-0.1-0.2,0-0.3
				c0.1,0,0.1-0.1,0.1-0.2c0,0,0.1-0.2,0.2-0.3C474.1,382.3,474.3,382.2,474.5,382.3L474.5,382.3z M483.8,383.5
				c0.2,0,0.3,0.1,0.4,0.2c0.2,0.2,0.2,0.4,0,0.6c-0.1,0.1-0.9,0.1-1.1,0c-0.1,0-0.2-0.1-0.2-0.2c0-0.1,0-0.2,0.3-0.3
				C483.4,383.5,483.6,383.5,483.8,383.5L483.8,383.5z M466.6,388.3c-0.1-0.1-0.2-0.1-0.1-0.2c0.2-0.3,0.5-0.4,0.8-0.5
				c0.5-0.2,1-0.6,1.4-1.1c0-0.3,0.4-0.5,0.4-0.9c0-0.5,0-1-0.1-1.4c-0.1-0.4-0.5-0.8-0.8-1c-0.3-0.2-0.7-0.3-0.8-0.6
				c-0.1-0.3,0.3-0.6,0.4-0.9c0.2-0.4,0.4-0.9,0.6-1.3c0.3-0.3,0.7,0,0.8,0.3c0.2,0.3,0.4,0.6,0.5,0.9c0.3,0.3,0.6,0.7,0.7,1.2
				c0.1,0.3,0.4,0.6,0.4,1c0,0.4,0.2,0.8,0.2,1.2c0,0.6,0,1.1-0.2,1.7c-0.1,0.3-0.4,0.5-0.6,0.7c-0.3,0.3-0.7,0.6-1.1,0.7
				c-0.3,0.1-0.5,0.4-0.8,0.3c-0.5,0-1,0.1-1.5,0C466.8,388.4,466.6,388.3,466.6,388.3L466.6,388.3z M459.8,388.7
				c-0.2-0.3-0.3-0.4-0.3-0.6c0-0.2,0-0.3,0.3-0.6c0.4-0.4,0.7-0.5,1.4-0.1c0.7,0.4,1,0.4,1,0.1c0.1-0.3,0.5-0.5,0.9-0.5
				c0.2,0,0.4,0.1,0.6,0.2c0.3,0.2,0.3,0.2,0.3,0.7c0,0.5,0,0.5-0.3,0.7c-0.3,0.2-0.3,0.3-0.7,0.2c-0.4,0-0.7-0.2-0.8-0.6
				c-0.1-0.3-0.1-0.3-0.2-0.1c0,0.1-0.1,0.1-0.2,0.1c-0.2,0-0.5,0.3-0.8,0.5c-0.1,0.1-0.3,0.1-0.5,0.1
				C460.1,389,460,389,459.8,388.7L459.8,388.7z M439.9,379.8c-0.7,0-1.4,0.6-1.5,1.2c0.2,0.8,0.8,1.5,0.4,2.3
				c0.3,1-0.8,1.4-1.5,0.8c-0.4-1-0.6-2-1.3-2.9c-0.8-0.2-1.2,1.1-1.7,1.5c0.3,0.8,1.1,1.4,1.2,2.4c0.2,0.9-0.4,1.9-1.2,2.4
				c-0.7,0.7-1.6,0.4-2.5,0.6c-1,0.6,0.8,0.8,1.2,0.8c1,0.1,2.1,0,2.9-0.8c0.8-0.4,0.7-1.7,1.6-1.8c1.6-0.1,3.2,0.2,4.8,0.3
				c0.9,0.2,2.2-0.1,2.8,0.5c0,1.1,0.9,1.8,1.8,2.2c0.5,0.1,1-0.5,1.5-0.6c1-0.3,0.7-1.5,1.3-2c1.6-0.1,3.3-0.1,5-0.1
				c0.3,0,0.4-0.4,0.6-0.6c0-0.6-0.1-1.3-0.2-1.9c-0.3-0.8,0.1-1.8-0.5-2.5c-0.8-0.2-1.5,0.5-2.4,0.6c-0.9,0.4-1.7,1.3-1.8,2.3
				c-0.5,0.9-1.4-0.2-1.1-0.9c0-0.3,0.1-0.7,0-1c-0.5-0.6-1.4-0.4-2.1-0.5c-1,0-2-0.2-3-0.2c-0.9-0.1-1.8,0.1-2.7-0.2
				c-1,0-0.9-1-1.1-1.8C440.4,379.9,440.2,379.8,439.9,379.8L439.9,379.8z M441.9,383.5c0.3,0,0.7,0,1,0.1c0.4,0.1,0.9-0.1,1.3,0
				c1,0.2,2,0.1,2.9,0.2c0.3,0,0.4,0.2,0.6,0.3c0,0.7,0,1.4,0,2.1c0,0.3,0.1,0.6-0.2,0.8c-0.1,0.1-0.2,0.1-0.3,0.1
				c-0.3-0.1-0.6-0.2-0.7-0.5c0-0.4,0-0.7,0-1.1c0-0.1,0-0.2,0-0.3c-0.2-0.2-0.5-0.2-0.7-0.3c-0.9,0-1.7-0.1-2.5-0.1
				c-0.7,0-1.4,0.1-2.1-0.1c-0.3-0.1-0.6-0.1-0.8-0.3c-0.2-0.3,0.1-0.6,0.3-0.7C441.3,383.6,441.6,383.5,441.9,383.5L441.9,383.5z
				 M453.2,383.8c0.2,0,0.2,0,0.3,0.3c0,0.2,0.1,0.4,0.1,0.5c0,0.1,0,0.2-0.2,0.2c-0.5,0.2-1,0.2-1.2-0.1c-0.1-0.1,0-0.4,0.2-0.6
				C452.7,384,453,383.8,453.2,383.8z"/>
		</g>
	</g>
	<path class="st10" d="M448.7,327.2c32.6-25.1,29.8-61.9,29.8-61.9c-0.9,0.2-1.7,0.3-2.5,0.3c-6.8,0-23.2-3.9-27-8.9
		c-4.1,4.5-20.8,8.9-27.6,8.9c-0.9,0-1.7-0.1-2.5-0.3C418.9,265.3,416.1,302.1,448.7,327.2L448.7,327.2z"/>
	<path class="st11" d="M476,268c-0.3,0-0.6,0-0.8,0c-6.2,0-20.6-3.2-26.2-8c-5.8,4.4-20.5,8-26.6,8c-0.3,0-0.6,0-0.8-0.1
		c0,1.4,0.1,2.8,0.1,4.1c0.3,4.9,1.2,9.8,2.5,14.6c4.1,14.9,12.5,27.6,24.6,37.2c12.1-9.6,20.5-22.3,24.6-37.2
		c1.3-4.7,2.2-9.6,2.5-14.5C475.9,270.8,476,269.4,476,268L476,268z"/>
	<path class="st3" d="M438.1,265c-5.9,1.8-12.2,3-15.8,3c-0.3,0-0.6,0-0.8-0.1c0,1.4,0.1,2.8,0.2,4.2c0.3,4.9,1.2,9.8,2.5,14.5
		c2.8,10,7.5,19,14,26.8V265z M458.8,264.9v49.3c6.8-7.9,11.7-17.2,14.6-27.6c1.3-4.7,2.1-9.6,2.5-14.5c0.1-1.3,0.2-2.7,0.2-4.1
		c-0.3,0-0.6,0-0.8,0C471.4,268.1,464.7,266.9,458.8,264.9L458.8,264.9z"/>
	<g>
		<path class="st12" d="M461.1,253.1c0.7,0-0.9-3.6-0.9-3.6c1.8,1.8,8.4,2.2,8.4,2.2c-4-1.8-8-15.1-7.5-25.7
			c0.4-10.7-1.5-14.9-3.1-16.4c-2-2-8.4-3.8-12.7-4c-2.4-0.1-2,1.8-2,1.8c-4.4-1.1-8.9-1.6-10.9-0.2c-1.9,1.3-2.3,7.5-0.9,6.4
			c3.3-2.7,6.2-0.2,8.2,2.7c1.8,2.6,1.6,9.8-0.9,18.2c-2.7,8.9-10,17.7-10,17.7c4,0,9.5-3.5,9.5-3.5l-1.3,5.5c4.2-2,7.5-5.1,7.5-5.1
			l4,4.2c1.3-1.8,4-4.2,4-4.2S456,252.6,461.1,253.1L461.1,253.1z"/>
		<path class="st13" d="M444.9,227.6c0,0-2.2,16.4-6.4,21.1 M448.4,227.1c0,0-0.9,16.6-3.8,22 M451.5,227.8c0,0,0,18.2,1.1,21.3
			 M455.5,228.7c0,0,0.9,15.3,4.7,20.8"/>
		<path class="st14" d="M440.8,219.6c-0.2-1.4-0.5-2.6-1.1-3.3c-2-2.9-4.9-5.3-8.2-2.7c0,0,1.1-3.5,3.6-3.6c1.9-0.1,6.2,1.4,9.9,7.8
			c0,0-2.8-0.6-3.5,0C440.3,218.9,440.8,219.6,440.8,219.6L440.8,219.6z"/>
		<path class="st14" d="M431.2,209.3c0.3-0.9,0.7-1.7,1.3-2.1c2-1.3,6.4-0.9,10.9,0.2c0,0-0.4-1.9,2-1.8c4.2,0.2,10.7,2,12.7,4
			c0.5,0.5,1,1.3,1.5,2.4h-0.1c-1-1.4-3.8-1.3-4.4-1.2c-1.1,0.1-1.7,0.1-3.1,0.4c-0.7,0.2-1.7,0.4-2.2,0.8c-0.4,0.4-0.8,1.6-1.5,1.6
			c-1.1,0-1-0.3-1.3-0.6c-0.4-0.4-0.5-1.1-0.9-1c-1.1,0.2-2.9-0.7-5.1-2.4c-2.2-1.8-3.1-2.2-6-2c-2.9,0.2-3.8,1.8-3.8,1.8
			L431.2,209.3L431.2,209.3z"/>
		<circle class="st0" cx="447.6" cy="210.7" r="1.2"/>
	</g>
</g>
</svg>
