<?xml version="1.0" encoding="utf-8"?>
<!-- Generator: Adobe Illustrator 20.0.0, SVG Export Plug-In . SVG Version: 6.00 Build 0)  -->
<svg version="1.1" id="Ebene_1" xmlns="http://www.w3.org/2000/svg" xmlns:xlink="http://www.w3.org/1999/xlink" x="0px" y="0px"
	 viewBox="0 0 640 480" style="enable-background:new 0 0 640 480;" xml:space="preserve">
<style type="text/css">
	.st0{fill:#000066;}
	.st1{fill:#FFFFFF;}
	.st2{fill:#CC0000;}
	.st3{fill:none;stroke:#CC0000;stroke-width:0;stroke-linecap:round;stroke-linejoin:round;}
</style>
<g>
	<polygon class="st0" points="0,453.7 0,480 240.6,480 240.6,333.7 	"/>
	<polygon class="st0" points="0,320 0,346.3 52.8,320 	"/>
	<polygon class="st0" points="0,133.7 0,160 52.8,160 	"/>
	<polygon class="st0" points="401,480 641.6,480 641.6,453.7 401,333.7 	"/>
	<polygon class="st0" points="240.6,146.3 240.6,0 0,0 0,26.3 	"/>
	<polygon class="st0" points="641.6,26.3 641.6,0 401,0 401,146.3 	"/>
	<polygon class="st0" points="641.6,346.3 641.6,320 588.8,320 	"/>
	<polygon class="st0" points="641.6,160 641.6,133.7 588.8,160 	"/>
	<polygon class="st1" points="0,26.3 0,80 160.4,160 88.7,160 0,115.8 0,133.7 52.8,160 0,160 0,192 272.7,192 272.7,0 240.6,0 
		240.6,146.3 	"/>
	<polygon class="st1" points="368.9,192 641.6,192 641.6,160 588.8,160 641.6,133.7 641.6,80 481.2,160 409.5,160 409.5,160 
		409.5,160 641.6,44.2 641.6,26.3 401,146.3 401,0 368.9,0 	"/>
	<polygon class="st1" points="272.7,288 0,288 0,320 52.8,320 0,346.3 0,400 160.4,320 232.1,320 0,435.8 0,453.7 240.6,333.7 
		240.6,480 272.7,480 	"/>
	<polygon class="st1" points="368.9,288 368.9,480 401,480 401,333.7 641.6,453.7 641.6,400 481.2,320 552.9,320 641.6,364.2 
		641.6,346.3 588.8,320 641.6,320 641.6,288 	"/>
	<polygon class="st2" points="481.2,320 641.6,400 641.6,364.2 552.9,320 	"/>
	<polygon class="st2" points="160.4,320 0,400 0,435.8 232.1,320 	"/>
	<polygon class="st2" points="481.2,160 641.6,80 641.6,44.2 409.5,160 	"/>
	<polygon class="st2" points="160.4,160 0,80 0,115.8 88.7,160 	"/>
	<line class="st3" x1="409.5" y1="160" x2="409.5" y2="160"/>
	<polygon class="st2" points="272.7,192 0,192 0,288 272.7,288 272.7,480 368.9,480 368.9,288 641.6,288 641.6,192 368.9,192 
		368.9,0 272.7,0 	"/>
</g>
</svg>
