<svg id="Ebene_1" xmlns="http://www.w3.org/2000/svg" viewBox="0 0 640 480"><style>.st0{fill:#FFFFFF;} .st1{fill:#0D5EAF;}</style><path class="st0" d="M266.5 53.3h373.1v53.3H266.5z"/><path class="st1" d="M266.5 106.6h373.1v53.3H266.5z"/><path class="st0" d="M266.5 159.9h373.1v53.3H266.5z"/><path class="st0" d="M639.6 266.5H159.9V159.9h106.6v-53.3H159.9V0h-53.3v106.6H0v53.3h106.6v106.6H0v53.3h639.6z"/><path class="st1" d="M0 319.8h639.6v53.3H0z"/><path class="st0" d="M0 373.1h639.6v53.3H0z"/><path class="st1" d="M0 426.4h639.6v53.3H0zM159.9 106.6h106.6V53.3h373.1V0H159.9zM106.6 0H0v106.6h106.6zM266.5 159.9H159.9v106.6H639.6v-53.3H266.5zM106.6 159.9H0v106.6h106.6z"/></svg>