<svg id="Ebene_1" xmlns="http://www.w3.org/2000/svg" viewBox="0 0 640 480"><style>.st0{fill:#FFFFFF;} .st1{fill:#0000CC;}</style><path class="st0" d="M-.2 0h641.7v45.1H-.2zM641.5 108.3H-.2v266.2h641.7V108.3zM313.9 359.4l-33.5-58.3-70.4.2 35.3-61.3-34.9-60.7 69.6.2 33.5-58.3 34.5 58.5 71.6.3-35.7 60.6 35.3 59.9-70.8.3-34.5 58.6zM-.2 437.7h641.7v43.5H-.2z"/><path class="st1" d="M-.2 374.5h641.7v63.2H-.2zM210.4 179.3zM-.2 45.1h641.7v63.2H-.2z"/><path class="st0" d="M314 332.1l18.9-31.2-37.2.1z"/><path class="st1" d="M383.9 240.7l35.7-60.6-71.6-.3-34.5-58.5-33.5 58.3-69.6-.2 34.9 60.7-35.3 61.2 70.4-.2 33.5 58.3 34.5-58.5 70.8-.3-35.3-59.9zm-151 48l20.3-33.8 18.1 33.7-38.4.1zm122.9-96.1l38.8-.3-20.1 34.4-18.7-34.1zM287.6 288l-27.1-47.3 26.7-48.4 52.2-.4 27.8 48.8-30.1 48.4-49.5-1.1zM314 146.7l20.1 33.2-39.8.1 19.7-33.3zm-80.8 45.6l38.8.3-18.6 34.1-20.2-34.4zM314 332.1L295.7 301l37.2-.1-18.9 31.2zm41.7-43.9l19.6-32.9 19.6 33.4-39.2-.5z"/><path class="st0" d="M233.2 192.3zM253.2 254.8l-20.3 33.9 38.4-.2-18.1-33.7zM375.4 255.2l-19.7 33 39.2.5zM394.6 192.3l-38.8.3 18.7 34.1zM334.2 180L314 146.7l-19.7 33.4zM294.3 180.1zM367.2 240.7l-27.8-48.8-52.2.4-26.7 48.4 27.1 47.3 49.5 1.1zM253.3 226.7l18.6-34.1-38.7-.3z"/></svg>