<svg id="Ebene_1" xmlns="http://www.w3.org/2000/svg" viewBox="0 0 640 480"><style>.st0{fill:#FF9933;} .st1{fill:#FFFFFF;} .st2{fill:#128807;} .st3{fill:#000088;}</style><path class="st0" d="M0 0h640v160H0z"/><path class="st1" d="M0 320h640V160H0v160zm320-144c35.3 0 64 28.7 64 64s-28.7 64-64 64-64-28.7-64-64 28.7-64 64-64z"/><path class="st2" d="M0 320h640v160H0z"/><path class="st3" d="M320 304c35.3 0 64-28.7 64-64s-28.7-64-64-64-64 28.7-64 64 28.7 64 64 64zm-42.7-27.7c1.2-1 1.4-2.7.5-3.9-.9-1.2-2.6-1.4-3.9-.6-.9-1.2-1.7-2.5-2.4-3.8l30.1-15.1 9-6.8c.3.5.7 1 1.1 1.4l-8.9 7-22.4 25.1 25.1-22.4 7-8.9c.4.4.9.8 1.4 1.1l-6.8 9-15.1 30.1c-1.3-.8-2.6-1.6-3.8-2.4.9-1.2.6-2.9-.6-3.9-1.2-.9-2.9-.7-3.9.5-1.2-1-2.3-2-3.3-3.1-1.1-1.1-2.1-2.2-3.1-3.3zm-6.5-15.9c-.6-1.4-2.2-2.1-3.6-1.5-1-2.8-1.8-5.7-2.3-8.8 1.5-.2 2.5-1.6 2.3-3.1-.2-1.5-1.6-2.6-3.1-2.4-.1-1.5-.2-3-.2-4.5s.1-3 .2-4.5c1.5.2 2.9-.9 3.1-2.4.2-1.5-.8-2.9-2.3-3.1.5-3 1.3-5.9 2.3-8.8 1.4.5 3-.1 3.6-1.5.6-1.4-.1-3-1.5-3.6.7-1.4 1.4-2.7 2.1-4l28.1 18.5 10.4 4.4c-.3.5-.5 1.1-.7 1.6l-10.5-4.2-33-6.8 32 10.6 11.2 1.6c-.1.6-.2 1.2-.2 1.8l-11.2-1.3L264 240l33.6 1.9 11.2-1.3c0 .6.1 1.2.2 1.8l-11.2 1.6-32 10.6 33-6.8 10.5-4.2c.2.6.4 1.1.7 1.6l-10.4 4.4-28.1 18.4c-.8-1.3-1.5-2.6-2.1-4 1.4-.6 2-2.2 1.4-3.6zm44.7 35.4c.2-1.5-.9-2.9-2.4-3.1-1.5-.2-2.9.8-3.1 2.3-3-.5-5.9-1.3-8.8-2.3.5-1.4-.1-3-1.5-3.6-1.4-.6-3 .1-3.6 1.5-1.4-.7-2.7-1.4-4-2.1l18.5-28.1L315 250c.5.3 1.1.5 1.6.7l-4.2 10.5-6.8 33 10.6-32 1.6-11.2c.6.1 1.2.2 1.8.2l-1.3 11.2L320 296l1.9-33.6-1.3-11.2c.6 0 1.2-.1 1.8-.2l1.6 11.2 10.6 32-6.8-33-4.2-10.5c.6-.2 1.1-.4 1.6-.7l4.4 10.4 18.5 28.1c-1.3.8-2.6 1.5-4 2.1-.6-1.4-2.2-2-3.6-1.5-1.4.6-2.1 2.2-1.5 3.6-2.8 1-5.7 1.8-8.8 2.3-.2-1.5-1.6-2.5-3.1-2.3-1.5.2-2.6 1.6-2.4 3.1-1.5.1-3 .2-4.5.2-1.7 0-3.2-.1-4.7-.2zm53.7-76.2c.6 1.4 2.2 2.1 3.6 1.5 1 2.8 1.8 5.7 2.3 8.8-1.5.2-2.5 1.6-2.3 3.1.2 1.5 1.6 2.6 3.1 2.4.1 1.5.2 3 .2 4.5s-.1 3-.2 4.5c-1.5-.2-2.9.9-3.1 2.4-.2 1.5.8 2.9 2.3 3.1-.5 3-1.3 5.9-2.3 8.8-1.4-.5-3 .1-3.6 1.5-.6 1.4.1 3 1.5 3.6-.7 1.4-1.4 2.7-2.1 4l-28.1-18.5-10.4-4.4c.3-.5.5-1.1.7-1.6l10.5 4.2 33 6.8-32-10.6-11.2-1.6c.1-.6.2-1.2.2-1.8l11.2 1.3L376 240l-33.6-1.9-11.2 1.3c0-.6-.1-1.2-.2-1.8l11.2-1.6 32-10.6-33 6.8-10.5 4.2c-.2-.6-.4-1.1-.7-1.6l10.4-4.4 28.1-18.5c.8 1.3 1.5 2.6 2.1 4-1.4.7-2 2.3-1.4 3.7zm-12.9 63.1c-1-1.2-2.7-1.4-3.9-.5-1.2.9-1.4 2.6-.6 3.9-1.2.9-2.5 1.7-3.8 2.4l-15.1-30.1-6.8-9c.5-.3 1-.7 1.4-1.1l7 8.9 25.1 22.4-22.4-25.1-8.9-7c.4-.4.8-.9 1.1-1.4l9 6.8 30.1 15.1c-.8 1.3-1.6 2.6-2.4 3.8-1.2-.9-2.9-.6-3.9.6-.9 1.2-.7 2.9.5 3.9-1 1.2-2 2.3-3.1 3.3s-2.2 2.1-3.3 3.1zm6.4-79c-1.2 1-1.4 2.7-.5 3.9.9 1.2 2.6 1.4 3.9.6.9 1.2 1.7 2.5 2.4 3.8l-30.1 15.1-9 6.8c-.3-.5-.7-1-1.1-1.4l8.9-7 22.4-25.1-25.1 22.4-7 8.9c-.4-.4-.9-.8-1.4-1.1l6.8-9 15.1-30.1c1.3.8 2.6 1.6 3.8 2.4-.9 1.2-.6 2.9.6 3.9 1.2.9 2.9.7 3.9-.5 1.2 1 2.3 2 3.3 3.1 1.1 1.1 2.1 2.2 3.1 3.3zm-38.2-19.5c-.2 1.5.9 2.9 2.4 3.1 1.5.2 2.9-.8 3.1-2.3 3 .5 5.9 1.3 8.8 2.3-.5 1.4.1 3 1.5 3.6 1.4.6 3-.1 3.6-1.5 1.4.7 2.7 1.4 4 2.1l-18.5 28.1L325 230c-.5-.3-1.1-.5-1.6-.7l4.2-10.5 6.8-33-10.6 32-1.6 11.2c-.6-.1-1.2-.2-1.8-.2l1.3-11.2L320 184l-1.9 33.6 1.3 11.2c-.6 0-1.2.1-1.8.2l-1.6-11.2-10.6-32 6.8 33 4.2 10.5c-.6.2-1.1.4-1.6.7l-4.4-10.4-18.4-28.1c1.3-.8 2.6-1.5 4-2.1.6 1.4 2.2 2 3.6 1.5 1.4-.6 2.1-2.2 1.5-3.6 2.8-1 5.7-1.8 8.8-2.3.2 1.5 1.6 2.5 3.1 2.3 1.5-.2 2.6-1.6 2.4-3.1 1.5-.1 3-.2 4.5-.2 1.6 0 3.1.1 4.6.2zm-40.8 13.1c1 1.2 2.7 1.4 3.9.5 1.2-.9 1.4-2.6.6-3.9 1.2-.9 2.5-1.7 3.8-2.4l15.1 30.1 6.8 9c-.5.3-1 .7-1.4 1.1l-7-8.9-25.1-22.4 22.4 25.1 8.9 7c-.4.4-.8.9-1.1 1.4l-9-6.8-30.1-15.1c.8-1.3 1.6-2.6 2.4-3.8 1.2.9 2.9.6 3.9-.6.9-1.2.7-2.9-.5-3.9 1-1.2 2-2.3 3.1-3.3 1.1-1.1 2.2-2.1 3.3-3.1z"/><path class="st1" d="M370.6 216c-.7-1.4-1.4-2.7-2.1-4l-28.1 18.5-10.4 4.4c.3.5.5 1.1.7 1.6l10.5-4.2 33-6.8-32 10.6-11.2 1.6c.1.6.2 1.2.2 1.8l11.2-1.3L376 240c0-1.5-.1-3-.2-4.5-1.5.2-2.9-.9-3.1-2.4-.2-1.5.8-2.9 2.3-3.1-.5-3-1.3-5.9-2.3-8.8-1.4.5-3-.1-3.6-1.5-.5-1.5.1-3.1 1.5-3.7zM331.2 240.6c0 .6-.1 1.2-.2 1.8l11.2 1.6 32 10.6-33-6.8-10.5-4.2c-.2.6-.4 1.1-.7 1.6l10.4 4.4 28.1 18.5c.8-1.3 1.5-2.6 2.1-4-1.4-.6-2-2.2-1.5-3.6.6-1.4 2.2-2.1 3.6-1.5 1-2.8 1.8-5.7 2.3-8.8-1.5-.2-2.5-1.6-2.3-3.1.2-1.5 1.6-2.6 3.1-2.4.1-1.5.2-3 .2-4.5l-33.6 1.9-11.2-1.5zM320.6 228.8c.6 0 1.2.1 1.8.2l1.6-11.2 10.6-32-6.8 33-4.2 10.5c.6.2 1.1.4 1.6.7l4.4-10.4 18.5-28.1c-1.3-.8-2.6-1.5-4-2.1-.6 1.4-2.2 2-3.6 1.5-1.4-.6-2.1-2.2-1.5-3.6-2.8-1-5.7-1.8-8.8-2.3-.2 1.5-1.6 2.5-3.1 2.3-1.5-.2-2.6-1.6-2.4-3.1-1.5-.1-3-.2-4.5-.2l1.9 33.6-1.5 11.2zM313.1 187.3c-1.5.2-2.9-.8-3.1-2.3-3 .5-5.9 1.3-8.8 2.3.5 1.4-.1 3-1.5 3.6-1.4.6-3-.1-3.6-1.5-1.4.7-2.7 1.4-4 2.1l18.5 28.1L315 230c.5-.3 1.1-.5 1.6-.7l-4.2-10.5-6.8-33 10.6 32 1.6 11.2c.6-.1 1.2-.2 1.8-.2l-1.3-11.2L320 184c-1.5 0-3 .1-4.5.2.1 1.5-.9 2.9-2.4 3.1zM326.9 292.7c1.5-.2 2.9.8 3.1 2.3 3-.5 5.9-1.3 8.8-2.3-.5-1.4.1-3 1.5-3.6 1.4-.6 3 .1 3.6 1.5 1.4-.7 2.7-1.4 4-2.1l-18.5-28.1L325 250c-.5.3-1.1.5-1.6.7l4.2 10.5 6.8 33-10.6-32-1.6-11.2c-.6.1-1.2.2-1.8.2l1.3 11.2L320 296c1.5 0 3-.1 4.5-.2-.1-1.5.9-2.9 2.4-3.1z"/><path class="st1" d="M352.4 197.8c-1.2-.9-1.4-2.6-.6-3.9-1.2-.9-2.5-1.7-3.8-2.4l-15.1 30.1-6.8 9c.5.3 1 .7 1.4 1.1l7-8.9 25.1-22.4c-1.1-1.1-2.2-2.1-3.3-3.1-1 1.2-2.7 1.4-3.9.5zM327.5 248.3c-.4.4-.9.8-1.4 1.1l6.8 9 15.1 30.1c1.3-.8 2.6-1.6 3.8-2.4-.9-1.2-.6-2.9.6-3.9 1.2-.9 2.9-.7 3.9.5 1.2-1 2.3-2 3.3-3.1l-25.1-22.4-7-8.9zM328.3 232.5c.4.4.8.9 1.1 1.4l9-6.8 30.1-15.1c-.8-1.3-1.6-2.6-2.4-3.8-1.2.9-2.9.6-3.9-.6-.9-1.2-.7-2.9.5-3.9-1-1.2-2-2.3-3.1-3.3l-22.4 25.1-8.9 7z"/><path class="st1" d="M362.2 272.4c.9-1.2 2.6-1.4 3.9-.6.9-1.2 1.7-2.5 2.4-3.8l-30.1-15.1-9-6.8c-.3.5-.7 1-1.1 1.4l8.9 7 22.4 25.1c1.1-1.1 2.1-2.2 3.1-3.3-1.2-1-1.4-2.7-.5-3.9zM319.4 251.2c-.6 0-1.2-.1-1.8-.2l-1.6 11.2-10.6 32 6.8-33 4.2-10.5c-.6-.2-1.1-.4-1.6-.7l-4.4 10.4-18.4 28.1c1.3.8 2.6 1.5 4 2.1.6-1.4 2.2-2 3.6-1.5 1.4.6 2.1 2.2 1.5 3.6 2.8 1 5.7 1.8 8.8 2.3.2-1.5 1.6-2.5 3.1-2.3 1.5.2 2.6 1.6 2.4 3.1 1.5.1 3 .2 4.5.2l-1.9-33.6 1.4-11.2zM311.7 247.5c-.4-.4-.8-.9-1.1-1.4l-9 6.8-30.1 15.1c.8 1.3 1.6 2.6 2.4 3.8 1.2-.9 2.9-.6 3.9.6.9 1.2.7 2.9-.5 3.9 1 1.2 2 2.3 3.1 3.3l22.4-25.1 8.9-7zM277.8 207.6c-.9 1.2-2.6 1.4-3.9.6-.9 1.2-1.7 2.5-2.4 3.8l30.1 15.1 9 6.8c.3-.5.7-1 1.1-1.4l-8.9-7-22.4-25.1c-1.1 1.1-2.1 2.2-3.1 3.3 1.2 1 1.4 2.7.5 3.9z"/><path class="st1" d="M287.6 282.2c1.2.9 1.4 2.6.6 3.9 1.2.9 2.5 1.7 3.8 2.4l15.1-30.1 6.8-9c-.5-.3-1-.7-1.4-1.1l-7 8.9-25.1 22.4c1.1 1.1 2.2 2.1 3.3 3.1 1-1.2 2.7-1.4 3.9-.5zM312.5 231.7c.4-.4.9-.8 1.4-1.1l-6.8-9-15.1-30.1c-1.3.8-2.6 1.6-3.8 2.4.9 1.2.6 2.9-.6 3.9-1.2.9-2.9.7-3.9-.5-1.2 1-2.3 2-3.3 3.1l25.1 22.4 7 8.9zM269.4 264c.7 1.4 1.4 2.7 2.1 4l28.1-18.5 10.4-4.4c-.3-.5-.5-1.1-.7-1.6l-10.5 4.2-33 6.8 32-10.6 11.2-1.6c-.1-.6-.2-1.2-.2-1.8l-11.2 1.3L264 240c0 1.5.1 3 .2 4.5 1.5-.2 2.9.9 3.1 2.4.2 1.5-.8 2.9-2.3 3.1.5 3 1.3 5.9 2.3 8.8 1.4-.5 3 .1 3.6 1.5.5 1.5-.1 3.1-1.5 3.7zM308.8 239.4c0-.6.1-1.2.2-1.8l-11.2-1.6-32-10.6 33 6.8 10.5 4.2c.2-.6.4-1.1.7-1.6l-10.4-4.4-28.1-18.4c-.8 1.3-1.5 2.6-2.1 4 1.4.6 2 2.2 1.5 3.6-.6 1.4-2.2 2.1-3.6 1.5-1 2.8-1.8 5.7-2.3 8.8 1.5.2 2.5 1.6 2.3 3.1-.2 1.5-1.6 2.6-3.1 2.4-.1 1.5-.2 3-.2 4.5l33.6-1.9 11.2 1.4z"/></svg>