<?xml version="1.0" encoding="utf-8"?>
<!-- Generator: Adobe Illustrator 20.0.0, SVG Export Plug-In . SVG Version: 6.00 Build 0)  -->
<svg version="1.1" id="Ebene_1" xmlns="http://www.w3.org/2000/svg" xmlns:xlink="http://www.w3.org/1999/xlink" x="0px" y="0px"
	 viewBox="0 0 640 480" style="enable-background:new 0 0 640 480;" xml:space="preserve">
<style type="text/css">
	.st0{fill:#013BA6;}
	.st1{fill:none;stroke:#FFFFFF;stroke-width:20;}
</style>
<rect class="st0" width="640" height="480"/>
<path class="st1" d="M324,51c-107.7,0.6-194.5,88.3-194,196c0.6,107.7,88.3,194.5,196,194s194.5-88.3,194-196
	c-0.5-106.9-87.1-193.4-194-194H324z M325,51v390 M520,246H130 M174,126c90.3,64.5,211.7,64.5,302,0 M476,366
	c-90.3-64.5-211.7-64.5-302,0 M310,56c-105.5,89.1-118.8,246.8-29.7,352.3c9,10.7,19,20.6,29.7,29.7 M340,438
	c105.5-89.1,118.8-246.8,29.7-352.3C360.6,75,350.7,65,340,56"/>
</svg>
