<svg id="Ebene_1" xmlns="http://www.w3.org/2000/svg" viewBox="0 0 640 480"><style>.st0{fill:#FFFFFF;} .st1{fill:#C70000;} .st2{fill:#3D5897;}</style><path class="st0" d="M0 0v480h640V0H0zm520.5 28.2l31.1 36.4-18.6 16-31.2-36.5 18.7-15.9zm-25.8 22l77.8 91.3-18.7 15.9L476 66.2l18.7-16zm32.6 261.9l18.5 15.4-29.8 35.4-17.6-15.1-2.2 1.2 31.1-36.9zM495.9 143l18.3-16.4 31.9 37.4-18.7 15.9-31.5-36.9zm57.5 190.8l18.5 15.4-30.1 35.9-18.2-15.7 29.8-35.6zM468.3 72.7l31.3 36.7-18.3 15.8.4.9-32-37.6 18.6-15.8zM192.4 89.2L114 179.9l-18.6-16.1 78.4-90.7 18.6 16.1zm-26.2-22.7l-78.4 90.7-18.6-16.1 78.4-90.7 18.6 16.1zM88.1 335.3l31.2 36.6-18.6 16-31.3-36.7 18.7-15.9zm33.8-307.1l18.6 16.1L62.1 135l-18.6-16.1 78.4-90.7zM120.8 465L43 373.7l18.7-15.9 77.8 91.3-18.7 15.9zm26.4-22.5l-32.1-37.6 18.3-16.4 32.5 38.1-18.7 15.9zm25.8-22.1l-77.8-91.3 18.7-15.9 77.8 91.3-18.7 15.9zm219.2-55.9c-4 2.4-8 4.6-12.3 6.6-13.3 6.4-27.9 10.6-43.2 12.2-4.8.5-9.7.8-14.7.8-22.6 0-43.9-5.6-62.7-15.4-8.4-4.2-16.8-9.3-24.9-15.3-16.6-15.6-37.9-40.5-45.5-77.8-2-9.4-3.1-19.1-3.1-29.1 0-6.6.5-13 1.3-19.3.2-1.6.4-3.3.6-4.9 0 .1 0 .3.1.4 11.2-64.7 67-113.8 134.1-113.8 75.2 0 136.2 61.6 136.2 137.6 0 25.5-6.9 49.3-18.8 69.8-11.6 20.8-28.2 37.6-47.1 48.2zm59.7 37.4l31.1-37 18.6 15.3-31.2 37.1-18.5-15.4zm26.1 21.7l31.2-37.2 18.6 15.3-31.3 37.3-18.5-15.4zm44.1 36.7l-18.5-15.4 31.3-37.3 18.6 15.3-31.4 37.4zm44.9-53.6L548.8 391l30.2-36 18.5 15.4-30.5 36.3zm12.6-271.3L547 97.1l18.3-16.4 33.1 38.8-18.8 15.9z"/><path class="st1" d="M380 371.1c4.2-2 8.3-4.2 12.3-6.6-.9.5-1.9 1-2.8 1.5-3.1 1.9-6.3 3.6-9.5 5.1zM259.4 368.7c18.8 9.9 40.1 15.4 62.7 15.4 5 0 9.9-.3 14.7-.8-24.9 2.7-51.6-1.7-77.4-14.6zM187.2 227.2c-.9 6.3-1.3 12.8-1.3 19.3 0 10 1.1 19.7 3.1 29.1-3-14.3-3.9-30.3-1.8-48.4zM458.3 246.6c0-76-61-137.6-136.2-137.6-67.2 0-123 49.2-134.1 113.8 4.3 34.5 10.8 72.9 63.9 76.9 20 1.2 58.9-4.8 72.2-59.2 17.5-52.3 70.3-67.4 106.2-39 20.4 13.3 26 34.4 27.5 50.2-.8 23.7-7.5 45.8-18.2 64.8 11.8-20.6 18.7-44.5 18.7-69.9z"/><path d="M69.12955 141.14185l78.4146-90.70435 18.6099 16.0884-78.4146 90.70435zM95.4215 163.7865l78.4146-90.70435 18.6099 16.0884-78.4146 90.70435zM551.6 64.6l-31.1-36.4-18.7 15.9L533 80.7zM481.3 125.3l18.3-15.8-31.3-36.8-18.7 16 32 37.5zM547 97.1l32.6 38.3 18.7-16-33-38.7zM546.1 164l-31.9-37.4-18.3 16.4 31.5 36.9zM43.43945 118.9531l78.4146-90.70435 18.6099 16.0884-78.4146 90.70435z"/><path class="st0" d="M481.3 125.3z"/><path d="M548.8 391l18.2 15.7 30.5-36.3L579 355zM483 364.9l-31.1 37 18.5 15.4 31.2-37.1zM509.2 386.5L478 423.6l18.5 15.4 31.3-37.2zM503.6 444.9l18.5 15.4 31.3-37.4-18.5-15.3zM498.5 347.8l17.5 15.1 29.8-35.4-18.5-15.4-31 36.9 2.2-1.2zM571.9 349.2l-18.5-15.4-29.8 35.6 18.2 15.7zM476.04361 66.15431l18.71814-15.96294 77.80311 91.23191-18.71814 15.96294z"/><path class="st2" d="M430.3 201.3c-35.9-28.4-88.7-13.3-106.2 39-13.4 54.5-52.2 60.4-72.2 59.2-53.1-4-59.6-42.3-63.9-76.9 0-.1 0-.3-.1-.4-.2 1.7-.4 3.3-.6 4.9-2.1 18.1-1.2 34.1 1.7 48.4 7.6 37.3 28.9 62.2 45.5 77.8 8.2 6 16.5 11.1 24.9 15.3 25.8 12.9 52.5 17.2 77.4 14.6 15.3-1.6 29.9-5.8 43.2-12.2 3.2-1.6 6.4-3.3 9.5-5.1.9-.5 1.9-1 2.8-1.5 18.9-10.6 35.5-27.5 47.2-48.2 10.8-18.9 17.5-41.1 18.2-64.8-1.4-15.7-7.1-36.8-27.4-50.1z"/><path d="M100.6 387.9l18.6-16-31.1-36.6-18.7 15.9zM115.1 404.9l32.1 37.6 18.7-16-32.5-38.1zM42.93747 373.73845l18.71814-15.96294 77.80311 91.23191-18.71814 15.96294zM95.24239 329.17553l18.71814-15.96294 77.80311 91.23191-18.71814 15.96294z"/></svg>