<svg id="Ebene_1" xmlns="http://www.w3.org/2000/svg" viewBox="0 0 640 480"><style>.st0{fill:#FF0000;} .st1{fill:#FFFFFF;} .st2{fill:#007900;}</style><path class="st0" d="M240.7 360.6l.3-.6H0v120h640V360H242.3l-1.6.6zM0 0h640v120H0z"/><path class="st1" d="M0 360h241c10-21.2 38.8-16.7 46.1-43.2 2.4-7.3-4.9-14.6-12.2-14.6l-31.7 9.7c-12.2 2.4-22 2.4-36.6 2.4v-9.7c19.5-2.4 31.7-7.3 48.8-19.5-14.6 0-17.1 4.9-29.3 9.7-9.8 4.9-24.4 2.4-34.2 0 0 0-.2-4 0-4.9.5-.6 29.3-17.1 29.3-17.1l24.4-12.2v-4.9l-2.4-2.4c-12.2 4.9-26.8 14.6-31.7-2.4l19.5-12.2c12.2-7.3 29.3-9.7 24.4-26.8l-24.4 2.4c7.3-14.6 14.6-12.2 26.8-21.9 0 0 8.6-5.4 10.4-6.5 1.8-1.1 15.6-8.6 14-10.6-.5-2.1-9.8 2.4-9.8 2.4l-2.4-2.4c4.9-9.7 9.8-12.2 19.5-17.1-9.8-4.9-2.4-7.3 2.4-12.2 12.2-9.7 17.1-9.7 24.4-24.4 14.6 7.3 14.6 12.2 24.4 19.5 14.6 9.7 39.1 7.3 48.8 29.2l-14.6 2.4c9.8 2.4 19.5 7.3 24.4 17.1-17.5-5.1-33.9-12.6-34.7-6.1.2 2.3 42 28 42 28 9.8 4.9 20.9 9.8 21.6 15.8-1.3.1-24.8.7-32.6-4.4-2.7 1.1-3.7 3-4 4.2 1 .4 41.9 11.1 41.9 11.1v4.9l-41.5 4.9c26.8 0 34.2 12.2 53.7 26.8v4.9c-26.8 7.3-22-9.7-41.5 2.4 17.1 4.9 43.9 17.1 51.3 34.1-17.1 4.9-22-2.4-36.6-7.3-24.4-9.7-24.4-4.9-41.5-7.3l-17.1-4.9c-14.6 2.4-9.8 24.4 0 39 9.8 9.7 12.2 7.3 24.4 21.9-14.6 2.4-17.1-2.4-29.3-7.3-4.9-2.4-9.8-2.4-14.6-4.9l4.9 12.2c-19.5-4.9-19.5-14.6-34.2-19.5-12.2-2.4-22 2.4-31.7 7.3l-37.4 14H640V120H0v240z"/><path class="st2" d="M242.3 360l37.4-14c9.8-4.9 19.5-9.7 31.7-7.3 14.6 4.9 14.6 14.6 34.2 19.5l-4.9-12.2c4.9 2.4 9.8 2.4 14.6 4.9 12.2 4.9 14.6 9.7 29.3 7.3-12.2-14.6-14.6-12.2-24.4-21.9-9.8-14.6-14.6-36.5 0-39l17.1 4.9c17.1 2.4 17.1-2.4 41.5 7.3 14.6 4.9 19.5 12.2 36.6 7.3-7.3-17.1-34.2-29.2-51.3-34.1 19.5-12.2 14.6 4.9 41.5-2.4v-4.9c-19.5-14.6-26.8-26.8-53.7-26.8l41.5-4.9v-4.9s-40.9-10.7-41.9-11.1c.3-1.2 1.3-3.2 4-4.2 7.8 5 31.3 4.4 32.6 4.4-.7-6-11.8-10.9-21.6-15.8 0 0-41.8-25.8-42-28 .8-6.5 17.2 1 34.7 6.1-4.9-9.7-14.6-14.6-24.4-17.1l14.6-2.4c-9.8-21.9-34.2-19.5-48.8-29.2-9.8-7.3-9.8-12.2-24.4-19.5-7.3 14.6-12.2 14.6-24.4 24.4-4.9 4.9-12.2 7.3-2.4 12.2-9.8 4.9-14.6 7.3-19.5 17.1l2.4 2.4s9.3-4.5 9.8-2.4c1.6 1.9-12.2 9.4-14 10.6-1.8 1.1-10.4 6.5-10.4 6.5-12.2 9.7-19.5 7.3-26.8 21.9l24.4-2.4c4.9 17.1-12.2 19.5-24.4 26.8L211.4 251c4.9 17.1 19.5 7.3 31.7 2.4l2.4 2.4v4.9l-24.4 12.2s-28.8 16.5-29.3 17.1c-.2.9 0 4.9 0 4.9 9.8 2.4 24.4 4.9 34.2 0 12.2-4.9 14.6-9.7 29.3-9.7-17.1 12.2-29.3 17.1-48.8 19.5v9.7c14.6 0 24.4 0 36.6-2.4l31.7-9.7c7.3 0 14.6 7.3 12.2 14.6-7.3 26.5-36 22-46.1 43.2l-.3.6 1.7-.7zm69.3-132.5c6-1.8 5.8 5.1 3.7 5.9-1.6 1.4-9.7-4.1-3.7-5.9zm9.5 54.1c-8 2-7.9-9.2-5.6-9.9 5.5-1 13.7 7.9 5.6 9.9zm82.3-6.5c-2.8 4.8-14.5 1.9-16.5-6.1 6-6.7 20 .2 16.5 6.1zM376 217.4c4.6-2.2 12.3 3.3 11.6 4.6 0 .8-12.8-.6-11.6-4.6zm5.9 45.6c6.4 8.8-22 4.6-21.6 1.9.5-1.7 16.2-7.1 21.6-1.9zm-20.3-54.2c-2.9 3.3-22.4-1.1-12.9-5.9 9.5-4.7 14.3 3.8 12.9 5.9zm-10.3-31.6c2.6 4.1-8 .1-7.9 0 0 0 6.1-2.7 7.9 0zm-11.8 20.4c6.5 5-7.8 6.5-8.1 6.2 0 0 2.4-7.7 8.1-6.2zm-9.1-22.2c-.2-3.6 6.6-3.3 7.8-.9 1 3.2-8.9 3.7-7.8.9zm-.1 67.4c-2.2.8-13.8-4.6-7-9.3 6.9-4.8 8.7 6.6 7 9.3zm-4.5-44.8c2.1 5-20.6 8.1-13.7 3.6 6.8-4.5 12.9-5.8 13.7-3.6zm-3.7-23.4c2.1 3.6-8.6 8-13.2 5.8 2.9-5.8 12.5-7.3 13.2-5.8zm-27.7 57c3.2-1.2 7.4 4.6 7.4 4.6.3.1-11.5-.7-7.4-4.6zm9.5 51.4c-4.4-2.2-3.2-10.2-1-10.5 1.8.1 5.8 11.2 1 10.5zm-.1-98s-15.3 13.8-15.7 8.9c.8-5.7 13.4-13.4 13.4-13.4 3.6-.9 2.3 4.5 2.3 4.5zm-9.5-16.5c.5 1.6-4.8 5.9-6.8 5 .3-1.6 6.2-5.3 6.8-5zm-2.8 34.5c1 1-4.4 10.9-9.2 4.9-5.9-7 9.5-7.2 9.2-4.9zm-16.6 44.4c-4.6 5.1-17.8 7.5-19.6 7.3-1.3-.5-4-4.9-4-5 0-.1 28.2-7.5 23.6-2.3zm-7.8-27.9c-1.4-.2-5.6-7.8-5.3-9 .7-1.6 9.9-3.5 11.6-3.4 2.1.4 3.3 4.5 4.1 6-.3.8-8.8 7.1-10.4 6.4zm16.2 48.7c10.9 5 8.5 10.1 6.7 15.9-1.3 3.9-17.6-20.8-6.7-15.9z"/><path class="st1" d="M331.4 203.8c.3.3 14.6-1.2 8.1-6.2-5.7-1.5-8.1 6.2-8.1 6.2zM351.3 177.2c-1.8-2.7-7.9 0-7.9 0-.1.1 10.4 4.1 7.9 0zM288.1 193.9c.4 4.9 15.7-8.9 15.7-8.9s1.3-5.4-2.3-4.6c0 .1-12.7 7.8-13.4 13.5zM361.6 208.8c1.4-2.1-3.3-10.7-12.9-5.9-9.5 4.8 10 9.3 12.9 5.9zM338.2 174.6c-1.2-2.5-8-2.7-7.8.9-1.1 2.7 8.8 2.2 7.8-.9zM301.8 236.2s-4.2-5.8-7.4-4.6c-4.1 3.9 7.7 4.7 7.4 4.6zM302.8 272.5c-2.2.3-3.3 8.3 1 10.5 4.9.7.9-10.4-1-10.5zM330.3 242.8c1.7-2.8-.1-14.1-7-9.3-6.8 4.8 4.8 10.1 7 9.3zM325.8 198c-.9-2.2-6.9-.9-13.7 3.6-6.9 4.5 15.8 1.3 13.7-3.6zM322.1 174.6c-.7-1.4-10.3 0-13.2 5.8 4.6 2.2 15.3-2.2 13.2-5.8zM387.6 221.9c.7-1.2-7-6.7-11.6-4.6-1.2 4.1 11.6 5.5 11.6 4.6zM273.5 207.1c-1.7-.1-10.9 1.8-11.6 3.4-.4 1.2 3.8 8.8 5.3 9 1.6.7 10.2-5.6 10.5-6.4-1-1.5-2.1-5.6-4.2-6zM251.3 249.7c0 .1 2.7 4.5 4 5 1.8.2 15-2.2 19.6-7.3 4.6-5.2-23.6 2.2-23.6 2.3zM291.5 203c.3-2.3-15.1-2.1-9.2 4.9 4.8 6 10.2-3.8 9.2-4.9zM290 284.1c1.8-5.8 4.2-10.9-6.7-15.9-10.9-4.9 5.4 19.8 6.7 15.9zM294.3 168.5c-.5-.3-6.4 3.4-6.8 5 1.9.9 7.2-3.4 6.8-5zM360.3 264.8c-.4 2.8 28 6.9 21.6-1.9-5.4-5.1-21.1.3-21.6 1.9zM386.9 269c2 8 13.7 10.9 16.5 6.1 3.5-5.9-10.5-12.8-16.5-6.1zM315.5 271.7c-2.3.7-2.4 11.9 5.6 9.9 8.1-2-.1-10.9-5.6-9.9zM315.3 233.4c2.1-.8 2.3-7.7-3.7-5.9-6 1.8 2.1 7.3 3.7 5.9z"/></svg>