<svg id="Ebene_1" xmlns="http://www.w3.org/2000/svg" viewBox="0 0 640 480"><style>.st0{fill:#FFFFFF;} .st1{fill:#0B7226;} .st2{fill:#BC0000;} .st3{fill:#9C4314;} .st4{fill:#42B2F3;} .st5{fill:#008D00;} .st6{fill:#33B1E9;} .st7{fill:#983D25;} .st8{fill:#268728;} .st9{fill:#BA4600;} .st10{fill:#973100;} .st11{fill:#009400;} .st12{fill:#FFBA00;stroke:#000000;stroke-width:0.99;stroke-opacity:0.772;} .st13{fill:#D40000;} .st14{fill:#973000;} .st15{fill:#008D2B;} .st16{fill:#6D390B;} .st17{fill:#DC0000;} .st18{fill:#D90000;} .st19{fill:#008F00;} .st20{fill:#008C00;} .st21{fill:#00602B;} .st22{fill:#F6AA00;} .st23{fill:#9C4314;stroke:#000000;stroke-width:0.99;stroke-linejoin:round;stroke-opacity:0.772;} .st24{fill:#00C600;stroke:#000000;stroke-width:0.99;stroke-linecap:round;stroke-opacity:0.772;} .st25{fill:none;stroke:#00C600;stroke-width:0;stroke-linecap:round;stroke-linejoin:round;} .st26{fill:#FFFFFF;stroke:#000000;stroke-width:0.99;stroke-opacity:0.772;} .st27{fill:#9F3000;} .st28{fill:#238700;} .st29{fill:#FFBC00;} .st30{fill:#F7B200;} .st31{fill:#288800;} .st32{fill:#9D4600;fill-opacity:0.994;stroke:#000000;stroke-width:0.5278;stroke-linecap:round;stroke-linejoin:round;} .st33{fill:#9D4600;} .st34{fill:#296526;}</style><path class="st0" d="M237.5 237c.1 0 .1-.1.2-.1 0 0 .1-.1.2-.1-.1 0-.2 0-.3-.1 0 .1 0 .2-.1.3zM236.4 238.1c0 .1 0 .1.1.2 0-.1.1-.2.1-.2h-.2zM278.5 256c.2-.1.4-.1.5-.1 0-.1.1-.3.1-.4 0-.1 0-.1.1-.2-.2-.1-.4-.2-.6-.4.1.4 0 .8-.1 1.1zM214.3 251.9v0zM215.1 273.4c-.2 0-.5-.1-.8-.1v2.1c.5 0 1 0 1.3-.1 1.4-.5.8-1.7-.5-1.9zM291.2 173.4s-4.4 2.1-5.5 4.5c-.1.1-.4-.5-.9-1.3.2.3.4.6.5.9 2.1 2.8 2.3 5.7 1.3 8.6-.5 2-1.6 3.7-2.9 5.2v-.1c-2.2 2.7-5 5.1-7.8 7-6.2 4.8-10.2 13.1-5.8 17.3l.3.3c1.3 1.1 3.1 1.9 5.7 2.2 2.2.1 5.2-.1 8.2.2 1.8.2 3.6.5 5.1 1.4 0 0 .1 0 .2.1.9.5 1.6 1.2 2.3 2 .6.8 1.2 1.8 1.5 2.8.3.7.5 1.5.7 2.4.4 1.6 0 3.2-.7 4.7.1.1.3.2.4.2 2.8 1.8 3 4.7 2.2 6.8l-.4.2c.5.2 1.5.4 2.6.8.1 0 .1-.1.2-.1 1.3-.4 2.5-.8 3.8-1.2-1.8-2.2-4-4.5-4.2-7 1.5-.6 4.2-.5 5.6-.1-2.7-5.3-7-9.3-8.5-15.9-1.8.3-2 2.6-3.4.3.9-5.4-7.4-15.4 1.2-24.7 0 0-.4-1.3-.9.1.4-1.9-1.5-.7-1.1-1.7 0-.3 2.6-5.1 6.3-8.8-3.6 1.2-.9-.1-1.8-.1-.7-.8 1.5-5.2 3.8-7.1-1-1.9-2-3.1-3.1-4-.4.9-.8 1.7-.9 2.1-.5 2.4-4 2-4 2zM390.6 270.5h-.2l.2.2v-.2zM282.4 256.3c0 .1-.1.2-.1.3.1 0 .1.1.2.1.1-.3.2-.5.4-.8h-.3c-.1.2-.1.3-.2.4z"/><path class="st0" d="M413.6 291.3l-2 1.7 4 .2c.3-.4.7-.8 1.3-1 1.4-.6 3.1-.2 3.6 1 .6 1.1-.1 2.5-1.5 3.1s-3.1.2-3.6-1l-5.9-.2v-.2l-.9.7c-.2 2.3-1.9 5.1-3.3 6.8 0 0 .1-.1.2-.1 6.7-3.6 2.5 1.5 2.1 4.2-2 6.8-3.8 6.9-6.1 8-3.4 3.1-14.5 1.6-19.6 2.9.6-.4 1.2-.9 1.9-1.3-1.1.4-2.2.7-3.2 1l.7 1.1-2.1 1.3 3.9 2.5c.5-.2 1.1-.3 1.7-.2 1.5.2 2.7 1.4 2.6 2.7s-1.4 2.1-2.9 1.9-2.7-1.4-2.6-2.7l-4.5-2.9-2.3 1.4-.6-.8c-.7 2.6-4.7 5.6-6.9 6.8-.4.2-.7.4-1.1.5 3.4.7 6.6 2.4 7.4 3.2-5.2 0-13.8 3.6-17.3 4.3-3.4.9-10.3-1.9-16.6-4.6-.4-.2-.8-.3-1.2-.5-3.9-1.7-7.4-3.2-9.5-3.7 2.9-.1 6 0 9.3.3 1.5 0 2.9 0 4.2-.2 2.4-2.2 4.2-4.8 7.9-7.2 3.4-1.9 9.7-4.7 17.6-3.5-1.7 1.5-2.4 3.1-3.6 4.6 2.6-.4 5.7-.6 9.5-.6l-.4-.7 1.5-1v-5.4c-.4-.3-.8-.7-1.1-1.3-.7-1.4-.3-3 .8-3.7 1.1-.6 2.5 0 3.2 1.4.7 1.4.3 3-.8 3.7v3.8l2.6-1.8.4.6c.1-.1.2-.2.3-.4 1.8-4.9 3.9-11.9 7-14.6 2.1-2.1 8.5-6 11-9.6.2 1.4-.2 5.2-2 7.7 3.4-2.7 7-4.7 10.1-5.2l-.2-.2 1.9-1.8-2.6-4.8c-.5 0-1.1-.2-1.6-.6-1.2-.9-1.7-2.5-1-3.6s2.2-1.2 3.5-.3c1.2.9 1.7 2.5 1 3.6l2.3 4.2 1.2-1.1c.2-.6.4-1.3.6-2.1-.5-9.5-1.8-21.9 9.2-26.3 1.3-.3 1.9.2 1.7 1.2 1.4-1.7 2.8-2.9 4.3-3.7v-2.5l-3.5-3.1c-.5.1-1 .1-1.6 0-1.4-.4-2.3-1.6-2-2.8s1.6-1.7 3-1.4c1.4.4 2.3 1.6 2 2.8l2.1 1.8v-4.2c-1.3-2.2-3.2-4.3-3.8-7.1-.4-2.6-1.3-7.4 1.2-12.2.5 1.1 1.6 2 2.7 2.9V-.4H214.3v223.1c1.3-.5 2.1-1 2.2 1.8 0 0-1.4 1.7-2.3 2.7v2.5c.5.1 2.3.3 2.3.3 1.6.7 1.7 2.4.6 2.5 0 0-1 1.2-2.9 2.3v2.4c.3-.1.8-.2 1.8-.2 1.8-.4 1.6 4-1.6 3.7h-.2v7.9c.4-.2 1-.1 1.9.3.6-1.1 1.2-1.8 1.7-2.9 1-1.5 3.4-.6 2.3 1.6-.5 1.1-1.1 1.9-1.6 3 2.1 2.7-.8 3.8-2.3 2.6.2-.6-.9 1.4-1.9 3.1v5.6l.7 3.1h.1c.6.5 1.1-3.5 3.5-2.9 1.7.5.6 2.4.9 4.9.3 1.7 2 1.3 2.2.4-.4-3.9 3.4-3.9 3.9-2.6.4 1 .7 3.6.2 6-.2 1.2-.1 3.7.7 4.2 1.3 0 .5-.3 1.4-1.6 1.5-1 3.9 2.6 1.1 4.4-3 .6 1.7 11.9 2.1 12.6-.4.5-.9-.1-1 .4-.2-.3-6.1-6.7-12.9-6-1.3.2-3.3-2.9-1.3-3.4 1.3 0 .3-.1 1.5-.1 1.1-.7-.9-3.1-1.7-2.3 0-.1-.7 0-1.5.2V480h212.6V281.6c-2.3 4-8.3 7.1-13.2 9.7zM267.1 155.8c.1 2.3.2 5.3.2 6.1-.1-2.2-.9-3.9-1.1-4.8.3-.5.8-1.3.9-1.3zM231.3 223c.8-.5 2.1-.5 3 .8.9 1.4.9 3 .1 3.5l2.9 3.2c.8 0 1.6.4 2.1 1.4.2-1.5 1.1-2.2 2-2.2 1 0 2 .9 1.9 2.8-.1 1.9-1.1 3.4-2 3.3-.6 0-1.1-.5-1.5-1.3-.1.6-.3 1.2-.7 1.5 1.6-.4 3.6.1 5.2 2.5 1.2 1.8 1.7 3.9 1.4 5.5 7.8-1.7 15 9.8 17.8 17l-.1.2c.4-.3.7-.6 1.1-.9 3.7-1.9 7.4-2.2 10.9-1.5.3-.8.8-1.4 1.2-1.8-.5-.3-1-1-1.1-1.9-.1-1.3.6-1.9 1.3-2 .3 0 .6 0 .9.2-.3-1.4.5-2.2 1.3-2.3.5-.1 1.1 0 1.6.5-.1-.3-.1-.7.1-1.2.4-1 1.2-1.3 1.8-1.1.7.2 1.2.8.9 1.8-.4 1-1.3 1.6-2 1.4-.2 0-.3-.1-.4-.3 0 .1.1.2.1.4.1.5.1.9 0 1.3.1 0 .2 0 .3.1 0 0 .1 0 .1.1.1-.4.2-.8.5-1.2.8-1.1 1.9-1.1 2.6-.7.7.5 1.1 1.5.3 2.6 0 .1-.1.1-.2.2.5 0 .9.1 1.3.4.7.5 1.1 1.4.2 2.4-.7.7-1.6 1-2.3.9.4 1.1.5 2.5 0 4.1v.1c3.1 2.2 5.6 5.1 7.2 7.8.6-1.2 1.5-2.5 2.7-3.8 6.5-4.8 18.9-2.4 27.4 1.9-.6 1.5-.4 3.2.5 4.4 1-1.3 2-1.9 3.3-2.2 1.1.8 2 1.5 2.8 2.3-2.4 2.5-1.4 6.4 1.1 7.6.1-2.6 1.5-3.8 3.6-4.6-.5-1-.5-2.6-1.3-3.5-.5-.3-1-.6-1.5-.6l.2-.2c-.2 0-.3 0-.5-.1-1-.2-1.9.3-2.7-.1.5-2.1.8-4.9-.3-7.1 1.3-1.2 3.8-.6 6.1.5 2.2.2 2.7-.4 3.9-.9 1.7-1 2.8-2.5 3.9-4.1-.4.4-.9.6-1.5.2-.5-1.2-.9-1.5-.9-1.5-.6 2.1-1.5 2.3-2.6 2.6-1.2-.1-1 .3-1.9-.7-1.7-2.7-4-5.3-5.7-8-.5.4-1.3.9-1.9.3-2-2.4-3.8-6.2-5.8-8.5.7 3.1-.9 7.3-1.9 7.3-.7.2-2.3-.2-3.1-1.7 0 0-1.4.8-1.4 1.1 0 .3-6.3 1.9-11.8 1.4-.6-1.2-.2-2.6.1-3.7-3.5-.5-10.7-1.2-9.5-4.3.4-.4.7-.8 1.1-1.1l-2.9-1-.5.3c-.6 4.7-6 2.2-9.8-1.5 0 1.4-1.1 1.4-2.4 1.1-.4.8-1.8 1.9-2.9 1.7-.3.5-.6.9-1.7.7.2.2.3.4.5.5-2.1.9-3.7 1.7-3.7 1.7-3.5 1.2-7.9.1-11-4.6-1.5-3.6-2.2-8.2-4.5-10.7 0 0-4.4-2.7-6.1-5.2-4.8-6.5.3-13.7 0-17.4-.7-6.4-5-4.7-7.8-7.2-.2.4-1.1.1-1.3.3-1.4.5-3.7-1.3-5.2-5.5.7-1.2 4.8-3.8 6.2-3.2 0 0 2.6 1 2.9 2.1 2.9.6 4.9 2 7.7 3.9 4.4 4.3 3.1 10.7 1.9 14.6-2.1 4.2-.2 7.2 2.3 9 4.9 2.5 7.9 5.9 8 12 1.2 4.2 4.3 4.4 5.5 4.5-.2-1.5.3-2.8 2.5-3.4.3-1.8 1.5-3.6 3.7-3.3.7-1.6 2.4-2.6 4.6-3.2-.3.2-.6.4-.9.7-2.8 4.4.4 8.4 4.1 6.8-.1-1-.3-1.8-.4-2.6v-.3c-.1-1.5.1-2.9 1.6-4.6.1-.2.3-.3.4-.5h-1.1.8c.2-1.1-.1-1.9-1.7-2.3-5.2.9-23.5 1-23.3-16.5.4-3.9 2.5-8.3 5.8-12.7 3.3-4.4 12.5-10 13.4-12.4 1.4-2.1-1.2-6.1-3.2-6.7v-.1c.2 1.4.8 3.1 2.1 5-4.5 1.4-8.4-2.4-8.6-6.6-.1.2-.1.3-.2.5-6.9 2-14.7.5-13.2-9.2-2.5-7.6 1-9.4 4.2-10.8l7.8-6.8c.3.5.7 3.2.2 4.8 0 .1-5.3 7.7-5.3 7.7-.8 1.2-.2 3.8 1.8 3.1 2.6-1.1 4.3-1.5 6.8-2.7.1.4.1.1.2.6-3 1.5-5.6 2.9-8.6 4.3-.7.9-.6 2.4 1.3 2.7 2.8.2 4.4-.9 7.4-.4-.1.2-.1.3-.2.5.4-.4.9-.8 1.4-1.2.2-1.5 1-3.2 2.8-3.8-.2-1-1.5-1.2-.3-3.4 4.5-3.9 9.3-7.2 9.2-12.7.6 1.6.9 3.1 1.5 4.7.6-4.2 2.3-5.4 3.7-7.9 0 2.6.3 2.8.5 5 .4 1.8 1.9 1.8 2.7 1.1.7-2.8.1-5.7 2.1-8.3.6 1.9 1.4 4.2 2 6.1.3-2.6 2.5-2.5 3.5-5.2 0 0 1.1 3.9 1.1 4.5 5.6-.9 12.5 2.4 12.5 2.4s3.2-.8 5 .2c-1.5 1.1-.7 1.6-1.2 2.4 1.9.7 5.4 5.2 5.4 5.2-.2-1.5-.5-4.1-.7-5.6-2.6-5.4-5.8-4.6-9.7-5.7-2.8 0-4.1-2.6-4.1-4 0-5.8 4.5-6.8 9-7.2 1.4-3.3 3.9-3.6 9.3-4.1 23.8-1.4 39.9 17.4 50.3 12.2-1.3 1.6-2.3 3.2-2.9 4.9 8.4 6 16.5 11.8 23.1 21.8 6.7 9.9 8.3 27.2 15.3 24.6-.2 1.8-2.1 2.3-3.6 2.5 1.9 4.5 1.8 21.7.6 24-2 6.8-1.5 16.3-1.5 16.6.4 4.5-2.3 18.9-4 17.6-1 .2-1.2-11.3-1.4-16.1-.4-5.9-.9-9.3-1.6-14-.2-4.1-.2-7.3-.4-11.3-1-1.9-2.6-2.2-2.5-.5v4.8c0 .3 1.8 16.6 1.8 16.6l-1.5 14-2.4-2.4v-5.6c-1.6-7.7-3.3-16.1-4.9-23.8 0 0-.9 3.7-.6 6 1.3 4.3 1.3 22.9 1.3 22.9 0 1.9-1-1.3-2-2.4.1-1.2-.6-3.2-.6-5-2-11.4-3.6-21-7.9-23.5.4 1.6.6 3.4 1 5 0 0 2.5 12.6 1.7 13.6-.6.7-1.4-2.3-2.9-4.5-1.8-4.4-1.7-11.6-7.5-16.3 0 .6 3.7 8.9 4 14.1.2 2.8-1.3-.6-2.7-1.5-2-4.6-2.6-7.4-4.8-11-3.3-2.9-8.2-6.8-11.1-8.3 5.7 6.3 8.1 10.9 10 15.7.4 1.4-1.3 0-2.7-.5-3.1-3.4-4.2-7.1-7.2-9.5-2.8-.8-4.8-.3-10.1-5.3h-.1v.2-.2c-1.3 0-2.2 1.7-1.8 3.1 2.3 2.8 4.5 13.1 4.5 15.9 7.9 3.8 28.4 19.7 42.1 29.4 1.9 1.5-.1 3.4-.8 3.5 0 .3-6.5 1.4-10.6-.3.2 2.2-5.1 4.3-9.7 2.4-.9 2.2-6.4 1.4-8.5 0-.8 1.5-4.9.2-5.7-.3-.3 0-7.6-8-7.4-7-.6.5-.8 2.4-1.4 2.9-.7-.5-1-.3-1.9-2.2-.1 1.8-.7 3.6-1.5 4.2.1 0 .1.1.2.1 1.4 1.9 6.1 6 6.4 6.2 2 1.5 4 .1 6 .3 1.7.3 3.1 1.8 3.1 3.7-3.7 0-3.4 2.7-3.5 4.1-.4.1-.9.1-1.3.2 1.3 2.2 1.6 4.2.8 6.1 2.5.5 5.1 1.2 6.6-.7 8.2-9.7 9-10.5 16.2-9.4 1.2.5 2.2 1 3.1 1.5.5-.5 1-1 1.6-1.4 1.8-1.2 3.4-1.3 4.7-.9-.7-.9-.8-2.6.2-4.2 1.1-1.8 2.7-2 3.8-1.3.6.4 1.1 1.1 1.1 2 .3 0 .6 0 .8.1l3.4-2.9c0-.8.5-1.8 1.5-2.4 1.3-.9 2.5-.5 3 .3s.5 2-.9 2.9c-.8.5-1.7.7-2.4.6l-3.3 2.9c.3.6.4 1.5-.1 2.3.8.3 1.4.9 1.6 1.6.3 1.2-.2 2.7-2.3 3.2-1.7.4-3.2 0-4-.8-.1 1.2-.9 2.5-2.5 3.6-.5.3-1 .6-1.5.8.7 7.7-14.1 15.5-28.7 9.6-1.9-1-4.9-1.2-7.1-2-4.6 2.7-11.7 4.7-20.1 5.4 2.3.1 4.7.2 7 .3.7-.9 1.8-1.6 3.1-1.6 2.1 0 3.9 1.7 3.9 3.9 0 1-.4 1.9-1 2.6v.3c.1.6.2 1.3.3 1.9 6.4-.5 12.4-1.6 18.5-2.4.6-1.3 2.1-2.5 4-3.3 3.1-1.2 6.3-.7 7.1 1.1.8 1.8-1 4.3-4.1 5.5-2.8 1.1-5.7.8-6.8-.6l-8.9 4.1c-.4.5-.5 1.1.1 1.6.8.6 2 .8 3.1 1.1-.4.6-.6 1.3-.6 2.1 0 .5.1 1 .3 1.4-4.1.8-8 1.7-12.1 2.7 0 .2.1.3.1.5 0 2.1-1.7 3.9-3.8 3.9-.3 0-.5 0-.7-.1-.5.2-1 .3-1.6.3-.4 0-.7.1-1.1.1-.2.5-.4 1-.9 1.7 0 0-.9.5-.9.6 0 0-26 .2-29.3 0-.7-.1-1.9-1.5-2.7-2.4-.7-.1-1.3-.3-1.9-.6-.5.2-1.1.4-1.7.4-2.1 0-3.9-1.7-3.9-3.9v-.4c-3.4-.5-7.6-.7-10.9-1-.5 1.4-2 2.9-4.2 3.7-3.1 1.2-6.3.7-7.1-1.1-.8-1.8 1-4.3 4.1-5.5 2.5-1 5-.8 6.3.2 8.2-7.9-11.2-8.8-16.5-9.2 0-.9-.4-1.8-.9-2.5.1-.1.2-.1.3-.2 7-1.4-2.4-6.9-6.3-9.6-1.5.8-3.8.9-6.2.1-3.7-1.2-6.1-4-5.5-6.2.6-2.2 4.1-3.1 7.7-1.9 2.8.9 4.8 2.7 5.4 4.5.1-.1.2-.1.3-.2 15.8 9.4 20.4 8.4 20.2 4.6h.3c1.2 0 2.2-.5 3-1.3-.1 6 6.3 9.5 10.5 9.1-.3-.5-.4-1.1-.4-1.8 0-2.1 1.7-3.9 3.9-3.9 1.3 0 2.5.7 3.2 1.7.3 0 .5-.1.8-.1 6.3-.6 12.8-.7 19.3-.6-1.1-.2-1.8.1-3.3-.8.2-2.8.6-5.3 1.3-7.5-17.3 4.8-31.3 1-32.7-6.6-.1.3-.3.5-.5.7-15.7 5.7-31.1-2.6-29.2-11l-.8 1.2c-12 .7-26-11.8-18.1-20.5-1.4-.4-3-1.4-4.1-3.1-.9-1.4-1.3-2.7-1.2-3.8-.7.4-2.1.5-3.3-.2-1.5-.8-1.6-2-1.1-2.8.1-.2.3-.4.6-.5-.5-.8-.4-1.7-.1-2.4.5-.9 1.6-1.5 2.9-.9 0-.9.3-1.6.7-2l-2.8-3.1.5-.4c-.8 0-1.8-.5-2.5-1.5-1.3-1.8-.9-3-.1-3.6zm25.9 101c-1.3.2-2.1.2-3.4.4-1.8.2-2.5-2.3-.2-2.8 1.2-.3 2.2-.3 3.4-.6.8-3.3 3.5-1.8 3.5.2-.7.2 2.4-.2 4.4-.5-1.7-1.3-4.6-2.6-9.6-2.7-1.4-.1-2.3.3-5.1.1-1.6.1-1-1.8-.3-2.5 1.1-.7-3.8-.4-5.5-.2-1.7-.1-2.8-.4-3.8-.6-3-.3-4.7-2.4-2.5-3.6.9-.9 4.6.1 5.9-.1 1.4-.4 1.2-2.7-.1-2.9-1.9-.3-10-.9-9.3-1.8-1.2-2.1-.9-3.1 2.4-2.7 1.8 1.1 1.8-.3 1.3-1.1-.5-1.5-3.5-1.8-3.6-3.1-.1-1-.1-1.7.2-2.2l-.3.2-1.9-2.2s0 .1-.1.1l-5.8-.6c.2 1.6-2.9 3.1-3.1-.3-1.3 0-2.1-.1-3.4-.1-1.8-.1-2.1-2.7.3-2.7 1.2-.1 2.2.1 3.4 0 1.3-3.1 3.7-1.2 3.4.8-.5.1 1.1.1 2.8.1l-.5-.6 2.1-1.7c.1-1.1.3-2.3.4-3.2-1.6.2-3-2.9.4-3.1 0-1.3.2-2.1.1-3.4.1-1.8 2.7-2.1 2.7.3.1 1.2-.1 2.2 0 3.4 3.1 1.4 1.1 3.7-.8 3.4-.1-.9-.2 4.6-.3 5.7l2.1 2.6-.3.3c.5-.1 1-.1 1.5.1.5-.5-2.4-3 .9-4.2.8-.3 2.5-.1 3.1 3 1.7.5.5-2 2.9-3 2-.8-.1 9.1 2.3 9 2.1.8 1.7-5.4 3.4-4.2 3.8-1 1.9 12 3.6 11.3 2.7 2.4 3-2.1 3.8-1.7 1.3 0 2.2.1 1.5 3.1-.6 2.3.3 2.9.7 3.8 1.1 2.4 2.4 3.8 3.7 4.7 0-1-.1-2.2-.1-3-1.5.4-3.5-2.4-.1-3.1-.2-1.3-.2-2.1-.4-3.4-.1-1.8 2.4-2.5 2.8-.1.3 1.2.3 2.2.5 3.4 3.3.9 1.7 3.5-.3 3.5-.2-.8.3 2.9.5 4.8.4.4.8.8 1.1 1.3.4 3.8-.3 1.4-.3 1.9-.1-.1-.3-.6-.8-1.3.1.4.1.9-.2 1.4l-5.8.3c.4 1.5-2.4 3.4-3.2.1zm43.4 11.7c3.3-2.4 7.7-5.4 11.3-7.9-1.2.1-2.7.2-4.7.3-3.1.6-10.1 2.1-13.1 8.2-.6 1.2-5.2 2-4.5.1.7-1 1-1.1 1.7-2.2-.1-1.3-3-.9-2.8.2-.2-.1-1.7.2-2.3.9-1.8 2.3-4.9 2.2-4.8-.3 1.2-.9 1.7-1.7 2.3-2.9.4-1.4-2.3-1.9-3.1-.8-1.8 1-3 2.3-5.1 3.4-2.4.9-4.7-.7-2.6-1.9 1.9-.9.3-3.1-.6-3.1-1.6-.4-8.1.7-9.3.1-.9-.1-2.6-2.5-.6-3 1.8-.6 4.8.7 5.5-2.8.8-5.9 10.1 3 8.6.6-3.4-5 2.4-6.2 4.1-2.8.7 1.6 4.3 3.9 5.3 3.4 1.9.2-3.6-4.9.8-5.7 1 .2 2.8.3 4 2 .9.9 1.1 4.5 4.5 4.8.7-1.1 0-.5-.6-2.1 0-1.8 3-1.7 4.3 1.4 1.3 2.4 8.1.8 14.3.9h.4c.1-.6.2-1.3.2-1.3s2-1.3 2.1-1.3 2.7-.5 2.7-.5l-.2 10-3.2-1.1-1.2-1.7s0-.3-.1-.7c-3.4 2.4-5.5 4.1-9.1 6.6-1.6.5-5-.2-4.2-.8zm2.3 6.8c1.8-4 6.7-6.5 11.4-10.4l1.1.3c.6.3 1.2.6 1.9.8-.1.1-.3.2-.4.2-3.2 1.9-5 3.5-6.8 5.5-.9.8-1.7 1.7-2.3 2.7-.1.2-.3.3-.4.5h.1c-1.7-.2-2.5.1-4.6.4zm31.1.1c-.1-.1-.2-.3-.3-.4-.6-1.1-1.5-2.1-2.5-2.9-1.7-1.9-3.6-3.4-6.4-5.2-.6.6-1.3 1.2-2 1.8 3 2.3 4.9 4.7 7.3 7.7-1.4.4-1.9 2.7-2.7 3.2-1.6-3.3-3.9-6.2-6.6-9.1-2.9 2.7-5.7 5.5-7.3 8.7-.5-1 .1-1.1-2.5-3 3.1-3.9 5.3-6.9 10.3-10h1c.4 0 1-.1 1.5-.3.4-.1.8-.1 1.1-.1.6-.1 1.2-.3 1.8-.4 4.3 3.9 9.5 6.2 11.4 10.3-2-.3-2.9-.6-4.1-.3zm2.7-5.2c-3.8-2.6-5.9-4.4-9.6-6.9-.3.5-1 1.6-1 1.6l-2.7 1.1-.1-9.8 2.1.3 2.1 1.3.2 2.8v.1h.1c3.7 2.7 9 6.2 12.7 8.9.8.5-2.6 1.2-3.8.6z"/><path class="st0" d="M343.5 257.9c0 .6-1.5-.5-2 .3.4.2 1.9.9 3.1 1.5-.3-.6-.7-1.5-1.1-1.8zM284.1 175.5c-.4-.6-.9-1.1-1.5-1.5-.4-.2-.8-.3-1.2-.5.5.2 1.1.6 1.6 1 .4.4.7.7 1.1 1zM391.8 272c-.1 0-.2-.1-.3-.1.1.1.1.2.2.4 0-.1.1-.2.1-.3z"/><path class="st1" d="M214.3 262.3v-5.6c-.4.6-.7 1.2-.9 1.6l.9 4z"/><path class="st1" d="M212.5 279.7c-2.9-.3-4.2-3.6-2.1-4.8 1 .4 2.6.5 3.9.5v-2.1c-2.6-.5-8.6-2.1-8-2.9-1.2-2.1 0-3.7 2.2-2.6 1.8 1.1 2 .5 1.6-.3-.5-1.5-1-1.2-1.1-2.5-.1-.9.1-1.6 1.4-1.1.4-.3.9 1 2.2 1.6l-1.4-6c-1.2-.8-4.4-2.6-5.3-3.2-.6 1.5-4 1.3-2.6-1.8-1.1-.6-1.8-1.1-3-1.7-1.5-.9-.6-3.4 1.5-2.3 1.1.5 1.9 1.1 3 1.6 2.7-2.1 3.8.7 2.7 2.3-.6-.2 1.2.8 2.8 1.7l-.1-.6.7-.2c-1.8-6.1-4.6-11.5-11.2-13.1-1.2-.3-2.1-3.8-.1-3.7 1.2.5 0-.2 1.2.2s3-.5 2.2-2.5c0-.2-2.2-4.2-2.2-4.3-.4-.4.4-3 2.3-1.6.9.6 1.9 2.1 3.2 2.3.5-.1.8-1.6.7-2.8 0-.1.1-4.1.1-4.1-.5-2.4 1.6-3.6 3.3-1.8.1.6 0 .6.1 1.2.4.8.9.9 1.4.1l2.2-2.2V0H0v480h214.3V279.6c-.7.1-1.4.2-1.8.1z"/><path class="st1" d="M213.1 237.4c.6.2.8.2 1.2.2v-2.4c-.2.1-.3.2-.5.3-.7.5-1.2 1.2-.7 1.9zM214.2 230h.1v-2.5c-.1.2-.3.3-.4.4-.5.7-1.4 1.6.3 2.1zM211.7 242.8c-.2 1.2-.3 3.5-.3 4.1-.2 2.8.2 6.7.2 6.8.1 1.1 0 1.4-.2 1.5l.7-.2c.6-.9 1.5-2.1 2.1-3v-.1c-1-.5-1.2-2.4 0-2.8v-7.9c-.8.1-2 .1-2.5 1.6z"/><path class="st2" d="M428.6 254.5c0-.5-.1-1.1-.1-1.7 0 .1 0 .3-.1.4-.2-1.2-.8-2.3-1.5-3.5v4.2l1.4 1.2.3-.6z"/><path class="st2" d="M426.9 0v233.4c.8.7 1.5 1.4 2 2.2.7-4.5 2-8.5 4.4-10.2 1.9 1.1 2.6 4.8 2.7 6.8.1 1.3.1 2.4.1 3.5.1-.3.1-.6.2-.8.1-2.8 3.7-4.8 5.2-5.2-.9 5.4.7 8 .3 10.2-.3 3.6-7 9.2-9.8 12.2.1-.3.2-.6.2-1-.6 1.1-1.3 2.2-2.2 3.4l.2.3-.5 1.1 4.2-.3c.5-1.1 1.9-1.5 3.3-1s2.1 1.8 1.6 2.9c-.5 1.1-1.9 1.5-3.3 1-.5-.2-1-.5-1.3-.9l-5.4.4-.7 1.5c1.1 2.5.4 6.7-.2 9.1-.1.4-.2.8-.4 1.2 2.4-3.4 7-4.2 8.8-4.1-3.7 3.8-7.3 12.9-9.4 16 0 .1-.1.1-.1.2v198.4H640V0H426.9z"/><path class="st2" d="M427.1 258.1l.4-1-.6-.6v2.5c.2-.1.5-.2.7-.3l-.5-.6z"/><path class="st3" d="M214.3 251.9v.1c-.6.8-1.5 2.1-2.1 3l.4-.1.8 3.4c.2-.4.6-1 .9-1.6 1-1.7 2.1-3.6 1.9-3.1 1.6 1.2 4.4.1 2.3-2.6.5-1.1 1.1-1.9 1.6-3 1.1-2.1-1.3-3-2.3-1.6-.6 1.1-1.2 1.8-1.7 2.9-.8-.4-1.4-.4-1.9-.3-1.1.5-.9 2.4.1 2.9zM234.4 293.5c0-1.1.2-6.7.3-5.7 1.9.3 3.9-2 .8-3.4-.1-1.2.1-2.2 0-3.4 0-2.4-2.6-2.1-2.7-.3 0 1.3-.2 2.1-.1 3.4-3.4.2-1.9 3.3-.4 3.1-.1.8-.3 2.1-.4 3.2l2.5 3.1zM207.6 254.4c1.2-1.6 0-4.4-2.7-2.3-1.1-.5-1.9-1.1-3-1.6-2.1-1.1-3 1.3-1.5 2.3 1.1.6 1.8 1.1 3 1.7-1.4 3.1 2 3.2 2.6 1.8.9.6 4.1 2.5 5.3 3.2l-.8-3.4c-1.7-.9-3.5-1.9-2.9-1.7zM227.5 292.5c.3-1.9-2.1-3.9-3.4-.8-1.2.1-2.2-.1-3.4 0-2.4 0-2 2.6-.3 2.7 1.3 0 2.1.1 3.4.1.2 3.4 3.3 1.9 3.1.3l5.8.6s0-.1.1-.1l-2.4-2.8c-1.9.1-3.5.1-2.9 0z"/><path class="st4" d="M305.5 317.1s-.1 0 0 0c-.2 0-.4 0-.6-.1.8.9 2 2.3 2.7 2.4 3.3.2 29.3 0 29.3 0s.9-.5.9-.6c.5-.7.7-1.2.9-1.7-10.3.8-22.2 1.2-33.2 0zM345.3 310.7c.3.5.5 1.1.6 1.7 4.1-1 8-2 12.1-2.7-.2-.4-.3-.9-.3-1.4 0-.8.2-1.5.6-2.1-1.1-.3-2.3-.5-3.1-1.1-.6-.5-.5-1.1-.1-1.6l8.9-4.1c-.1-.1-.2-.3-.3-.5-.3-.7-.2-1.5.1-2.3-6.1.9-12.1 1.9-18.5 2.4.7 4 .9 7.9 0 11.7z"/><path class="st5" d="M212.8 266.3l-.2-.8c-1.3-.6-1.8-1.9-2.2-1.6-1.3-.5-1.6.2-1.4 1.1.1 1.3.6 1 1.1 2.5.4.8.2 1.4-1.6.3-2.2-1.1-3.4.5-2.2 2.6-.6.8 5.4 2.4 8 2.9.3.1.6.1.8.1 1.3.2 1.9 1.4.6 1.8-.4.1-.8.1-1.3.1-1.3 0-2.9-.1-3.9-.5-2.2 1.3-.9 4.5 2.1 4.8.4.1 1.2 0 1.8-.1.8-.1 1.4-.3 1.5-.2.9-.8 2.8 1.5 1.7 2.3-1.3 0-.3.1-1.5.1-2 .5 0 3.6 1.3 3.4 6.8-.7 12.7 5.7 12.9 6 .1-.5.6 0 1-.4-.4-.6-5-11.9-2.1-12.6 2.8-1.8.4-5.4-1.1-4.4-.9 1.4-.1 1.7-1.4 1.6-.8-.5-1-3-.7-4.2.5-2.5.1-5.1-.2-6-.4-1.3-4.2-1.2-3.9 2.6-.2.9-1.9 1.3-2.2-.4-.3-2.6.9-4.4-.9-4.9-2.3-.6-2.9 3.4-3.5 2.9h-.1l.1.3-2.5.7zM210.7 225.2c-.1-.6 0-.6-.1-1.2-1.7-1.8-3.8-.6-3.3 1.8 0 0-.1 3.9-.1 4.1.1 1.2-.2 2.7-.7 2.8-1.4-.3-2.3-1.7-3.2-2.3-2-1.3-2.8 1.2-2.3 1.6 0 .1 2.2 4 2.2 4.3.7 2-1.1 2.9-2.2 2.5-1.2-.5 0 .2-1.2-.2-2.1-.2-1.2 3.4.1 3.7 6.6 1.6 9.4 7 11.2 13.1l.5-.1c.2-.1.4-.4.2-1.5 0-.1-.4-4-.2-6.8 0-.6.1-2.9.3-4.1.5-1.4 1.6-1.5 2.6-1.6h.2c3.2.3 3.4-4.1 1.6-3.7-1.1 0-1.5.1-1.8.2-.3.1-.5.1-1.2-.2-.6-.7 0-1.4.6-1.9.2-.1.4-.2.5-.3 1.8-1.1 2.9-2.3 2.9-2.3 1.2-.2 1-1.9-.6-2.5 0 0-1.8-.3-2.3-.3h-.1c-1.7-.5-.7-1.4-.3-2.1l.4-.4c.9-1 2.3-2.7 2.3-2.7-.1-2.7-.9-2.3-2.2-1.8l-2.2 2.2c-.7.6-1.2.5-1.6-.3z"/><path class="st3" d="M265.9 315.5c2 0 3.5-2.6.3-3.5-.3-1.2-.3-2.2-.5-3.4-.4-2.4-2.9-1.6-2.8.1.2 1.3.2 2.1.4 3.4-3.3.7-1.4 3.6.1 3.1 0 .8.1 2 .1 3 1.1.8 2.1 1.4 2.9 2.1-.2-1.9-.7-5.6-.5-4.8zM266.1 323.5c.3-.5.3-.9.2-1.4-.3-.4-.8-.9-1.4-1.4-2 .3-5.1.7-4.4.5 0-2-2.7-3.5-3.5-.2-1.2.3-2.2.3-3.4.6-2.4.4-1.6 2.9.2 2.8 1.3-.2 2.1-.2 3.4-.4.8 3.3 3.6 1.3 3.1-.2l5.8-.3z"/><path class="st6" d="M300 309.3c-.4-4.2-.4-8.3.2-11.5-.9-.3-1.6-1-2.1-1.9-4.2.5-10.6-3-10.5-9.1-.8.8-1.8 1.3-3 1.3h-.3c.2 3.9-4.3 4.8-20.2-4.6-.1.1-.2.1-.3.2.2.6.2 1.2.1 1.7-.2.8-.8 1.4-1.5 1.8 3.9 2.7 13.3 8.3 6.3 9.6-.1.1-.2.1-.3.2.6.7.9 1.5.9 2.5 5.3.4 24.7 1.3 16.5 9.2.3.3.6.6.8.9.3.6.3 1.2 0 1.8 3.3.3 7.5.5 10.9 1 .1-1.4 1.1-2.6 2.5-3.1z"/><path class="st7" d="M324.7 291.3c-6.5-.1-13-.1-19.3.6-.3 0-.5 0-.8.1.4.6.7 1.4.7 2.2 0 2.1-1.7 3.9-3.9 3.9-.5 0-.9-.1-1.3-.3-.6 3.2-.6 7.4-.2 11.5.4-.1.8-.2 1.3-.2 2.1 0 3.9 1.7 3.9 3.9 0 1.5-.9 2.8-2.2 3.5.6.3 1.2.5 1.9.6.2 0 .4.1.6.1 11.1 1.2 22.9.9 33.3.1.4 0 .7-.1 1.1-.1.6 0 1.1-.1 1.6-.3-1.8-.3-3.2-1.9-3.2-3.8v-.1c0-2.1 1.7-3.9 3.9-3.9 1.3 0 2.5.7 3.2 1.7.9-3.8.7-7.7.1-11.8-.1-.6-.2-1.3-.3-1.9v-.3c-.7.8-1.7 1.3-2.8 1.3-2.1 0-3.9-1.7-3.9-3.8v-.1c0-.9.3-1.7.8-2.3-2.3-.1-4.7-.2-7-.3-1.9.2-3.8.3-5.8.3-.8-.4-1.2-.5-1.7-.6z"/><path class="st8" d="M270.4 171.1c.1-.2.1-.3.2-.5-3-.5-4.7.6-7.4.4-1.9-.3-2-1.7-1.3-2.7 3-1.5 5.6-2.9 8.6-4.3-.1-.4-.1-.1-.2-.6-2.5 1.3-4.2 1.7-6.8 2.7-2.1.7-2.6-1.9-1.8-3.1 0 0 5.3-7.6 5.3-7.7.4-1.6.1-4.3-.2-4.8l-7.8 6.8c-3.2 1.4-6.7 3.2-4.2 10.8-1.5 9.7 6.4 11.3 13.2 9.2.1-.2.2-.4.2-.5-.1-1.9.5-4 2.2-5.7zm-10.8-11.9c-.5-.6-.2-1.6.6-2.3.8-.7 1.8-.8 2.3-.2.5.6.2 1.6-.6 2.3-.8.7-1.8.8-2.3.2zM266.8 150.6z"/><path class="st9" d="M267.1 155.8zM266.1 157.1c.3.9 1 2.6 1.1 4.8 0-.9-.1-3.8-.2-6.1 0 0-.5.8-.9 1.3z"/><path class="st10" d="M300.1 297.7c.4.2.9.3 1.3.3 2.1 0 3.9-1.7 3.9-3.9 0-.8-.3-1.6-.7-2.2-.7-1-1.9-1.7-3.2-1.7-2.1 0-3.9 1.7-3.9 3.9 0 .6.2 1.2.4 1.8.6.8 1.3 1.5 2.2 1.8zM305.1 312.9c0-2.1-1.7-3.9-3.9-3.9-.5 0-.9.1-1.3.2-1.4.5-2.4 1.7-2.6 3.2v.4c0 2.1 1.7 3.9 3.9 3.9.6 0 1.2-.2 1.7-.4 1.3-.5 2.2-1.9 2.2-3.4zM338.2 294.2c0 2.1 1.8 3.8 3.9 3.8 1.1 0 2.1-.5 2.8-1.3.6-.7 1-1.6 1-2.6 0-2.1-1.7-3.9-3.9-3.9-1.3 0-2.4.6-3.1 1.6-.5.6-.8 1.4-.8 2.3l.1.1zM342.1 309c-2.1 0-3.9 1.7-3.9 3.9v.1c0 1.9 1.4 3.4 3.2 3.8.2 0 .5.1.7.1 2.1 0 3.8-1.8 3.8-3.9 0-.2 0-.3-.1-.5-.1-.6-.3-1.2-.6-1.7-.6-1.1-1.8-1.8-3.1-1.8z"/><path class="st5" d="M266.3 322.2c.6.7.8 1.2.8 1.3.1-.5.8 1.9.3-1.9-.3-.5-.6-.9-1.1-1.3-.8-.7-1.8-1.2-2.9-2.1-1.3-1-2.6-2.3-3.7-4.7-.4-.9-1.3-1.5-.7-3.8.7-3-.1-3-1.5-3.1-.8-.5-1.1 4-3.8 1.7-1.6.8.2-12.2-3.6-11.3-1.7-1.2-1.3 5.1-3.4 4.2-2.4.1-.3-9.8-2.3-9-2.4 1-1.2 3.6-2.9 3-.6-3.1-2.3-3.3-3.1-3-3.4 1.2-.4 3.8-.9 4.2-.4-.2-1-.3-1.5-.1l-1.2 1.1c-.2.5-.3 1.2-.2 2.2.1 1.3 3 1.6 3.6 3.1.4.8.5 2.2-1.3 1.1-3.2-.4-3.6.7-2.4 2.7-.7.9 7.5 1.5 9.3 1.8 1.3.2 1.5 2.5.1 2.9-1.4.2-5-.8-5.9.1-2.2 1.3-.4 3.3 2.5 3.6 1 .2 2.1.5 3.8.6 1.7-.2 6.5-.6 5.5.2-.6.7-1.3 2.6.3 2.5 2.8.2 3.7-.2 5.1-.1 5 .1 7.9 1.4 9.6 2.7.7.5 1.2 1 1.5 1.4z"/><path class="st11" d="M307.3 342c.1-.2.3-.3.4-.5.5-1 1.3-1.9 2.3-2.7 1.8-2 3.6-3.5 6.8-5.5l-.2-.2c.2-.1.4-.1.6 0-.7-.2-1.4-.5-1.9-.8l-1.1-.3c-4.7 3.9-9.6 6.4-11.4 10.4 2.1-.3 3-.6 4.6-.4h-.1zM326.8 332.6c-.6.1-1.2.3-1.8.4h.8l-1.1 1.1c2.8 1.8 4.7 3.3 6.4 5.2 1 .9 1.9 1.9 2.5 2.9.1.1.2.3.3.4 1.2-.3 2.1 0 4.2.3-1.8-4.2-7-6.4-11.3-10.3zM314.2 332.1z"/><path class="st12" d="M274.9 175.6c-.1 0-.1 0-.2-.1.5-.7 1-1.2 1.6-1.6 1.3-.9 3.2-1.2 5.1-.4.4.1.8.3 1.2.5.6.4 1.1 1 1.5 1.5l.3.3c.2.3.3.5.5.7.5.8.8 1.4.9 1.3 1.1-2.4 5.5-4.5 5.5-4.5s3.5.5 4.2-1.8c.1-.4.5-1.2.9-2.1-4.2-3.3-9 .3-12.9-.8-1.8-.6-1.3-.6-2-1.5-1.4.1-2.9.2-4.3.3l-2.4-1.2v-.2c-1.8.7-2.7 2.3-2.8 3.8-.5.4-1 .8-1.4 1.2-1.7 1.7-2.3 3.8-2.2 5.8.3 4.3 4.1 8 8.6 6.6-1.3-1.9-1.9-3.6-2.1-5-.5-.9-.4-1.9 0-2.8z"/><path class="st13" d="M316.5 333.2l.2.2c.1-.1.3-.2.4-.2h-.6zM325 333c-.4 0-.7.1-1.1.1-.6.2-1.1.3-1.5.3h-1c-5 3-7.1 6.1-10.3 10 2.6 1.8 1.9 1.9 2.5 3 1.6-3.2 4.3-6 7.3-8.7 2.6 2.8 4.9 5.8 6.6 9.1.8-.5 1.3-2.8 2.7-3.2-2.4-3-4.3-5.3-7.3-7.7.7-.6 1.3-1.2 2-1.8l1.1-1.1c-.4-.1-.7-.1-1 0z"/><path class="st14" d="M263.9 285.5c.2-.5.1-1.1-.1-1.7-.6-1.8-2.7-3.6-5.4-4.5-3.7-1.2-7.1-.4-7.7 1.9-.6 2.2 1.8 5 5.5 6.2 2.4.8 4.7.7 6.2-.1.7-.5 1.3-1.1 1.5-1.8z"/><path class="st15" d="M304.4 336.4c3.6-2.5 5.7-4.2 9.1-6.6-.1-.8-.4-2.2-.4-2.2-.4.1-.8.1-1.3.2-3.6 2.5-8 5.6-11.3 7.9-.7.6 2.7 1.3 3.9.7z"/><path class="st14" d="M286.5 309.7c-.2-.4-.4-.7-.8-.9-1.3-1-3.9-1.2-6.3-.2-3.1 1.2-5 3.7-4.1 5.5.8 1.8 4 2.3 7.1 1.1 2.2-.8 3.7-2.3 4.2-3.7.1-.6.1-1.3-.1-1.8z"/><path class="st16" d="M428.3 255.2l-1.4-1.2-2.1-1.8c.3-1.1-.6-2.4-2-2.8-1.4-.4-2.7.2-3 1.4s.6 2.4 2 2.8c.6.2 1.1.1 1.6 0l3.5 3.1.6.6.8-2.1zM396.5 267.6c.1.1.1.2.1.3l3.3-2.9c-.5-.1-.8-.3-1-.6-.1-.2-.2-.4-.2-.7l-3.4 2.9c.5.2 1 .5 1.2 1z"/><path class="st14" d="M363.8 298.8c.1.2.2.3.3.5 1.1 1.4 4 1.8 6.8.6 3.1-1.2 5-3.7 4.1-5.5-.8-1.8-4-2.3-7.1-1.1-1.9.8-3.4 2-4 3.3-.4.7-.4 1.5-.1 2.2z"/><path class="st5" d="M313.4 326.3h-.4c-6.2-.1-13 1.5-14.3-.9-1.3-3.1-4.3-3.3-4.3-1.4.7 1.5 1.4 1 .6 2.1-3.4-.3-3.6-3.9-4.5-4.8-1.2-1.7-3-1.8-4-2-4.4.8 1.1 5.9-.8 5.7-1 .4-4.6-1.9-5.3-3.4-1.8-3.4-7.6-2.3-4.1 2.8 1.5 2.5-7.8-6.4-8.6-.6-.8 3.5-3.7 2.3-5.5 2.8-2 .4-.3 2.9.6 3 1.2.7 7.7-.4 9.3-.1.9.1 2.5 2.2.6 3.1-2.1 1.2.2 2.8 2.6 1.9 2.2-1.1 3.3-2.4 5.1-3.4.9-1 3.5-.5 3.1.8-.6 1.3-1.2 2.1-2.3 2.9-.1 2.5 3 2.6 4.8.3.7-.7 2.1-1 2.3-.9-.2-1.2 2.8-1.5 2.8-.2-.7 1-1 1.1-1.7 2.2-.6 2 4 1.1 4.5-.1 3-6.1 10-7.6 13.1-8.2 2 0 3.6-.1 4.7-.3.5-.1.9-.1 1.3-.2.2.1.3-.5.4-1.1z"/><path class="st17" d="M381.9 277.7c.9 1.4 3.5 1.8 6 .8.5-.2 1-.4 1.5-.8 1.7-1.1 2.4-2.4 2.5-3.6.7.8 2.3 1.3 4 .8 2.1-.5 2.6-2.1 2.3-3.2-.2-.7-.7-1.3-1.6-1.6.4-.8.4-1.6.1-2.3 0-.1-.1-.2-.1-.3-.3-.4-.7-.7-1.2-.9-.2-.1-.5-.1-.8-.1 0-.9-.5-1.6-1.1-2-1-.7-2.6-.5-3.8 1.3-1 1.6-.9 3.3-.2 4.2-1.2-.5-2.9-.3-4.7.9-.6.4-1.2.9-1.6 1.4-1.7 1.8-2.2 4.1-1.3 5.4zm9.9-5.7c0 .1-.1.2-.1.3 0-.1-.1-.2-.2-.4.1.1.2.1.3.1zm-1.2-1.5v.1l-.2-.2c.1.1.1.1.2.1z"/><path class="st18" d="M398.9 264.4c.2.3.6.5 1 .6.7.1 1.6-.1 2.4-.6 1.3-.9 1.4-2.1.9-2.9-.5-.8-1.6-1.2-3-.3-1 .7-1.5 1.7-1.5 2.4 0 .3.1.6.2.8z"/><path class="st19" d="M420.8 261.5c-11 4.5-9.7 16.8-9.2 26.3 1.9-6.9 5.7-18.7 10.9-25.2.2-.9-.4-1.4-1.7-1.1z"/><path class="st20" d="M413.1 290.6l.6.7-.1.1c4.9-2.6 10.9-5.7 13.3-9.7 0-.1.1-.1.1-.2 2.1-3 5.7-12.2 9.4-16-1.7-.1-6.4.8-8.8 4.1-2.9 9.1-8.9 15.9-14.5 21z"/><path class="st11" d="M313.2 327.6c0 .1.2 1.4.4 2.2.1.4.1.7.1.7l1.2 1.7 3.2 1.1.2-10s-2.6.5-2.7.5-2.1 1.3-2.1 1.3-.1.6-.2 1.3c0 .5-.1 1.1-.1 1.2z"/><path class="st5" d="M427.6 258.7c-.2.1-.5.2-.7.3-1.5.7-3 2-4.3 3.7-5.2 6.4-9 18.3-10.9 25.2-.2.8-.4 1.5-.6 2.1l.8-.8 1.2 1.4c5.6-5.1 11.6-11.8 14.5-21 .1-.4.3-.8.4-1.2.6-2.4 1.4-6.6.2-9.1v.1l-.6-.7z"/><path class="st16" d="M434.4 257.4c.3.4.7.7 1.3.9 1.3.5 2.8 0 3.3-1 .5-1.1-.2-2.3-1.6-2.9s-2.8 0-3.3 1l-4.2.3-.9 2 5.4-.3zM407.6 286.9c.7-1.1.2-2.7-1-3.7-1.2-.9-2.8-.8-3.5.3-.7 1.1-.2 2.7 1 3.6.5.4 1.1.6 1.6.6l2.6 4.8 1.5-1.4-2.2-4.2zM409.5 295l5.9.2c.6 1.1 2.2 1.6 3.6 1s2.1-2 1.5-3.1c-.6-1.1-2.2-1.6-3.6-1-.6.2-1 .6-1.3 1l-4-.2-2.1 1.8v.3z"/><path class="st21" d="M327.8 327.7c-.1.3-.5 2.3-.5 2.4 0 0-.1.1-.2.3 3.7 2.6 5.8 4.3 9.6 6.9 1.2.6 4.6-.1 3.8-.7-3.7-2.6-9-6.2-12.7-8.9z"/><path class="st20" d="M406.6 294.4c-3.1.4-6.6 2.5-10.1 5.2 1.8-2.4 2.2-6.2 2-7.7-2.5 3.6-9 7.5-11 9.6-3.2 2.7-5.3 9.7-7 14.6-.1.1-.2.3-.3.4l.4.6c1-.3 2.1-.6 3.2-1-.7.5-1.3.9-1.9 1.3 5.1-1.3 16.2.2 19.6-2.9 2.3-1.2 4.1-1.2 6.1-8 .4-2.8 4.6-7.8-2.1-4.2 0 0-.1.1-.2.1 1.4-1.8 3.2-4.6 3.3-6.8l-.6.5-1.4-1.7z"/><path class="st16" d="M377.2 314c1.1-.7 1.5-2.3.8-3.7-.7-1.4-2.1-2-3.2-1.4-1.1.6-1.5 2.3-.8 3.7.3.6.7 1 1.1 1.3v5.4l2-1.4.1-3.9zM381.8 323.7c-.1 1.3 1.1 2.5 2.6 2.7s2.8-.6 2.9-1.9-1.1-2.5-2.6-2.7c-.6-.1-1.2 0-1.7.2l-3.9-2.5-1.9 1.2 4.6 3z"/><path class="st20" d="M364.6 321.5c1.2-1.5 1.9-3.1 3.6-4.6-7.9-1.2-14.2 1.6-17.6 3.5-3.8 2.4-5.6 5-7.9 7.2-1.3.1-2.6.2-4.2.2-3.3-.3-6.4-.5-9.3-.3 2.1.5 5.6 2 9.5 3.7.4.2.8.4 1.2.5 6.3 2.7 13.2 5.5 16.6 4.6 3.6-.6 12.1-4.3 17.3-4.3-.8-.9-4-2.5-7.4-3.2.4-.2.7-.4 1.1-.5 2.1-1.2 6.1-4.2 6.9-6.8l-.3-.5c-3.8-.1-6.9.1-9.5.5z"/><path class="st13" d="M327.7 327.7s.1 0 0 0c0-.1-.2-2.9-.2-2.9l-2.1-1.3-2.1-.3.1 9.8 2.7-1.1s.7-1 1-1.6c.1-.2.2-.3.2-.3s.4-1.9.4-2.3z"/><path class="st16" d="M233.5 227.7l-.5.4 2.8 3.1c.3-.2.5-.4.9-.5.2-.1.4-.1.7-.1l-2.9-3.2c-.4.2-.7.3-1 .3z"/><path class="st17" d="M236.7 230.7c-.3.1-.6.3-.9.5-.5.4-.8 1.1-.7 2-1.4-.6-2.4 0-2.9.9-.4.7-.4 1.5.1 2.4-.2.1-.4.3-.6.5-.5.8-.4 2 1.1 2.8 1.2.7 2.5.6 3.3.2-.1 1.1.3 2.4 1.2 3.8 1.1 1.7 2.7 2.7 4.1 3.1 1.2.3 2.4.3 3.2-.3.7-.5 1.1-1.3 1.3-2.4.2-1.6-.2-3.6-1.4-5.5-1.6-2.3-3.6-2.9-5.2-2.5.3-.4.6-.9.7-1.5.4.8.9 1.3 1.5 1.3 1 0 2-1.4 2-3.3.1-1.9-1-2.8-1.9-2.8-.9 0-1.7.6-2 2.2-.5-1-1.3-1.4-2.1-1.4-.4-.1-.6-.1-.8 0zm-.3 7.4c.1 0 .1 0 .2-.1 0 .1-.1.1-.1.2-.1 0-.1 0-.1-.1zm1.3-1.2c-.1 0-.1.1-.2.1v-.3c.1 0 .2 0 .3.1l-.1.1z"/><path class="st5" d="M244.5 246.5c-.8.5-1.9.6-3.2.3-7.8 8.7 6.1 21.3 18.1 20.5l.8-1.2c-2 8.4 13.5 16.6 29.2 11 .2-.2.4-.5.5-.7 1.5 7.6 15.5 11.4 32.7 6.6-.6 2.2-1.1 4.7-1.3 7.5 1.6.9 2.3.6 3.3.8.4.1.9.2 1.5.6 2-.1 3.9-.2 5.8-.3 8.5-.8 15.6-2.7 20.1-5.4 2.2.8 5.2 1 7.1 2 14.6 5.9 29.4-2 28.7-9.6-2.5 1-5.1.7-6-.8-.9-1.3-.4-3.6 1.2-5.5-.9-.5-1.9-1-3.1-1.5-7.3-1.1-8-.3-16.2 9.4-1.6 1.9-4.2 1.1-6.6.7.7-1.9.5-3.9-.8-6.1-1.9.2-3.5.1-3.5.1-.8-1.6-1.8-2.6-3.3-3.4-1.8-1-4.3-.4-6.3 0-1.8.5-4.4.7-5.3 2-.5 2.6-2.1 4.1-5.3 3.3-.1-.1-.2-.3-.3-.4-2.1.8-3.5 2-3.6 4.6-2.5-1.2-3.5-5.1-1.1-7.6-.8-.8-1.7-1.6-2.8-2.3-1.2.2-2.3.9-3.3 2.2-.9-1.2-1.1-2.9-.5-4.4-8.5-4.3-20.8-6.7-27.4-1.9-1.2 1.3-2 2.5-2.7 3.8-1.6-2.7-4.1-5.5-7.2-7.8-1.1 3.7-2.9 6-5.6 5.2-3.6-.8-4.2-4.2-3.1-7.9.1-.4.3-.8.4-1.1-3.4-.7-7.1-.4-10.9 1.5-.4.3-.8.6-1.1.9l.1-.2c-2.9-7.3-10-18.7-17.8-17-.1.8-.5 1.7-1.2 2.1z"/><path class="st17" d="M233.5 227.7c.3 0 .6-.1.8-.2.8-.6.8-2.2-.1-3.5-.9-1.4-2.2-1.4-3-.8-.8.5-1.2 1.7-.2 3.1.7.8 1.7 1.3 2.5 1.4z"/><path class="st20" d="M424.3 230.5c-2.4 4.8-1.6 9.7-1.2 12.2.7 2.7 2.5 4.9 3.8 7.1.7 1.1 1.3 2.3 1.5 3.5 0-.1 0-.3.1-.4 0 .6.1 1.2.1 1.7l.5-1.3 1 1.3c.8-1.2 1.5-2.4 2.2-3.4-.1.3-.2.6-.2 1 2.8-3.1 9.5-8.6 9.8-12.2.4-2.2-1.2-4.8-.3-10.2-1.5.4-5.1 2.4-5.2 5.2-.1.3-.1.6-.2.8 0-1.1-.1-2.3-.1-3.5-.1-2-.8-5.7-2.7-6.8-2.4 1.7-3.7 5.7-4.4 10.2-.5-.9-1.2-1.6-2-2.2-1.2-1-2.3-1.9-2.7-3z"/><path class="st17" d="M278.2 268c2.7.8 4.5-1.5 5.6-5.2v-.1c.5-1.7.4-3.1 0-4.1.7 0 1.7-.3 2.3-.9.9-.9.5-1.9-.2-2.4-.3-.2-.8-.4-1.3-.4l.2-.2c.8-1.1.4-2.1-.3-2.6s-1.7-.4-2.6.7c-.3.4-.4.8-.5 1.2 0 0-.1 0-.1-.1-.1 0-.2 0-.3-.1.1-.4.1-.9 0-1.3 0-.1-.1-.2-.1-.4.1.1.3.2.4.3.7.2 1.6-.4 2-1.4.4-1-.2-1.6-.9-1.8-.7-.2-1.5.1-1.8 1.1-.1.4-.1.8-.1 1.2-.4-.5-1-.6-1.6-.5-.8.2-1.5 1-1.3 2.3-.3-.1-.6-.2-.9-.2-.7.1-1.4.8-1.3 2 .1.9.6 1.6 1.1 1.9-.5.5-.9 1.1-1.2 1.8-.2.3-.3.7-.4 1.1-1 3.9-.3 7.2 3.3 8.1zm4.6-12.1c-.2.3-.3.5-.4.8-.1 0-.1-.1-.2-.1 0-.1.1-.2.1-.3 0-.1.1-.3.1-.4h.4zm-3.6-.6c0 .1 0 .1-.1.2 0 .1-.1.3-.1.4-.2 0-.4.1-.5.1.1-.3.1-.7.1-1.1.2.2.4.3.6.4z"/><path class="st5" d="M329.8 272l-.2.2c.6 0 1.1.2 1.5.6-.3-.5-.7-.7-1.3-.8z"/><path class="st22" d="M337.9 273.4c.8-1.3 3.4-1.5 5.3-2 2-.4 4.5-1 6.3 0 1.5.8 2.5 1.8 3.3 3.4 0 0 1.6.1 3.5-.1.4 0 .8-.1 1.3-.2.1-1.4-.2-4.1 3.5-4.1 0-1.8-1.4-3.4-3.1-3.7-2-.2-4 1.2-6-.3-.2-.2-5-4.3-6.4-6.2 0 0-.1-.1-.2-.1-.1.1-.2.2-.4.2-.2-.1-.4-.4-.5-.7-1.2-.6-2.6-1.3-3.1-1.5l-.1.1c-.4.4-.9 1.3-1.5 1.9-1.1 1.6-2.2 3.1-3.9 4.1-1.2.5-1.7 1-3.9.9-2.3-1.1-4.8-1.6-6.1-.5 1.1 2.2.8 5 .3 7.1.8.5 1.7-.1 2.7.1.2 0 .4 0 .5.1.6.1 1 .4 1.3.7.8.9.8 2.5 1.3 3.5.1.2.2.3.3.4 3.5 1 5.2-.5 5.6-3.1z"/><path class="st23" d="M341.5 258.3c0-.1 0-.1 0 0 .6-.9 2.1.2 2.1-.4.4.3.7 1.2 1.1 1.8.2.3.3.6.5.7.1 0 .2-.1.4-.2.8-.7 1.5-2.4 1.5-4.2.9 1.9 1.2 1.7 1.9 2.2.6-.5.8-2.4 1.4-2.9-.1-1 7.1 7 7.4 7 .7.5 4.8 1.8 5.7.3 2 1.4 7.6 2.2 8.5 0 4.5 1.9 9.9-.2 9.7-2.4 4.1 1.7 10.6.5 10.6.3.7-.1 2.7-2 .8-3.5-13.8-9.6-34.3-25.5-42.1-29.4 0-2.8-2.1-13.1-4.5-15.9-.4-1.4.5-3.2 1.8-3.1l.3-6.3-.3 6.3h.1c5.4 5 7.3 4.5 10.1 5.3 3.1 2.4 4.2 6.1 7.2 9.5 1.4.5 3.2 1.9 2.7.5-1.9-4.8-4.2-9.5-10-15.7 3 1.5 7.8 5.4 11.1 8.3 2.2 3.6 2.8 6.5 4.8 11 1.4.9 2.9 4.3 2.7 1.5-.3-5.2-4-13.5-4-14.1 5.8 4.7 5.8 11.9 7.5 16.3 1.5 2.2 2.3 5.2 2.9 4.5.7-1-1.7-13.6-1.7-13.6-.4-1.6-.6-3.4-1-5 4.3 2.5 5.9 12 7.9 23.5 0 1.8.7 3.8.6 5 .9 1.2 2 4.3 2 2.4 0 0 0-18.6-1.3-22.9-.3-2.3.6-6 .6-6 1.6 7.7 3.3 16.1 4.9 23.8v5.6l2.4 2.4 1.5-14s-1.8-16.3-1.8-16.6v-4.8c0-1.7 1.5-1.4 2.5.5.2 4.1.2 7.3.4 11.3.7 4.7 1.2 8 1.6 14 .2 4.8.4 16.3 1.4 16.1 1.6 1.3 4.4-13.1 4-17.6 0-.3-.5-9.8 1.5-16.6 1.3-2.3 1.3-19.5-.6-24 1.5-.1 3.3-.6 3.6-2.5-7 2.6-8.6-14.7-15.3-24.6-6.5-10-14.7-15.8-23.1-21.8.7-1.7 1.6-3.3 2.9-4.9-10.4 5.2-26.5-13.6-50.3-12.2-5.4.5-7.9.9-9.3 4.1-4.4.4-9 1.4-9 7.2 0 1.4 1.3 4 4.1 4 3.9 1.1 7.1.3 9.7 5.7.2 1.5.5 4.1.7 5.6 0 0-3.5-4.4-5.4-5.2.5-.7-.3-1.2 1.2-2.4-1.8-1-5-.2-5-.2s-6.9-3.3-12.5-2.4c0-.6-1.1-4.5-1.1-4.5-1 2.8-3.2 2.6-3.5 5.2-.6-1.9-1.4-4.2-2-6.1-2 2.7-1.4 5.5-2.1 8.3-.8.6-2.3.7-2.7-1.1-.2-2.2-.5-2.4-.5-5-1.4 2.5-3.1 3.7-3.7 7.9-.6-1.6-.9-3.1-1.5-4.7.1 5.5-4.7 8.8-9.2 12.7-1.2 2.2.1 2.4.3 3.4v.2l2.4 1.2c1.4-.1 2.9-.2 4.3-.3.7.9.1.9 2 1.5 4 1.1 8.7-2.5 12.9.8 1.1.8 2.1 2.1 3.1 4-2.2 1.9-4.5 6.2-3.8 7.1.9 0-1.8 1.3 1.8.1-3.8 3.7-6.3 8.5-6.3 8.8-.4 1 1.5-.1 1.1 1.7.5-1.4.9-.1.9-.1-8.6 9.3-.3 19.3-1.2 24.7 1.4 2.3 1.6 0 3.4-.3 1.5 6.6 5.9 10.6 8.5 15.9-1.4-.4-4.1-.6-5.6.1.1 2.5 2.4 4.9 4.2 7-1.3.4-2.5.8-3.8 1.2-.1 0-.1.1-.2.1 4 1.2 10.4 3.1 10.7 3.3h-.6l-5.2 3.8-10-3.4-1.1 1.1c-1.3 3 6 3.8 9.5 4.3-.3 1.1-.8 2.5-.1 3.7 5.5.5 11.8-1.1 11.8-1.4 0-.3 1.4-1.1 1.4-1.1.7 1.5 2.4 1.9 3.1 1.7 1 0 2.6-4.1 1.9-7.3 2 2.4 3.8 6.2 5.8 8.5.6.6 1.4.2 1.9-.3 1.7 2.7 4 5.4 5.7 8 .9 1 .7.6 1.9.7 1.1-.4 2-.5 2.6-2.6 0 0 .4.3.9 1.5.6.4 1.1.2 1.5-.2.6-.1 1.1-1 1.5-1.4zm39.2-41.2l-3.8-6.6c1.7 2 2.8 4.1 3.8 6.6zm-7.9-2.4L365 204c2.3 2.6 5.9 6.6 7.8 10.7zM281.1 167c-1.2-.5-1.9-.4-3.1-.9.3-2.4 2.5-5 4.9-6.4 1.2-.6 1.9.1 2.4.4.6 1 .3 2.9 0 3.7-.6 1.3-1.9 2.3-4.2 3.2z"/><path class="st24" d="M376.9 210.5l3.8 6.6c-1-2.5-2.1-4.6-3.8-6.6zM365 204l7.8 10.7c-1.9-4.1-5.5-8.1-7.8-10.7z"/><path class="st25" d="M348.1 208.6v.2M348.1 208.6l.3-6.3"/><path class="st26" d="M285.4 160.1c-.5-.3-1.3-1-2.4-.4-2.4 1.4-4.5 4-4.9 6.4 1.2.5 1.9.4 3.1.9 2.3-.9 3.6-1.9 4.2-3.2.2-.7.6-2.7 0-3.7z"/><path class="st27" d="M240.3 201.8c-1.3-5.1-1.4-4.7 2.6-6.2h.1c-.3-1.1-2.9-2.1-2.9-2.1-1.3-.6-5.5 2-6.2 3.2 1.4 4.3 3.7 6 5.2 5.5.2-.3 1.1.1 1.3-.3 0-.1-.1-.1-.1-.1z"/><path class="st28" d="M268.5 239.6c-1.2-.1-4.3-.3-5.5-4.5-.1-6.2-3.1-9.6-8-12-2.5-1.9-4.4-4.9-2.3-9 1.2-3.8 2.5-10.2-1.9-14.6-2.8-1.8-4.8-3.3-7.7-3.9h-.1c-4 1.5-3.9 1.1-2.6 6.2l.1.1c2.8 2.5 7.1.9 7.8 7.2.3 3.6-4.8 10.8 0 17.4 1.7 2.5 6.1 5.2 6.1 5.2 2.3 2.6 3 7.2 4.5 10.7 3.2 4.8 7.6 5.8 11 4.6 0 0 1.7-.7 3.7-1.7-.2-.1-.4-.3-.5-.5-.3 0-.7-.1-1.1-.3-.9-.1-3.2-2.6-3.5-4.9z"/><path class="st29" d="M308.5 243h.6c-.3-.2-6.7-2.1-10.7-3.3-1.2-.4-2.1-.6-2.6-.8l-5.3 3.5 2.9 1 10 3.4 5.1-3.8z"/><path class="st30" d="M283.5 230c.1-.1.1-.3.1-.4-1.4 1.7-1.7 3.1-1.6 4.6.1-2 .5-3.4 1.5-4.2z"/><path class="st30" d="M296.1 238.7c.9-2.2.6-5.1-2.2-6.8-.1-.1-.3-.2-.4-.2-.4.8-.9 1.6-1.5 2.3-.6.9-1.3 1.7-2.2 2.5-1.7 1.6-3.2 2.7-3.2 2.7-.7-1.6-1.6-3.5-2.3-4-.7-.5-1.5.2-2.2-.6.1.8.2 1.7.4 2.6-3.6 1.6-6.9-2.4-4.1-6.8.3-.3.6-.5.9-.7-2.2.6-3.9 1.6-4.6 3.2-2.2-.3-3.3 1.5-3.7 3.3-2.2.6-2.8 2-2.5 3.4.4 2.3 2.7 4.8 3.5 5 .4.1.8.2 1.1.3 1.1.2 1.4-.2 1.7-.7 1.1.3 2.5-.9 2.9-1.7 1.4.3 2.4.2 2.4-1.1 3.9 3.6 9.2 6.2 9.8 1.5l.5-.3 5.3-3.5.4-.4zM282.9 229.2h.8-.8z"/><path class="st31" d="M289.7 219.7c.7.4 2.6 1.8 3.8 4.8-.4-1.1-.9-2-1.5-2.8-.7-.9-1.5-1.5-2.3-2zM289.4 219.5c-1.5-.8-3.2-1.2-5.1-1.4 1.8.2 3.6.6 5.1 1.4zM286.7 186c.9-2.8.7-5.7-1.3-8.6 1.6 3.3 1.9 6.1 1.3 8.6zM274 217.6c.5.2 1.3.3 2.2.3-2.6-.3-4.5-1.1-5.7-2.2.9.9 2.1 1.6 3.5 1.9zM283 174.6c-.5-.4-1-.8-1.6-1-1.9-.9-3.8-.6-5.1.4 2.1-1.4 4.6-1 6.7.6zM289.8 236.4c.9-.8 1.6-1.6 2.2-2.5-.7 1-1.5 1.8-2.2 2.5z"/><path class="st31" d="M283.8 229.8c1.1-.7-.7-3-1.1-3.4-3.1.7-10.6 1.3-14.9-1.4-1.4-3.4-2.3-3.9-2.9-13 1.2.4 1.9.7 3.3.8.1.6.8 1.7 1.8 2.7-4.4-4.2-.3-12.5 5.8-17.3 2.7-1.9 5.6-4.3 7.8-7 .5-11.8-4.7-14-8.8-15.6-.4.9-.5 1.9-.2 2.9v.1c2.1.6 4.6 4.6 3.2 6.7-.9 2.4-10 7.9-13.4 12.4-3.3 4.4-5.4 8.8-5.8 12.7-.2 17.5 18.1 17.4 23.3 16.5 1.6.4 1.9 1.2 1.7 2.3h.3c-.2.2-.3.3-.4.5 0 .1-.1.3-.1.4.2-.2.3-.2.4-.3z"/><path class="st32" d="M286.7 186c.6-2.5.4-5.3-1.3-8.6-.2-.3-.3-.6-.5-.9-.1-.2-.3-.5-.5-.7l-.3-.3c-.3-.3-.7-.7-1.1-.9-2.1-1.6-4.6-2-6.7-.7-.6.4-1.2.9-1.6 1.6.1 0 .1 0 .2.1 4.1 1.5 9.4 3.7 8.8 15.6v.1c1.4-1.6 2.5-3.3 3-5.3z"/><path class="st33" d="M284.2 235.1c.7.5 1.6 2.4 2.3 4 0 0 1.5-1.1 3.2-2.7.7-.7 1.5-1.6 2.2-2.5.6-.7 1.1-1.5 1.5-2.3.7-1.5 1.1-3.1.7-4.7-.2-.9-.4-1.7-.7-2.4-1.2-3-3.2-4.4-3.8-4.8-.1-.1-.2-.1-.2-.1-1.6-.8-3.3-1.2-5.1-1.4-3-.3-6-.1-8.2-.2-.9 0-1.6-.1-2.2-.3-1.4-.3-2.6-1-3.6-1.9l-.3-.3c-1.1-1-1.7-2.1-1.8-2.7-1.3-.1-2.1-.4-3.3-.8.6 9.1 1.5 9.5 2.9 13 4.3 2.7 11.7 2.1 14.9 1.4.3.5 2.2 2.8 1.1 3.4-.1.1-.2.2-.3.2-1 .8-1.4 2.1-1.5 4.2v.3c.8.8 1.5.1 2.2.6z"/><path class="st34" d="M236.4 296.1l-2-2.6-2.6-3.2-2.1 1.7.5.6 2.5 2.8 1.9 2.2.3-.2 1.2-1.1zM212.6 254.9l-.4.1-.8.2-.5.1-.7.1.2.7.8 3.4 1.4 5.9.2.9 2.3-.6-.1-.3-.7-3.1-.9-4zM413.1 290.6l-1.2-1.5-.8.8-1.2 1.1-1.6 1.5-1.8 1.7.1.2 1.5 1.6.5-.4.9-.8 2.1-1.8 2-1.7.1-.1zM380.2 316.6l-.4-.7-2.6 1.9-2.1 1.4-1.4 1 .4.7.3.5.6.8 2.3-1.4 1.9-1.2 2.1-1.3-.8-1.2zM428.6 254.5l-.3.7-.7 1.8-.5 1.1.5.6.6.8.1-.1.6-1.5 1-2 .4-1.1-.2-.3-1-1.3z"/><path d="M262.5 156.6c-.5-.6-1.5-.5-2.3.2-.8.7-1.1 1.8-.6 2.3.5.6 1.5.5 2.3-.2.8-.6 1.1-1.7.6-2.3z"/></svg>