<svg id="Ebene_1" xmlns="http://www.w3.org/2000/svg" viewBox="0 0 640 480"><style>.st0{fill:#CC0001;} .st1{fill:#FFFFFF;} .st2{fill:#010066;} .st3{fill:#FFCC00;}</style><path class="st0" d="M480.1 205.7H640V240H480.1zM0 274.3v34.3h640v-34.3H480.1zM480.1 68.5H640v34.3H480.1zM480.1 137.1H640v34.3H480.1zM480.1-.1H640v34.3H480.1zM0 411.5h640v34.3H0zM0 342.9h640v34.3H0z"/><path class="st1" d="M0 445.8h640v34.3H0zM0 377.2h640v34.3H0zM0 308.6h640v34.3H0zM480.1 240H640v34.3H480.1zM480.1 171.4H640v34.3H480.1zM480.1 102.8H640v34.3H480.1zM480.1 34.2H640v34.3H480.1z"/><path class="st2" d="M480.1 240V-.1H0V274.3h480.1V240zM368.9 83.8l-32.4 36.3 49.3-1.9-45.3 19 45.2 19.1-49.3-2 32.2 36.4-43.4-22.7 12.9 46.4-29.1-38.8-9.1 47.3-8.9-47.3-29.2 38.8 13-46.4-43.6 22.6 32.4-36.3-49.3 1.9 45.3-19-45.2-19.1 49.3 2-32.2-36.4 43.5 22.7-13-46.6 29.1 38.8 9.1-47.3 8.9 47.3 29.2-38.8-13 46.4 43.6-22.4zM94.3 137.1c0-56.8 46.2-102.9 103.2-102.9 21.4 0 41.2 6.5 57.7 17.6-9.9-3.7-20.6-5.6-31.8-5.6-50.5 0-91.5 40.9-91.5 91.2 0 50.4 41 91.2 91.5 91.2 10.2 0 20.3-1.7 29.9-5-16 10.4-35.2 16.4-55.8 16.4-57 0-103.2-46.1-103.2-102.9z"/><path class="st3" d="M253.4 223.6c-9.6 3.3-19.7 5-29.9 5-50.5 0-91.5-40.9-91.5-91.2 0-50.4 41-91.2 91.5-91.2 11.2 0 21.9 2 31.8 5.6-16.5-11.1-36.3-17.6-57.7-17.6-57 0-103.2 46.1-103.2 102.9S140.5 240 197.5 240c20.6 0 39.8-6 55.9-16.4z"/><path class="st3" d="M338.3 59.9l-29.2 38.8-8.9-47.3-9.1 47.3L262 59.8l12.9 46.5-43.5-22.7 32.3 36.4-49.3-2.1 45.2 19.2-45.3 19 49.3-1.9-32.4 36.3 43.6-22.6-13 46.4 29.2-38.7 8.9 47.3 9.1-47.3 29.1 38.8-12.9-46.4 43.5 22.7-32.2-36.4 49.2 2-45.2-19.1 45.3-19-49.3 1.9 32.4-36.3-43.6 22.5z"/></svg>