<svg id="Ebene_1" xmlns="http://www.w3.org/2000/svg" viewBox="0 0 640 480"><style>.st0{fill:#00006A;} .st1{fill:#FF0000;} .st2{fill:#FFFFFF;}</style><path class="st0" d="M48 0H0l42.4.1z"/><path class="st0" d="M48.2 0l.1.1h24L161.5 87V0H223v87L312.1.1l25.3-.1.1-.1h47L256.8 121.7h127.6V182.6H259.5l124.9 121.7H319l-96-91.6v91.6h-61.5v-91.6l-96 91.6H0l124.9-121.7H0v-60.8h127.6L0 0v480h640V0H48.2zm396.7 304l-19.6-14.5L405 303l7.6-23.2-19-15.3 24.3.1 8.6-22.9 7.4 23.3 24.3 1.1-19.7 14.2 6.4 23.7zm73.4 165.2l-19.6-14.5-20.3 13.4 7.6-23.2-19-15.3 24.3.1 8.6-22.9 7.4 23.3 24.3 1.1-19.7 14.2 6.4 23.8zm-4.7-313.4l6.4 23.6-19.6-14.5-20.3 13.4 7.6-23.2-19-15.3 24.3.1 8.6-22.9 7.4 23.3 24.3 1.1-19.7 14.4zm85 136L579 277.3l-20.3 13.4 7.6-23.2-19-15.3 24.3.1 8.6-22.9 7.4 23.3 24.3 1.1-19.7 14.2 6.4 23.8z"/><path class="st1" d="M223 193.3l114.5 111h23L235.6 182.6H223zM23.9.4l125.2 121.3h12.4v-11.3L48.3.1l-.1-.1H48l-5.6.1zM223 121.7h12.6L360.4 0h-22.9l-.1.1L223 111.2zM161.5 194v-11.4h-12.1L24 304.3h24.3z"/><path class="st2" d="M174.9 167.4H0v15.2h124.9L0 304.3h24l125.4-121.7h12.1V194L48.3 304.3H24h41.4l96.1-91.6v91.6h13.4zM209.5 137h174.9v-15.3H256.8L384.4 0h-24L235.6 121.7H223v-10.5L337.4.1h-25.3L223 87V0h-13.5zM0 121.7V137h174.9V0h-13.4v87L72.3.1h-24l113.2 110.3v11.3h-12.4L23.9.4 42.4.1 0 0l127.6 121.7zM209.5 167.4v136.9H223v-91.6l96 91.6h65.4L259.5 182.6h124.9v-15.2H209.5zm151 136.9h-23L223 193.3v-10.7h12.6l124.9 121.7z"/><path class="st1" d="M174.9 137H0v30.4h174.9v136.9h34.6V167.4h174.9V137H209.5V0h-34.6z"/><path class="st2" d="M501.7 117.1l-8.6 22.9-24.3-.1 19 15.3-7.6 23.2 20.3-13.4 19.6 14.5-6.4-23.6 19.7-14.2-24.3-1.1-7.4-23.5zm6.5 36.7l3.9 13.8-11.6-8.4-11.8 8 4.4-13.7-11.2-8.8 14.3-.1 4.9-13.5 4.5 13.6 14.3.5-11.7 8.6z"/><path class="st1" d="M501 131.2l-4.9 13.5h-14.2l11.2 8.9-4.4 13.6 11.9-8 11.6 8.4-4-13.8 11.5-8.5-14.2-.5z"/><path class="st2" d="M433.9 265.1l-7.4-23.3-8.6 22.9-24.3-.1 19 15.3L405 303l20.3-13.4 19.6 14.5-6.4-23.6 19.7-14.2-24.3-1.2zm3.1 27.2l-11.6-8.4-11.8 8 4.3-13.7-11.2-8.8 14.3-.1 4.9-13.5 4.5 13.6 14.3.5-11.5 8.5 3.8 13.9z"/><path class="st1" d="M430.4 269.5l-4.5-13.6-4.9 13.5-14.3.1 11.3 8.8-4.4 13.7 11.8-8 11.6 8.3-3.9-13.8 11.5-8.4z"/><path class="st2" d="M587.7 252.8l-7.4-23.3-8.6 22.9-24.3-.1 19 15.3-7.6 23.2 20.3-13.4 19.6 14.5-6.4-23.6 19.7-14.2-24.3-1.3zm3.1 27.2l-11.6-8.4-11.8 8 4.3-13.7-11.2-8.8 14.3-.1 4.9-13.5 4.5 13.6 14.3.5-11.5 8.5 3.8 13.9z"/><path class="st1" d="M584.1 257.2l-4.5-13.6-4.8 13.5-14.3.1 11.2 8.8-4.3 13.7 11.8-8 11.6 8.3-3.9-13.7 11.5-8.5z"/><path class="st2" d="M507.3 430.2l-7.4-23.3-8.6 22.9-24.3-.1 19 15.3-7.6 23.2 20.3-13.4 19.6 14.5-6.4-23.6 19.7-14.2-24.3-1.3zm3.1 27.3l-11.6-8.4-11.8 8 4.3-13.7-11.2-8.8 14.3-.1 4.9-13.5 4.5 13.6 14.3.5-11.5 8.5 3.8 13.9z"/><path class="st1" d="M503.7 434.7l-4.4-13.7-4.9 13.5-14.3.1 11.2 8.8-4.3 13.7 11.8-8 11.6 8.4-3.9-13.8 11.5-8.5z"/></svg>