<?xml version="1.0" encoding="utf-8"?>
<!-- Generator: Adobe Illustrator 20.0.0, SVG Export Plug-In . SVG Version: 6.00 Build 0)  -->
<svg version="1.1" id="Ebene_1" xmlns="http://www.w3.org/2000/svg" xmlns:xlink="http://www.w3.org/1999/xlink" x="0px" y="0px"
	 viewBox="0 0 640 480" style="enable-background:new 0 0 640 480;" xml:space="preserve">
<style type="text/css">
	.st0{fill:#FF0000;}
	.st1{fill:#006600;}
	.st2{fill:none;stroke:#FFFF00;stroke-width:0;stroke-linecap:round;stroke-linejoin:round;}
	.st3{fill:#FFFF00;}
	.st4{fill:#FFFFFF;}
	.st5{fill:none;stroke:#FF0000;stroke-width:0;stroke-linecap:round;stroke-linejoin:round;}
	.st6{fill:#003399;}
</style>
<g>
	<path class="st0" d="M349.5,291.7l-0.1,0.4l-0.4,0.6c0.2,0,0.4,0,0.6-0.1C349.6,292.3,349.6,292,349.5,291.7z"/>
	<path class="st0" d="M256,1.6v134.1h3.3l0-1.2l0,0v0v0h2.3l0,1.8c33.5,1.8,62.8,19.3,80.9,45.2c1.3,0.6,2.3,1.2,3.2,1.9l2.5,3.9
		c-0.1-0.1-0.1-0.1-0.2-0.2l0.1,0.2v0l0,0c-0.2,0.2-0.5,0.4-0.9,0.6l2,3.4c0.8,0.4,1.3,0.8,1.6,1.1l1.7,3c0,0,0,0,0,0
		c-0.1,0.2-0.6,0.5-1.3,0.8c4.4,9.2,7.5,19.1,9.1,29.5c0.5,3.2,0.8,6.5,1,9.8c0.5,0.5,1.1,0.9,1.5,1.4l0,0.2h0v2.5c0,0,0,0,0,0l0,0
		c0,0,0,0,0,0c-0.3,0.3-0.7,0.6-1.2,1v3.8l0,0.4c0.4,0.4,0.8,0.8,1.2,1.2l0,0.2l0,0v2.5c0,0,0,0,0,0l0,0c0,0,0,0,0,0
		c-0.3,0.4-0.9,0.8-1.6,1.2c-0.3,3.7-0.8,7.3-1.4,10.9c-1.8,9.8-4.9,19-9.2,27.7c0.7,1.5,0.9,2.7,0.4,3.5l0,0v0l-1.3,2
		c-0.2,0.3-0.3,0.5-0.4,0.6c-0.3,0.2-0.8,0.3-1.7,0.2l-6.2,9.6c0.3,0.8,0.3,1.4-0.1,1.9l-1.3,2.1l-0.1,0.1c-0.5,0.8-1.4,0.8-3,0.7
		c-18.2,22-45.2,36.5-75.5,38.1l0,1.9h-2.3l0-1.2H256v133.7h384V1.6H256z"/>
	<path class="st1" d="M158.8,198.9c0,0.1,0,0.2,0.1,0.3l0.2-0.3C159,198.9,158.9,198.9,158.8,198.9z"/>
	<path class="st1" d="M252.7,347.9v1.2h-2.3v-1.9c-26.9-1.4-51.3-13-69.2-31c-4.4-4.4-8.4-9.1-12-14.2c-0.9-0.3-1.7-0.7-2.4-1
		l-1.3-2.2l0,0l0,0c0-0.3,0.2-0.6,0.5-1l-2.7-4.4c-0.4-0.1-0.8-0.3-1.2-0.4l0,0c0,0,0,0,0,0l-1.2-2.2c0-0.5,0.3-0.9,0.7-1.4
		c-6.2-12.1-10.1-25.6-11.2-39.9c-0.6-0.3-1.1-0.5-1.4-0.7l0-0.1c0,0,0,0,0,0v-2.9c0.1-0.4,0.5-0.9,0.9-1.4v-4.3
		c-0.4-0.2-0.7-0.3-0.9-0.5l0-0.1c0,0,0,0,0,0v-2.9c0.2-0.5,0.6-1.1,1.3-1.8c0.7-11.4,3.3-22.3,7.4-32.4c-0.7-1.4-0.8-2.6-0.3-3.4
		l1.2-2.2l0.1,0c0.3-0.2,0.7-0.3,1.2-0.4l5.3-9.8c-0.4-0.9-0.5-1.8-0.2-2.5v0l0.2-0.3l1.3-2.2h0l0.1-0.2c0.7-0.5,1.8-0.8,3.2-0.9
		c2-2.8,4.2-5.5,6.4-8.1c18.3-21.1,44.7-34.9,74.3-36.5v-1.8h0h0h2.3v1.2h3.3V1.6H0v480h256V347.9H252.7z"/>
	<path class="st1" d="M167.1,183.2c-0.2,0-0.4,0.1-0.6,0.2c0,0.2,0.1,0.4,0.1,0.6L167.1,183.2L167.1,183.2z"/>
	<line class="st2" x1="250.4" y1="134.4" x2="250.4" y2="134.4"/>
	<polygon class="st3" points="259.3,134.4 259.3,134.4 259.3,134.4 	"/>
	<path class="st3" d="M252.7,134.4h-2.3v1.8c-29.6,1.5-56,15.4-74.3,36.5c-2.3,2.6-4.4,5.3-6.4,8.1c-1.4,0.1-2.5,0.3-3.2,0.9
		l-0.1,0.2h0l-1.3,2.2l-0.2,0.3v0c-0.3,0.7-0.2,1.5,0.2,2.5l-5.3,9.8c-0.5,0.1-0.9,0.2-1.2,0.4l-0.1,0l-1.2,2.2
		c-0.5,0.9-0.4,2,0.3,3.4c-4.1,10.1-6.6,21-7.4,32.4c-0.7,0.6-1.1,1.2-1.3,1.8v2.9c0,0,0,0,0,0l0,0.1c0.2,0.1,0.5,0.3,0.9,0.5v4.3
		c-0.5,0.5-0.8,0.9-0.9,1.4v2.9c0,0,0,0,0,0l0,0.1c0.3,0.2,0.8,0.4,1.4,0.7c1.1,14.3,5,27.7,11.2,39.9c-0.4,0.5-0.7,1-0.7,1.4
		l1.2,2.2c0,0,0,0,0,0l0,0c0.3,0.1,0.7,0.2,1.2,0.4l2.7,4.4c-0.3,0.4-0.5,0.7-0.5,1l0,0l0,0l1.3,2.2c0.8,0.3,1.6,0.7,2.4,1
		c3.6,5.1,7.6,9.8,12,14.2c17.9,18,42.2,29.5,69.2,31v1.9h2.3v-1.2h3.3h3.4l0,1.2h2.3l0-1.9c30.3-1.6,57.2-16.1,75.5-38.1
		c1.5,0.1,2.4,0.1,3-0.7l0.1-0.1l1.3-2.1c0.3-0.5,0.3-1.1,0.1-1.9l6.2-9.6c0.8,0.1,1.4,0,1.7-0.2c0.1-0.1,0.2-0.3,0.4-0.6l1.3-2v0
		l0,0c0.4-0.9,0.3-2.1-0.4-3.5c4.3-8.6,7.4-17.9,9.2-27.7c0.7-3.6,1.1-7.2,1.4-10.9c0.7-0.4,1.2-0.8,1.6-1.2c0,0,0,0,0,0l0,0
		c0,0,0,0,0,0v-2.5l0,0l0-0.2c-0.3-0.4-0.7-0.8-1.2-1.2l0-0.4v-3.8c0.5-0.3,0.9-0.7,1.2-1c0,0,0,0,0,0l0,0c0,0,0,0,0,0V237h0l0-0.2
		c-0.4-0.5-0.9-1-1.5-1.4c-0.2-3.3-0.5-6.5-1-9.8c-1.6-10.4-4.7-20.3-9.1-29.5c0.7-0.3,1.2-0.6,1.3-0.8c0,0,0,0,0,0l-1.7-3
		c-0.3-0.3-0.9-0.7-1.6-1.1l-2-3.4c0.4-0.2,0.7-0.4,0.9-0.6l0,0v0l-0.1-0.2c0.1,0.1,0.1,0.1,0.2,0.2l-2.5-3.9
		c-0.8-0.6-1.9-1.2-3.2-1.9c-18.1-25.9-47.5-43.4-80.9-45.2l0-1.8h-2.3l0,1.2H256h-3.3V134.4z M158.8,198.9c0.1,0,0.2,0,0.3,0
		l-0.2,0.3C158.9,199.1,158.8,199,158.8,198.9z M319.3,253.4L319.3,253.4c0,17.4-7.1,33.2-18.6,44.7c-11.5,11.5-27.3,18.5-44.8,18.5
		c-17.4,0-33.1-7.3-44.6-18.8c-11.5-11.5-18.6-27.2-18.6-44.5h0h0l0-84.6l126.7,0.1V253.4z M166.6,183.3c0.2-0.1,0.4-0.1,0.6-0.2
		l0,0l-0.4,0.7C166.7,183.7,166.6,183.5,166.6,183.3z M349.4,292.1l0.1-0.4c0.1,0.3,0.1,0.6,0.1,0.9c-0.2,0-0.4,0.1-0.6,0.1
		L349.4,292.1z"/>
	<path class="st4" d="M292.1,196.1L292.1,196.1L292.1,196.1L292.1,196.1l-72.5-0.1l0,57.6c0,9.6,3.9,18.8,10.7,25.5
		c6.6,6.6,15.5,10.8,25.4,10.8c10,0,19.1-4.1,25.7-10.6c5.6-5.6,9.4-12.8,10.4-21c0.2-1.4,0.3-3.1,0.3-4.5l0-5.5L292.1,196.1z
		 M264.2,244.2c0,2.4-0.9,4.5-2.3,6.1c-1.4,1.6-3.5,2.5-5.7,2.5c-2.2,0-4.2-1-5.7-2.5c-1.5-1.7-2.4-3.8-2.4-6.1v0l0,0l0-11.5l16,0
		V244.2z M226,244.2l0-11.5l16,0v11.5c0,2.4-0.9,4.5-2.3,6.1c-1.4,1.6-3.5,2.5-5.7,2.5c-2.2,0-4.2-1-5.7-2.5
		C226.8,248.6,226,246.4,226,244.2L226,244.2L226,244.2z M264.2,271.7c0,2.4-0.9,4.5-2.3,6.1c-1.4,1.6-3.5,2.5-5.7,2.5
		c-2.2,0-4.2-1-5.7-2.5c-1.5-1.7-2.4-3.8-2.4-6.1v0l0,0l0-11.5l16,0V271.7z M286.3,244.2c0,2.4-0.9,4.5-2.3,6.1
		c-1.4,1.6-3.5,2.5-5.7,2.5c-2.2,0-4.2-1-5.7-2.5c-1.5-1.7-2.4-3.8-2.4-6.1v0l0,0l0-11.5l16,0V244.2z M264.2,216.4
		c0,2.4-0.9,4.5-2.3,6.1c-1.4,1.6-3.5,2.5-5.7,2.5c-2.2,0-4.2-1-5.7-2.5c-1.5-1.7-2.4-3.8-2.4-6.1v0l0,0l0-11.5l16,0V216.4z"/>
	<path class="st4" d="M192.6,168.8l0,84.6h0h0c0,17.4,7.1,33.1,18.6,44.5c11.5,11.5,27.2,18.8,44.6,18.8c17.5,0,33.3-7.1,44.8-18.5
		c11.5-11.5,18.6-27.3,18.6-44.7h0v-84.5L192.6,168.8z M316.5,253.6L316.5,253.6c0,16.7-6.8,31.8-17.8,42.7
		c-11,10.9-26.2,17.7-42.9,17.7c-16.6,0-31.9-6.8-42.9-17.8c-11-11-17.9-26.1-17.9-42.7v0h0l0.1-81.9l121.4,0V253.6z"/>
	<line class="st5" x1="292.1" y1="196.1" x2="292.1" y2="196.1"/>
	<path class="st0" d="M308.7,240.3c-0.2-1.4-0.8-2.3-1.4-3.1C307.9,238,308.4,239,308.7,240.3z"/>
	<path class="st0" d="M308.7,190.9c-0.2-1.4-0.8-2.3-1.4-3.1C307.9,188.6,308.4,189.6,308.7,190.9z"/>
	<path class="st0" d="M195.1,171.6l-0.1,81.9h0v0c0,16.6,6.9,31.7,17.9,42.7c11,11,26.3,17.8,42.9,17.8c16.7,0,31.9-6.8,42.9-17.7
		c11-10.9,17.8-26.1,17.8-42.7h0v-81.9L195.1,171.6z M309.5,177.5v-0.9l1.3,0v1h0.9v-0.9l1.3,0l0,2.1c0,0.3-0.3,0.6-0.6,0.6h-4.6
		c-0.3,0-0.6-0.2-0.6-0.6l0-2.1l1.3,0v1H309.5z M306.8,182.9l-4.6,0l0.3-6.9h0l4,0L306.8,182.9z M301.1,183h-4.4l0.1-3.7h0h0h0h0
		h4.1L301.1,183z M215.1,183h-4.4l0.1-3.7h4.1h0h0L215.1,183z M209.6,182.9l-4.6,0l0.3-6.9l4,0h0L209.6,182.9z M198.7,176.6l1.3,0
		v0.9h0.9v-1l1.3,0v0.9h0.9v-1l1.3,0l0,2.1c0,0.3-0.3,0.6-0.6,0.6h-4.6c-0.3,0-0.6-0.3-0.6-0.6L198.7,176.6L198.7,176.6z
		 M212.3,177.5v-1l1.3,0v0.9h0.9v-1l1.3,0l0,2.1c0,0.3-0.3,0.6-0.6,0.6h-4.6c-0.3,0-0.6-0.3-0.6-0.6l0-2.1l1.3,0v0.9H212.3z
		 M248.3,179.3h4.1h0h0l0.1,3.7h-4.4L248.3,179.3z M264.7,183c0.4,0,0.7,0.3,0.7,0.8s-0.3,0.8-0.7,0.8h-17.3c-0.4,0-0.7-0.3-0.7-0.8
		c0-0.4,0.3-0.8,0.7-0.8v0H264.7z M258.3,182.9l-4.6,0l0.3-6.9l4,0h0L258.3,182.9z M247,192.6L247,192.6L247,192.6h4.7c0,0,0,0,0,0
		l-4.4,0l0.7-6.6h-0.3c-0.3,0-0.6-0.3-0.6-0.8c0-0.4,0.3-0.8,0.6-0.8h16.6c0.3,0,0.6,0.3,0.6,0.8c0,0.4-0.3,0.8-0.6,0.8h-0.2
		l0.8,6.6h-4.4c0,0,0,0,0,0h4.6c0.4,0,0.7,0.4,0.7,0.8c0,0.5-0.3,0.8-0.7,0.8H247c-0.4,0-0.7-0.4-0.7-0.8
		C246.3,193,246.6,192.6,247,192.6z M263.9,183h-4.4l0.1-3.7h4.1h0h0h0h0L263.9,183z M301.7,178.7c0,0.3-0.3,0.6-0.6,0.6h-4.6
		c-0.3,0-0.6-0.2-0.6-0.6l0-2.1l1.3,0v1h0.9v-0.9l1.3,0v1h0.9v-0.9l1.3,0L301.7,178.7z M260.1,176.6v0.9h0.9v-1l1.3,0v0.9h0.9v-1
		l1.3,0l0,2.1c0,0.3-0.3,0.6-0.6,0.6h-4.6c-0.3,0-0.6-0.3-0.6-0.6l0-2.1L260.1,176.6z M253.1,173.2l1.3,0v0.9h1v-0.9l1.3,0v0.9h1
		v-0.9h1.3l0,2.1c0,0.3-0.3,0.6-0.6,0.6h-4.7c-0.3,0-0.6-0.3-0.6-0.6L253.1,173.2L253.1,173.2z M249.7,177.5v-1l1.3,0v0.9h0.9v-1
		l1.3,0l0,2.1c0,0.3-0.3,0.6-0.6,0.6h-4.6c-0.3,0-0.6-0.3-0.6-0.6l0-2.1l1.3,0v0.9H249.7z M204.3,173.2L204.3,173.2l1.3,0v0.9h1
		v-0.9l1.3,0v0.9h1v-0.9h1.3l0,2.1c0,0.3-0.3,0.6-0.6,0.6H205c-0.3,0-0.6-0.3-0.6-0.6L204.3,173.2z M199.5,179.3h4.1h0h0l0.1,3.7
		h-4.4L199.5,179.3z M198,183.7c0-0.4,0.3-0.8,0.7-0.8l0,0H216c0.4,0,0.7,0.3,0.7,0.8s-0.3,0.8-0.7,0.8h-17.3
		C198.3,184.5,198,184.1,198,183.7z M199.2,186H199c-0.3,0-0.6-0.3-0.6-0.8c0-0.4,0.3-0.8,0.6-0.8h0h0h16.6c0.3,0,0.6,0.3,0.6,0.8
		c0,0.4-0.3,0.8-0.6,0.8h-0.2l0.8,6.6h-4.4c0,0,0,0,0,0h4.6c0.4,0,0.7,0.4,0.7,0.8c0,0.5-0.3,0.8-0.7,0.8h-18.1
		c-0.4,0-0.7-0.4-0.7-0.8c0-0.5,0.3-0.8,0.7-0.8h4.7c0,0,0,0,0,0l-4.4,0L199.2,186z M215.2,228.7h-4.6c-0.3,0-0.6-0.3-0.6-0.6l0-2.1
		l1.3,0v0.9h0.9v-1l1.3,0v0.9h0.9v-1l1.3,0l0,2.1C215.8,228.4,215.5,228.7,215.2,228.7z M198,233.1c0-0.4,0.3-0.8,0.7-0.8l0,0H216
		c0.4,0,0.7,0.3,0.7,0.8c0,0.4-0.3,0.8-0.7,0.8h-17.3C198.3,233.9,198,233.5,198,233.1z M205.3,225.5l4,0h0l0.3,6.9l-4.6,0
		L205.3,225.5z M200.9,226.9v-1l1.3,0v0.9h0.9v-1l1.3,0l0,2.1c0,0.3-0.3,0.6-0.6,0.6h-4.6c-0.3,0-0.6-0.3-0.6-0.6l0-2.1h0l1.3,0v0.9
		H200.9z M206.6,223.5v-0.9l1.3,0v0.9h1v-0.9h1.3l0,2.1c0,0.3-0.3,0.6-0.6,0.6H205c-0.3,0-0.6-0.3-0.6-0.6l0-2.1l0,0l1.3,0v0.9
		H206.6z M215.1,232.4h-4.4l0.1-3.7h4.1h0h0L215.1,232.4z M199.5,228.7h4.1h0h0l0.1,3.7h-4.4L199.5,228.7z M199,235.4
		c-0.3,0-0.6-0.3-0.6-0.8c0-0.4,0.3-0.8,0.6-0.8h0h0h16.6c0.3,0,0.6,0.3,0.6,0.8c0,0.4-0.3,0.8-0.6,0.8h-0.2l0.8,6.6h-4.4
		c0,0,0,0,0,0h4.6c0.4,0,0.7,0.4,0.7,0.8c0,0.5-0.3,0.8-0.7,0.8h-18.1c-0.4,0-0.7-0.4-0.7-0.8c0-0.5,0.3-0.8,0.7-0.8h4.7
		c0,0,0,0,0,0l-4.4,0l0.7-6.6H199z M221.1,274.6c0.2,0.2,0.2,0.6,0,0.8l-3.2,3.3c-0.2,0.2-0.6,0.2-0.8,0l-1.5-1.5v0l0.9-0.9l0.7,0.7
		l0.7-0.7l-0.7-0.7l0.9-0.9l0.7,0.7l0.7-0.7l-0.7-0.7l0.9-0.9L221.1,274.6z M218,278.5l2.9-2.9l0,0l0,0l0,0v0l2.7,2.5l-3.1,3.1
		L218,278.5z M219.7,282l-3.2,3.2l-4.7-5.1l2.8-2.8l0,0L219.7,282z M211.7,276.3l0.7,0.7l0.7-0.7l-0.7-0.7l0.9-1l1.5,1.5
		c0.2,0.2,0.2,0.6,0,0.8l-3.3,3.3c-0.2,0.2-0.6,0.3-0.8,0l-1.5-1.5l0,0l0.9-0.9l0.7,0.7l0.7-0.7l-0.7-0.7L211.7,276.3z M209.1,286.7
		l-1.5-1.5l0.9-0.9l0.7,0.7l0.7-0.7l-0.7-0.7l0.9-0.9l0.7,0.7l0.7-0.7l-0.7-0.7l0.9-0.9l1.5,1.5c0.2,0.2,0.2,0.6,0,0.8l-3.2,3.3
		C209.7,286.9,209.3,286.9,209.1,286.7z M213,283.6L213,283.6l2.7,2.5l-3.1,3.1l-2.5-2.7L213,283.6z M212.1,290.8
		c-0.3-0.3-0.3-0.7-0.1-1l0,0l12.2-12.3c0.3-0.3,0.7-0.2,1,0.1c0.3,0.3,0.3,0.7,0.1,1l-12.2,12.3
		C212.9,291.1,212.4,291.1,212.1,290.8z M218.7,297.9c-0.3-0.3-0.4-0.8-0.1-1.1v0l3.3-3.3c0,0,0,0,0,0l-3.1,3.1l-4.2-5.1l-0.2,0.2
		c-0.2,0.2-0.7,0.2-1-0.1c-0.3-0.3-0.3-0.7-0.1-1l11.7-11.8c0.2-0.2,0.7-0.2,1,0.1c0.3,0.3,0.3,0.7,0.1,1l-0.2,0.2l5.2,4.1l-3.1,3.1
		c0,0,0,0,0,0l3.3-3.3c0.3-0.3,0.8-0.2,1.1,0.1c0.3,0.3,0.4,0.8,0.1,1.1L219.8,298C219.5,298.3,219,298.2,218.7,297.9z M298.3,291.6
		c-0.3,0.3-0.7,0.3-1,0.1l-0.2-0.2l-4.2,5.1l-3.1-3.1c0,0,0,0,0,0l3.3,3.3v0c0.3,0.3,0.2,0.8-0.1,1.1c-0.3,0.3-0.8,0.4-1.1,0.1
		l-12.7-12.8c-0.3-0.3-0.2-0.8,0.1-1.1c0.3-0.3,0.8-0.4,1.1-0.1l3.3,3.3c0,0,0,0,0,0l-3.1-3.1l5.2-4.1l-0.2-0.2
		c-0.2-0.2-0.2-0.7,0.1-1c0.3-0.3,0.7-0.3,1-0.1l11.7,11.8C298.7,290.8,298.6,291.3,298.3,291.6z M290.7,275.4
		c-0.2-0.2-0.2-0.6,0-0.8l1.5-1.5l0.9,0.9l-0.7,0.7l0.7,0.7l0.7-0.7l0.9,0.9l-0.7,0.7l0.7,0.7l0.7-0.7l0.9,0.9v0l-1.5,1.5
		c-0.2,0.2-0.6,0.2-0.8,0L290.7,275.4z M301.1,277.2l-0.7,0.7l0.7,0.7l0.7-0.7l0.9,0.9l0,0l-1.5,1.5c-0.2,0.2-0.6,0.2-0.8,0
		l-3.3-3.3c-0.2-0.2-0.3-0.6,0-0.8l1.5-1.5l0.9,1l-0.7,0.7l0.7,0.7l0.7-0.7L301.1,277.2z M298.8,283.6L298.8,283.6L298.8,283.6
		l2.9,2.9l-2.5,2.7l-3.1-3.1L298.8,283.6L298.8,283.6z M290.8,275.5L290.8,275.5L290.8,275.5L290.8,275.5l2.9,2.9l-2.5,2.7l-3.1-3.1
		L290.8,275.5L290.8,275.5z M299.7,289.8L299.7,289.8c0.3,0.3,0.2,0.7-0.1,1c-0.3,0.3-0.7,0.3-1,0.1l-12.2-12.3
		c-0.3-0.3-0.2-0.7,0.1-1c0.3-0.3,0.7-0.3,1-0.1L299.7,289.8z M295.3,285.2L292,282l5.1-4.6l0,0l2.8,2.8L295.3,285.2z M302.7,284.9
		l0.7-0.7l0.9,0.9l-1.5,1.5c-0.2,0.2-0.6,0.2-0.8,0l-3.2-3.3c-0.2-0.2-0.2-0.6,0-0.8l1.5-1.5l0.9,0.9l-0.7,0.7l0.7,0.7l0.7-0.7
		l0.9,0.9l-0.7,0.7L302.7,284.9z M294.8,242.8c0-0.5,0.3-0.8,0.7-0.8h4.6c0,0,0,0,0,0h-4.4l0.8-6.6h-0.2c-0.3,0-0.6-0.3-0.6-0.8
		c0-0.4,0.3-0.8,0.6-0.8h16.6c0.3,0,0.6,0.3,0.6,0.8c0,0.4-0.3,0.8-0.6,0.8h-0.3l0.7,6.6l-4.4,0c0,0,0,0,0,0h4.7h0h0
		c0.4,0,0.7,0.4,0.7,0.8c0,0.5-0.3,0.8-0.7,0.8h-18.1C295.1,243.7,294.8,243.3,294.8,242.8z M296,228.1l0-2.1l1.3,0v1h0.9V226l1.3,0
		v1h0.9V226l1.3,0l0,2.1c0,0.3-0.3,0.6-0.6,0.6h-4.6C296.2,228.7,296,228.4,296,228.1z M303.8,223.5v-0.9l1.3,0v0.9h1v-0.9l1.3,0
		l0,0l0,2.1c0,0.3-0.3,0.6-0.6,0.6h-4.7c-0.3,0-0.6-0.2-0.6-0.6l0-2.1h1.3v0.9H303.8z M309.5,226.9V226l1.3,0v1h0.9V226l1.3,0l0,2.1
		c0,0.3-0.3,0.6-0.6,0.6h-4.6c-0.3,0-0.6-0.2-0.6-0.6l0-2.1l1.3,0v1H309.5z M306.8,232.3l-4.6,0l0.3-6.9h0l4,0L306.8,232.3z
		 M313.2,232.4L313.2,232.4c0.4,0,0.7,0.3,0.7,0.8c0,0.4-0.3,0.8-0.7,0.8h-17.3c-0.4,0-0.7-0.3-0.7-0.8c0-0.4,0.3-0.8,0.7-0.8H313.2
		z M296.8,228.7L296.8,228.7L296.8,228.7L296.8,228.7h4.1l0.1,3.7h-4.4L296.8,228.7L296.8,228.7z M312.4,232.4H308l0.1-3.7h0h0h4.1
		L312.4,232.4z M292.1,248.3l0,5.5c0,1.5-0.1,3.1-0.3,4.5c-1,8.2-4.8,15.4-10.4,21c-6.6,6.5-15.6,10.6-25.7,10.6
		c-9.9,0-18.8-4.2-25.4-10.8c-6.8-6.7-10.7-16-10.7-25.5l0-57.6l72.5,0.1v0L292.1,248.3z M313.5,194.3h-18.1c-0.4,0-0.7-0.4-0.7-0.8
		c0-0.5,0.3-0.8,0.7-0.8h4.6c0,0,0,0,0,0h-4.4l0.8-6.6h-0.2c-0.3,0-0.6-0.3-0.6-0.8c0-0.4,0.3-0.8,0.6-0.8h16.6
		c0.3,0,0.6,0.3,0.6,0.8c0,0.4-0.3,0.8-0.6,0.8h-0.3l0.7,6.6l-4.4,0c0,0,0,0,0,0h4.7h0h0c0.4,0,0.7,0.4,0.7,0.8
		C314.2,193.9,313.9,194.3,313.5,194.3z M313.8,183.7c0,0.4-0.3,0.8-0.7,0.8h-17.3c-0.4,0-0.7-0.3-0.7-0.8s0.3-0.8,0.7-0.8h17.3v0
		C313.5,183,313.8,183.3,313.8,183.7z M312.4,183H308l0.1-3.7h0h0h4.1L312.4,183z M307.4,175.3c0,0.3-0.3,0.6-0.6,0.6h-4.7
		c-0.3,0-0.6-0.2-0.6-0.6l0-2.1h1.3v0.9h1v-0.9l1.3,0v0.9h1v-0.9l1.3,0l0,0L307.4,175.3z"/>
	<path class="st0" d="M220.9,292.2c-0.7-1.1-1.1-2.2-1.2-3.1C219.7,290,220.1,291.1,220.9,292.2z"/>
	<path class="st0" d="M204.5,187.9c-0.6,0.7-1.1,1.7-1.4,3.1C203.4,189.6,203.9,188.6,204.5,187.9z"/>
	<path class="st0" d="M204.5,237.3c-0.6,0.7-1.1,1.7-1.4,3.1C203.4,239,203.9,238,204.5,237.3z"/>
	<path class="st0" d="M290.9,292.2c0.8-1.1,1.1-2.2,1.2-3.1C292,290,291.7,291.1,290.9,292.2z"/>
	<path class="st0" d="M253.2,187.9c-0.6,0.7-1.1,1.7-1.4,3.1C252.2,189.6,252.7,188.6,253.2,187.9z"/>
	<path class="st3" d="M202.9,192.6C202.9,192.6,202.9,192.6,202.9,192.6l-4.7,0c-0.4,0-0.7,0.4-0.7,0.8c0,0.5,0.3,0.8,0.7,0.8h18.1
		c0.4,0,0.7-0.4,0.7-0.8c0-0.5-0.3-0.8-0.7-0.8h-4.6c0,0,0,0,0,0h4.4l-0.8-6.6h0.2c0.3,0,0.6-0.3,0.6-0.8c0-0.4-0.3-0.8-0.6-0.8H199
		c-0.3,0-0.6,0.3-0.6,0.8c0,0.4,0.3,0.8,0.6,0.8h0.3l-0.7,6.6L202.9,192.6z M203.1,190.9c0.2-1.4,0.8-2.3,1.4-3.1
		C203.9,188.6,203.4,189.6,203.1,190.9z"/>
	<line class="st2" x1="199" y1="184.5" x2="199" y2="184.5"/>
	<path class="st3" d="M198.6,184.5H216c0.4,0,0.7-0.3,0.7-0.8s-0.3-0.8-0.7-0.8h-17.3l0,0c-0.4,0-0.7,0.3-0.7,0.8
		C198,184.1,198.3,184.5,198.6,184.5z"/>
	<path class="st3" d="M204.3,175.3c0,0.3,0.3,0.6,0.6,0.6h4.7c0.3,0,0.6-0.2,0.6-0.6l0-2.1h-1.3v0.9h-1v-0.9l-1.3,0v0.9h-1v-0.9
		l-1.3,0l0,0L204.3,175.3z"/>
	<path class="st3" d="M209.3,176.1L209.3,176.1l-4,0l-0.3,6.9l4.6,0L209.3,176.1z M206.8,178.2c0-0.7,0.9-0.7,0.9,0v1.6h-0.9V178.2z
		"/>
	<line class="st2" x1="203.7" y1="179.3" x2="203.7" y2="179.3"/>
	<path class="st3" d="M203.8,183l-0.1-3.7h-4.1l-0.1,3.7H203.8z M202,180.6v1.3h-0.9v-1.3C201.1,180,202,180,202,180.6z"/>
	<line class="st2" x1="215" y1="179.3" x2="215" y2="179.3"/>
	<path class="st3" d="M215,179.3h-4.1l-0.1,3.7h4.4L215,179.3z M212.5,180.6c0-0.6,0.9-0.7,0.9,0v1.3h-0.9V180.6z"/>
	<path class="st3" d="M199.3,179.2h4.6c0.3,0,0.6-0.2,0.6-0.6l0-2.1l-1.3,0v1h-0.9v-0.9l-1.3,0v1H200v-0.9l-1.3,0h0l0,2.1
		C198.7,179,199,179.2,199.3,179.2z"/>
	<path class="st3" d="M210,176.6l0,2.1c0,0.3,0.3,0.6,0.6,0.6h4.6c0.3,0,0.6-0.2,0.6-0.6l0-2.1l-1.3,0v1h-0.9v-0.9l-1.3,0v1h-0.9
		v-0.9L210,176.6z"/>
	<path d="M207.8,178.2c0-0.7-1-0.7-0.9,0v1.6h0.9V178.2z"/>
	<path d="M201.1,181.9h0.9v-1.3c0-0.7-0.9-0.6-0.9,0V181.9z"/>
	<path d="M213.4,181.9v-1.3c0-0.7-0.9-0.6-0.9,0v1.3H213.4z"/>
	<path class="st3" d="M198.5,242l4.4,0c0,0,0,0,0,0h-4.7c-0.4,0-0.7,0.4-0.7,0.8c0,0.5,0.3,0.8,0.7,0.8h18.1c0.4,0,0.7-0.4,0.7-0.8
		c0-0.5-0.3-0.8-0.7-0.8h-4.6c0,0,0,0,0,0h4.4l-0.8-6.6h0.2c0.3,0,0.6-0.3,0.6-0.8c0-0.4-0.3-0.8-0.6-0.8H199
		c-0.3,0-0.6,0.3-0.6,0.8c0,0.4,0.3,0.8,0.6,0.8h0.3L198.5,242z M204.5,237.3c-0.6,0.8-1.1,1.8-1.4,3.1
		C203.4,239,203.9,238,204.5,237.3z"/>
	<line class="st2" x1="199" y1="233.9" x2="199" y2="233.9"/>
	<path class="st3" d="M209.3,225.5L209.3,225.5l-4,0l-0.3,6.9l4.6,0L209.3,225.5z M206.8,227.6c0-0.7,0.9-0.7,0.9,0v1.6h-0.9V227.6z
		"/>
	<path class="st3" d="M216,233.9c0.4,0,0.7-0.3,0.7-0.8c0-0.4-0.3-0.8-0.7-0.8h-17.3l0,0c-0.4,0-0.7,0.3-0.7,0.8
		c0,0.4,0.3,0.8,0.7,0.8H216z"/>
	<path class="st3" d="M204.3,222.6L204.3,222.6l0,2.1c0,0.3,0.3,0.6,0.6,0.6h4.7c0.3,0,0.6-0.2,0.6-0.6l0-2.1h-1.3v0.9h-1v-0.9
		l-1.3,0v0.9h-1v-0.9L204.3,222.6z"/>
	<line class="st2" x1="203.7" y1="228.7" x2="203.7" y2="228.7"/>
	<path class="st3" d="M199.4,232.4h4.4l-0.1-3.7h-4.1L199.4,232.4z M202,231.3h-0.9V230c0-0.6,0.9-0.7,0.9,0V231.3z"/>
	<line class="st2" x1="215" y1="228.7" x2="215" y2="228.7"/>
	<path class="st3" d="M210.8,228.7l-0.1,3.7h4.4l-0.1-3.7H210.8z M213.4,230v1.3h-0.9V230C212.5,229.4,213.4,229.4,213.4,230z"/>
	<path class="st3" d="M198.7,226L198.7,226l0,2.1c0,0.3,0.3,0.6,0.6,0.6h4.6c0.3,0,0.6-0.2,0.6-0.6l0-2.1l-1.3,0v1h-0.9V226l-1.3,0
		v1H200V226L198.7,226z"/>
	<path class="st3" d="M215.8,226l-1.3,0v1h-0.9V226l-1.3,0v1h-0.9V226l-1.3,0l0,2.1c0,0.3,0.3,0.6,0.6,0.6h4.6
		c0.3,0,0.6-0.2,0.6-0.6L215.8,226z"/>
	<path d="M207.8,229.3v-1.6c0-0.7-1-0.7-0.9,0v1.6H207.8z"/>
	<path d="M201.1,230v1.3h0.9V230C202,229.4,201.1,229.4,201.1,230z"/>
	<path d="M212.5,230v1.3h0.9V230C213.4,229.4,212.5,229.4,212.5,230z"/>
	<path class="st3" d="M232.4,284.1c-0.3-0.3-0.8-0.4-1.1-0.1l-3.3,3.3c0,0,0,0,0,0l3.1-3.1l-5.2-4.1l0.2-0.2c0.2-0.2,0.2-0.7-0.1-1
		c-0.3-0.3-0.7-0.3-1-0.1l-11.7,11.8c-0.2,0.2-0.2,0.7,0.1,1c0.3,0.3,0.7,0.3,1,0.1l0.2-0.2l4.2,5.1l3.1-3.1c0,0,0,0,0,0l-3.3,3.3v0
		c-0.3,0.3-0.2,0.8,0.1,1.1s0.8,0.4,1.1,0.1l12.7-12.8C232.8,284.9,232.7,284.4,232.4,284.1z M219.6,289.1c0.1,0.9,0.5,2,1.2,3.1
		C220.1,291.1,219.7,290,219.6,289.1z"/>
	<path class="st3" d="M214.6,277.4l-2.8,2.8l4.7,5.1l3.2-3.2L214.6,277.4L214.6,277.4z M215.1,280l1.2,1.2l-0.7,0.7l-1.2-1.2
		C214,280.2,214.6,279.5,215.1,280z"/>
	<path class="st3" d="M211.4,277.9l-0.7,0.7l-0.7-0.7l-0.9,0.9l0,0l1.5,1.5c0.2,0.2,0.6,0.2,0.8,0l3.3-3.3c0.2-0.2,0.3-0.6,0-0.8
		l-1.5-1.5l-0.9,1l0.7,0.7l-0.7,0.7l-0.7-0.7l-0.9,0.9L211.4,277.9z"/>
	<path class="st3" d="M225.3,278.5c0.3-0.3,0.2-0.7-0.1-1c-0.3-0.3-0.7-0.3-1-0.1L212,289.8l0,0c-0.3,0.3-0.2,0.7,0.1,1
		c0.3,0.3,0.7,0.3,1,0.1L225.3,278.5z"/>
	<path class="st3" d="M215.7,286.1l-2.7-2.5l0,0l-2.9,2.9l2.5,2.7L215.7,286.1z M212.8,285.7l0.9,0.9l-0.6,0.6l-0.9-0.9
		C211.7,285.9,212.3,285.2,212.8,285.7z"/>
	<polygon class="st3" points="220.9,275.5 220.9,275.5 220.9,275.5 	"/>
	<path class="st3" d="M223.7,278.1l-2.7-2.5v0l-2.9,2.9l2.5,2.7L223.7,278.1z M220.8,277.7l0.9,0.9l-0.6,0.6l-0.9-0.9
		C219.7,277.8,220.3,277.2,220.8,277.7z"/>
	<path class="st3" d="M213.1,283.4c0.2-0.2,0.2-0.6,0-0.8l-1.5-1.5l-0.9,0.9l0.7,0.7l-0.7,0.7l-0.7-0.7l-0.9,0.9l0.7,0.7l-0.7,0.7
		l-0.7-0.7l-0.9,0.9l1.5,1.5c0.2,0.2,0.6,0.2,0.8,0L213.1,283.4z"/>
	<path class="st3" d="M218.7,274l0.7,0.7l-0.7,0.7l-0.7-0.7l-0.9,0.9l0.7,0.7l-0.7,0.7l-0.7-0.7l-0.9,0.9v0l1.5,1.5
		c0.2,0.2,0.6,0.2,0.8,0l3.2-3.3c0.2-0.2,0.2-0.6,0-0.8l-1.5-1.5L218.7,274z"/>
	<path d="M214.5,280.6l1.2,1.2l0.7-0.7l-1.2-1.2C214.6,279.5,214,280.2,214.5,280.6z"/>
	<path d="M213.7,286.6l-0.9-0.9c-0.5-0.5-1.1,0.2-0.6,0.6l0.9,0.9L213.7,286.6z"/>
	<path d="M221.7,278.5l-0.9-0.9c-0.5-0.5-1.1,0.2-0.6,0.6l0.9,0.9L221.7,278.5z"/>
	<line class="st2" x1="247" y1="192.6" x2="247" y2="192.6"/>
	<path class="st3" d="M247,194.3h18.1c0.4,0,0.7-0.4,0.7-0.8c0-0.5-0.3-0.8-0.7-0.8h-4.6c0,0,0,0,0,0h4.4l-0.8-6.6h0.2
		c0.3,0,0.6-0.3,0.6-0.8c0-0.4-0.3-0.8-0.6-0.8h-16.6c-0.3,0-0.6,0.3-0.6,0.8c0,0.4,0.3,0.8,0.6,0.8h0.3l-0.7,6.6l4.4,0c0,0,0,0,0,0
		H247c-0.4,0-0.7,0.4-0.7,0.8C246.3,193.9,246.6,194.3,247,194.3z M253.2,187.9c-0.6,0.8-1.1,1.8-1.4,3.1
		C252.1,189.6,252.6,188.6,253.2,187.9z"/>
	<path class="st3" d="M246.7,183.7c0,0.4,0.3,0.8,0.7,0.8h17.3c0.4,0,0.7-0.3,0.7-0.8s-0.3-0.8-0.7-0.8h-17.3v0
		C247,183,246.7,183.3,246.7,183.7z"/>
	<path class="st3" d="M258,176.1L258,176.1l-4,0l-0.3,6.9l4.6,0L258,176.1z M256.5,179.9h-0.9v-1.6c0-0.7,0.9-0.7,0.9,0V179.9z"/>
	<path class="st3" d="M253.7,175.9h4.7c0.3,0,0.6-0.2,0.6-0.6l0-2.1h-1.3v0.9h-1v-0.9l-1.3,0v0.9h-1v-0.9l-1.3,0l0,0l0,2.1
		C253.1,175.6,253.4,175.9,253.7,175.9z"/>
	<line class="st2" x1="252.4" y1="179.3" x2="252.4" y2="179.3"/>
	<path class="st3" d="M252.6,183l-0.1-3.7h-4.1l-0.1,3.7H252.6z M249.9,181.9v-1.3c0-0.6,0.9-0.7,0.9,0v1.3H249.9z"/>
	<polyline class="st2" points="263.7,179.3 263.7,179.3 263.8,179.3 	"/>
	<path class="st3" d="M263.7,179.3h-4.1l-0.1,3.7h4.4L263.7,179.3z M262.1,181.9h-0.9v-1.3c0-0.6,0.9-0.7,0.9,0V181.9z"/>
	<path class="st3" d="M247.5,176.6l0,2.1c0,0.3,0.3,0.6,0.6,0.6h4.6c0.3,0,0.6-0.2,0.6-0.6l0-2.1l-1.3,0v1H251v-0.9l-1.3,0v1h-0.9
		v-0.9L247.5,176.6z"/>
	<path class="st3" d="M258.8,178.7c0,0.3,0.3,0.6,0.6,0.6h4.6c0.3,0,0.6-0.2,0.6-0.6l0-2.1l-1.3,0v1h-0.9v-0.9l-1.3,0v1h-0.9v-0.9
		l-1.3,0L258.8,178.7z"/>
	<path d="M256.5,178.2c0-0.7-1-0.7-0.9,0v1.6h0.9V178.2z"/>
	<path d="M250.8,180.6c0-0.7-0.9-0.6-0.9,0v1.3h0.9V180.6z"/>
	<path d="M261.3,180.6v1.3h0.9v-1.3C262.1,180,261.3,180,261.3,180.6z"/>
	<line class="st2" x1="313.5" y1="192.6" x2="313.5" y2="192.6"/>
	<path class="st3" d="M314.2,193.4c0-0.5-0.3-0.8-0.7-0.8h-4.7c0,0,0,0,0,0l4.4,0l-0.7-6.6h0.3c0.3,0,0.6-0.3,0.6-0.8
		c0-0.4-0.3-0.8-0.6-0.8h-16.6c-0.3,0-0.6,0.3-0.6,0.8c0,0.4,0.3,0.8,0.6,0.8h0.2l-0.8,6.6h4.4c0,0,0,0,0,0h-4.6
		c-0.4,0-0.7,0.4-0.7,0.8c0,0.5,0.3,0.8,0.7,0.8h18.1C313.9,194.3,314.2,193.9,314.2,193.4z M307.3,187.9c0.6,0.7,1.1,1.7,1.4,3.1
		C308.4,189.6,307.9,188.6,307.3,187.9z"/>
	<path class="st3" d="M306.5,176l-4,0h0l-0.3,6.9l4.6,0L306.5,176z M304,178.2c0-0.7,1-0.7,0.9,0v1.6H304V178.2z"/>
	<path class="st3" d="M307.4,173.2l-1.3,0v0.9h-1v-0.9l-1.3,0v0.9h-1v-0.9h-1.3l0,2.1c0,0.3,0.3,0.6,0.6,0.6h4.7
		c0.3,0,0.6-0.3,0.6-0.6L307.4,173.2L307.4,173.2z"/>
	<path class="st3" d="M313.2,183L313.2,183l-17.3,0c-0.4,0-0.7,0.3-0.7,0.8s0.3,0.8,0.7,0.8h17.3c0.4,0,0.7-0.3,0.7-0.8
		C313.8,183.3,313.5,183,313.2,183z"/>
	<line class="st2" x1="308.1" y1="179.3" x2="308.1" y2="179.3"/>
	<path class="st3" d="M308.1,179.3L308,183h4.4l-0.1-3.7H308.1z M310.6,181.9h-0.9v-1.3c0-0.7,0.9-0.6,0.9,0V181.9z"/>
	<polyline class="st2" points="296.8,179.3 296.8,179.3 296.8,179.3 	"/>
	<path class="st3" d="M296.8,179.3l-0.1,3.7h4.4l-0.1-3.7H296.8z M299.3,181.9h-0.9v-1.3c0-0.7,0.9-0.6,0.9,0V181.9z"/>
	<path class="st3" d="M307.3,176.5l0,2.1c0,0.3,0.3,0.6,0.6,0.6h4.6c0.3,0,0.6-0.3,0.6-0.6l0-2.1l-1.3,0v0.9h-0.9v-1l-1.3,0v0.9
		h-0.9v-1L307.3,176.5z"/>
	<path class="st3" d="M300.5,177.5h-0.9v-1l-1.3,0v0.9h-0.9v-1l-1.3,0l0,2.1c0,0.3,0.3,0.6,0.6,0.6h4.6c0.3,0,0.6-0.3,0.6-0.6l0-2.1
		l-1.3,0V177.5z"/>
	<path d="M305,178.2c0-0.7-0.9-0.7-0.9,0v1.6h0.9V178.2z"/>
	<path d="M309.8,180.6v1.3h0.9v-1.3C310.6,180,309.7,180,309.8,180.6z"/>
	<path d="M298.4,180.6v1.3h0.9v-1.3C299.3,180,298.4,180,298.4,180.6z"/>
	<line class="st2" x1="313.5" y1="242" x2="313.5" y2="242"/>
	<path class="st3" d="M295.5,243.7h18.1c0.4,0,0.7-0.4,0.7-0.8c0-0.5-0.3-0.8-0.7-0.8h-4.7c0,0,0,0,0,0l4.4,0l-0.7-6.6h0.3
		c0.3,0,0.6-0.3,0.6-0.8c0-0.4-0.3-0.8-0.6-0.8h-16.6c-0.3,0-0.6,0.3-0.6,0.8c0,0.4,0.3,0.8,0.6,0.8h0.2l-0.8,6.6h4.4c0,0,0,0,0,0
		h-4.6c-0.4,0-0.7,0.4-0.7,0.8C294.8,243.3,295.1,243.7,295.5,243.7z M307.3,237.3c0.6,0.7,1.1,1.7,1.4,3.1
		C308.4,239,307.9,238,307.3,237.3z"/>
	<path class="st3" d="M295.2,233.1c0,0.4,0.3,0.8,0.7,0.8h17.3c0.4,0,0.7-0.3,0.7-0.8c0-0.4-0.3-0.8-0.7-0.8v0h-17.3
		C295.5,232.4,295.2,232.7,295.2,233.1z"/>
	<path class="st3" d="M301.5,222.6l0,2.1c0,0.3,0.3,0.6,0.6,0.6h4.7c0.3,0,0.6-0.3,0.6-0.6l0-2.1l0,0l-1.3,0v0.9h-1v-0.9l-1.3,0v0.9
		h-1v-0.9H301.5z"/>
	<path class="st3" d="M306.5,225.5l-4,0h0l-0.3,6.9l4.6,0L306.5,225.5z M304,227.6c0-0.7,1-0.7,0.9,0v1.6H304V227.6z"/>
	<line class="st2" x1="308.1" y1="228.7" x2="308.1" y2="228.7"/>
	<path class="st3" d="M308.1,228.7l-0.1,3.7h4.4l-0.1-3.7H308.1z M310.6,231.3h-0.9V230c0-0.7,0.9-0.6,0.9,0V231.3z"/>
	<polyline class="st2" points="296.8,228.7 296.8,228.7 296.8,228.7 	"/>
	<path class="st3" d="M296.7,232.4h4.4l-0.1-3.7h-4.1L296.7,232.4z M299.3,231.3h-0.9V230c0-0.7,0.9-0.6,0.9,0V231.3z"/>
	<path class="st3" d="M307.3,226l0,2.1c0,0.3,0.3,0.6,0.6,0.6h4.6c0.3,0,0.6-0.3,0.6-0.6l0-2.1l-1.3,0v0.9h-0.9v-1l-1.3,0v0.9h-0.9
		v-1L307.3,226z"/>
	<path class="st3" d="M301.1,228.7c0.3,0,0.6-0.3,0.6-0.6l0-2.1l-1.3,0v0.9h-0.9v-1l-1.3,0v0.9h-0.9v-1l-1.3,0l0,2.1
		c0,0.3,0.3,0.6,0.6,0.6H301.1z"/>
	<path d="M305,229.3v-1.6c0-0.7-0.9-0.7-0.9,0v1.6H305z"/>
	<path d="M309.8,230v1.3h0.9V230C310.6,229.4,309.7,229.4,309.8,230z"/>
	<path d="M298.4,230v1.3h0.9V230C299.3,229.4,298.4,229.4,298.4,230z"/>
	<path class="st3" d="M298.4,290.6l-11.7-11.8c-0.2-0.2-0.7-0.2-1,0.1c-0.3,0.3-0.3,0.7-0.1,1l0.2,0.2l-5.2,4.1l3.1,3.1c0,0,0,0,0,0
		l-3.3-3.3c-0.3-0.3-0.8-0.2-1.1,0.1c-0.3,0.3-0.4,0.8-0.1,1.1L292,298c0.3,0.3,0.8,0.2,1.1-0.1c0.3-0.3,0.4-0.8,0.1-1.1v0l-3.3-3.3
		c0,0,0,0,0,0l3.1,3.1l4.2-5.1l0.2,0.2c0.2,0.2,0.7,0.2,1-0.1C298.6,291.3,298.7,290.8,298.4,290.6z M290.9,292.2
		c0.7-1.1,1.1-2.2,1.2-3.1C292.1,290,291.7,291.1,290.9,292.2z"/>
	<path class="st3" d="M286.5,277.5c-0.3,0.3-0.3,0.7-0.1,1l12.2,12.3c0.3,0.3,0.7,0.2,1-0.1c0.3-0.3,0.3-0.7,0.1-1l0,0l-12.2-12.3
		C287.3,277.2,286.8,277.2,286.5,277.5z"/>
	<path class="st3" d="M300,280.2l-2.8-2.8l0,0L292,282l3.2,3.2L300,280.2z M296.7,280c0.5-0.5,1.1,0.2,0.7,0.7l-1.2,1.2l-0.7-0.7
		L296.7,280z"/>
	<path class="st3" d="M299.4,276.9l-0.7-0.7l0.7-0.7l-0.9-1l-1.5,1.5c-0.2,0.2-0.2,0.6,0,0.8l3.3,3.3c0.2,0.2,0.6,0.3,0.8,0l1.5-1.5
		l0,0l-0.9-0.9l-0.7,0.7l-0.7-0.7l0.7-0.7l-0.9-0.9L299.4,276.9z"/>
	<path class="st3" d="M296.1,286.1l3.1,3.1l2.5-2.7l-2.9-2.9L296.1,286.1z M299.6,286.3l-0.9,0.9l-0.6-0.6l0.9-0.9
		C299.5,285.2,300.1,285.9,299.6,286.3z"/>
	<polygon class="st3" points="298.8,283.6 298.8,283.6 298.8,283.6 	"/>
	<path class="st3" d="M291.2,281.2l2.5-2.7l-2.9-2.9l-2.7,2.5L291.2,281.2z M291.6,278.3l-0.9,0.9l-0.6-0.6l0.9-0.9
		C291.5,277.2,292.1,277.8,291.6,278.3z"/>
	
		<rect x="290.8" y="275.5" transform="matrix(0.6925 -0.7214 0.7214 0.6925 -109.3478 294.5358)" class="st3" width="0" height="0"/>
	<path class="st3" d="M302.7,283.6l-0.9-0.9l-0.7,0.7l-0.7-0.7l0.7-0.7l-0.9-0.9l-1.5,1.5c-0.2,0.2-0.2,0.6,0,0.8l3.2,3.3
		c0.2,0.2,0.6,0.2,0.8,0l1.5-1.5l-0.9-0.9l-0.7,0.7l-0.7-0.7L302.7,283.6z"/>
	<path class="st3" d="M294.7,278.7l1.5-1.5v0l-0.9-0.9l-0.7,0.7l-0.7-0.7l0.7-0.7l-0.9-0.9l-0.7,0.7l-0.7-0.7l0.7-0.7l-0.9-0.9
		l-1.5,1.5c-0.2,0.2-0.2,0.6,0,0.8l3.2,3.3C294.1,278.8,294.5,278.9,294.7,278.7z"/>
	<path d="M297.3,280.6c0.5-0.5-0.2-1.1-0.7-0.7l-1.2,1.2l0.7,0.7L297.3,280.6z"/>
	<path d="M299,285.7l-0.9,0.9l0.6,0.6l0.9-0.9C300.1,285.9,299.5,285.2,299,285.7z"/>
	<path d="M290.7,279.2l0.9-0.9c0.5-0.5-0.2-1.1-0.6-0.6l-0.9,0.9L290.7,279.2z"/>
	<path class="st6" d="M248.2,232.7l0,11.5l0,0v0c0,2.2,0.8,4.4,2.4,6.1c1.5,1.6,3.5,2.5,5.7,2.5c2.2,0,4.2-1,5.7-2.5
		c1.4-1.6,2.3-3.7,2.3-6.1v-11.5L248.2,232.7z M256.2,239.7c0.9,0,1.6,0.7,1.6,1.6s-0.7,1.6-1.6,1.6s-1.6-0.7-1.6-1.6
		S255.4,239.7,256.2,239.7z M251.8,235.5c0.9,0,1.6,0.7,1.6,1.6c0,0.9-0.7,1.6-1.6,1.6s-1.6-0.7-1.6-1.6
		C250.2,236.2,250.9,235.5,251.8,235.5z M250.2,245.8c0-0.9,0.7-1.6,1.6-1.6s1.6,0.7,1.6,1.6c0,0.9-0.7,1.6-1.6,1.6
		S250.2,246.6,250.2,245.8z M262.3,245.8c0,0.9-0.7,1.6-1.6,1.6c-0.9,0-1.6-0.7-1.6-1.6s0.7-1.6,1.6-1.6
		C261.6,244.2,262.3,244.9,262.3,245.8z M262.3,237c0,0.9-0.7,1.6-1.6,1.6s-1.6-0.7-1.6-1.6s0.7-1.6,1.6-1.6S262.3,236.2,262.3,237z
		"/>
	<circle class="st4" cx="251.8" cy="237" r="1.6"/>
	<circle class="st4" cx="260.7" cy="237" r="1.6"/>
	<circle class="st4" cx="256.2" cy="241.3" r="1.6"/>
	<circle class="st4" cx="251.8" cy="245.8" r="1.6"/>
	<circle class="st4" cx="260.7" cy="245.8" r="1.6"/>
	<path class="st6" d="M248.2,204.9l0,11.5l0,0v0c0,2.2,0.8,4.4,2.4,6.1c1.5,1.6,3.5,2.5,5.7,2.5c2.2,0,4.2-1,5.7-2.5
		c1.4-1.6,2.3-3.7,2.3-6.1v-11.5L248.2,204.9z M256.2,215.1c-0.9,0-1.6-0.7-1.6-1.6s0.7-1.6,1.6-1.6s1.6,0.7,1.6,1.6
		S257.1,215.1,256.2,215.1z M250.2,209.3c0-0.9,0.7-1.6,1.6-1.6s1.6,0.7,1.6,1.6c0,0.9-0.7,1.6-1.6,1.6S250.2,210.2,250.2,209.3z
		 M251.8,216.4c0.9,0,1.6,0.7,1.6,1.6c0,0.9-0.7,1.6-1.6,1.6s-1.6-0.7-1.6-1.6C250.2,217.1,250.9,216.4,251.8,216.4z M262.3,218
		c0,0.9-0.7,1.6-1.6,1.6c-0.9,0-1.6-0.7-1.6-1.6s0.7-1.6,1.6-1.6C261.6,216.4,262.3,217.1,262.3,218z M262.3,209.3
		c0,0.9-0.7,1.6-1.6,1.6s-1.6-0.7-1.6-1.6s0.7-1.6,1.6-1.6S262.3,208.4,262.3,209.3z"/>
	<circle class="st4" cx="251.8" cy="209.3" r="1.6"/>
	<circle class="st4" cx="260.7" cy="209.3" r="1.6"/>
	<circle class="st4" cx="256.2" cy="213.6" r="1.6"/>
	<circle class="st4" cx="251.8" cy="218" r="1.6"/>
	<circle class="st4" cx="260.7" cy="218" r="1.6"/>
	<path class="st6" d="M228.3,250.2c1.5,1.6,3.5,2.5,5.7,2.5c2.2,0,4.2-1,5.7-2.5c1.4-1.6,2.3-3.7,2.3-6.1v-11.5l-16,0l0,11.5l0,0v0
		C226,246.4,226.8,248.6,228.3,250.2z M236.9,237c0-0.9,0.7-1.6,1.6-1.6s1.6,0.7,1.6,1.6s-0.7,1.6-1.6,1.6S236.9,237.9,236.9,237z
		 M229.6,247.3c-0.9,0-1.6-0.7-1.6-1.6c0-0.9,0.7-1.6,1.6-1.6s1.6,0.7,1.6,1.6C231.2,246.6,230.5,247.3,229.6,247.3z M229.6,238.6
		c-0.9,0-1.6-0.7-1.6-1.6c0-0.9,0.7-1.6,1.6-1.6s1.6,0.7,1.6,1.6C231.2,237.9,230.5,238.6,229.6,238.6z M234.1,242.9
		c-0.9,0-1.6-0.7-1.6-1.6s0.7-1.6,1.6-1.6s1.6,0.7,1.6,1.6S234.9,242.9,234.1,242.9z M238.5,247.3c-0.9,0-1.6-0.7-1.6-1.6
		s0.7-1.6,1.6-1.6c0.9,0,1.6,0.7,1.6,1.6S239.4,247.3,238.5,247.3z"/>
	<circle class="st4" cx="229.6" cy="237" r="1.6"/>
	<circle class="st4" cx="238.5" cy="237" r="1.6"/>
	<circle class="st4" cx="234.1" cy="241.3" r="1.6"/>
	<circle class="st4" cx="229.6" cy="245.8" r="1.6"/>
	<circle class="st4" cx="238.5" cy="245.8" r="1.6"/>
	<path class="st6" d="M270.3,232.7l0,11.5l0,0v0c0,2.2,0.8,4.4,2.4,6.1c1.5,1.6,3.5,2.5,5.7,2.5c2.2,0,4.2-1,5.7-2.5
		c1.4-1.6,2.3-3.7,2.3-6.1v-11.5L270.3,232.7z M273.9,247.3c-0.9,0-1.6-0.7-1.6-1.6c0-0.9,0.7-1.6,1.6-1.6s1.6,0.7,1.6,1.6
		C275.5,246.6,274.8,247.3,273.9,247.3z M273.9,238.6c-0.9,0-1.6-0.7-1.6-1.6c0-0.9,0.7-1.6,1.6-1.6s1.6,0.7,1.6,1.6
		C275.5,237.9,274.8,238.6,273.9,238.6z M278.4,242.9c-0.9,0-1.6-0.7-1.6-1.6s0.7-1.6,1.6-1.6c0.9,0,1.6,0.7,1.6,1.6
		S279.2,242.9,278.4,242.9z M282.8,247.3c-0.9,0-1.6-0.7-1.6-1.6s0.7-1.6,1.6-1.6s1.6,0.7,1.6,1.6S283.7,247.3,282.8,247.3z
		 M282.8,238.6c-0.9,0-1.6-0.7-1.6-1.6s0.7-1.6,1.6-1.6s1.6,0.7,1.6,1.6S283.7,238.6,282.8,238.6z"/>
	<circle class="st4" cx="273.9" cy="237" r="1.6"/>
	<circle class="st4" cx="282.8" cy="237" r="1.6"/>
	<circle class="st4" cx="278.4" cy="241.3" r="1.6"/>
	<circle class="st4" cx="273.9" cy="245.8" r="1.6"/>
	<circle class="st4" cx="282.8" cy="245.8" r="1.6"/>
	<path class="st6" d="M264.2,260.2l-16,0l0,11.5l0,0v0c0,2.2,0.8,4.4,2.4,6.1c1.5,1.6,3.5,2.5,5.7,2.5c2.2,0,4.2-1,5.7-2.5
		c1.4-1.6,2.3-3.7,2.3-6.1V260.2z M262.3,264.5c0,0.9-0.7,1.6-1.6,1.6s-1.6-0.7-1.6-1.6c0-0.9,0.7-1.6,1.6-1.6
		S262.3,263.7,262.3,264.5z M254.7,268.8c0-0.9,0.7-1.6,1.6-1.6s1.6,0.7,1.6,1.6c0,0.9-0.7,1.6-1.6,1.6S254.7,269.7,254.7,268.8z
		 M250.2,264.5c0-0.9,0.7-1.6,1.6-1.6s1.6,0.7,1.6,1.6s-0.7,1.6-1.6,1.6S250.2,265.4,250.2,264.5z M251.8,274.9
		c-0.9,0-1.6-0.7-1.6-1.6c0-0.9,0.7-1.6,1.6-1.6s1.6,0.7,1.6,1.6C253.4,274.1,252.7,274.9,251.8,274.9z M262.3,273.3
		c0,0.9-0.7,1.6-1.6,1.6c-0.9,0-1.6-0.7-1.6-1.6c0-0.9,0.7-1.6,1.6-1.6C261.6,271.7,262.3,272.4,262.3,273.3z"/>
	<circle class="st4" cx="251.8" cy="264.5" r="1.6"/>
	<circle class="st4" cx="260.7" cy="264.5" r="1.6"/>
	<circle class="st4" cx="256.2" cy="268.8" r="1.6"/>
	<circle class="st4" cx="251.8" cy="273.3" r="1.6"/>
	<circle class="st4" cx="260.7" cy="273.3" r="1.6"/>
</g>
</svg>
