<svg id="Ebene_1" xmlns="http://www.w3.org/2000/svg" viewBox="0 0 640 480"><style>.st0{fill:#FFFFFF;} .st1{fill:#DF0000;}</style><path class="st0" d="M0 240h640v240H0z"/><path class="st1" d="M640 0H0v240h640V0zM40.2 146.5c-13-45.6 13.5-93.2 59.1-106.2 16-4.6 30.7-4.6 46.8-.1-33.2 7.6-57.9 32.2-64.9 65.7-9.5 45.5 20.1 90 65.7 99.5-46.1 13.1-93.7-13.3-106.7-58.9zm97.7-21.4l-12.9-9.2-12.9 9.3 4.8-15.1-12.8-9.4 15.9-.1 4.9-15.1 5 15.1h15.9L133 110l4.9 15.1zm17.5 52l-12.9-9.2-12.9 9.3 4.8-15.1-12.8-9.4 15.9-.1 4.9-15.1 5 15.1h15.9l-12.8 9.4 4.9 15.1zm3.8-86.2l4.8-15.1-12.8-9.4 15.9-.1 4.9-15.1 5 15.1h15.9l-12.8 9.4 4.9 15.1-12.9-9.2-12.9 9.3zm54.7 85.9l-12.9-9.2-12.9 9.3 4.8-15.1-12.8-9.4 15.9-.1 4.9-15.1 5 15.1h15.9l-12.8 9.4 4.9 15.1zm4.5-60.9l-12.9 9.3 4.8-15.1-12.8-9.4 15.9-.1 4.9-15.1 5 15.1h15.9l-12.8 9.4 4.9 15.1-12.9-9.2z"/><path class="st0" d="M81.1 105.9c7-33.5 31.7-58.1 64.9-65.7-16-4.5-30.8-4.5-46.8.1-45.6 13-72.1 60.6-59.1 106.2 13 45.6 60.6 72.1 106.6 58.9-45.5-9.5-75.1-54-65.6-99.5z"/><path class="st0" d="M129.9 100.5l-5.1-15.1-4.9 15.1-15.9.2 12.9 9.3-4.8 15.2 12.8-9.4 13 9.3L133 110l12.8-9.5zM205.8 152.2l-5-15.1-4.9 15.1-15.9.1 12.8 9.4-4.7 15.1 12.8-9.3 13 9.3-4.9-15.2 12.7-9.4zM147.4 152.5l-5-15-4.9 15.1-15.9.1 12.8 9.4-4.8 15.1 12.9-9.3 12.9 9.2-4.9-15.1 12.8-9.4zM239.2 100.6l-15.9-.1-5.1-15-4.9 15.1-15.9.1 12.9 9.4-4.8 15.1 12.9-9.3 12.9 9.2-4.9-15.1zM180.1 75.7l12.8-9.4H177l-5-15.1-4.9 15.1-15.9.2 12.8 9.3-4.8 15.1 12.9-9.3 12.9 9.3z"/></svg>