<svg id="Ebene_1" xmlns="http://www.w3.org/2000/svg" viewBox="0 0 640 480"><style>.st0{fill:#FFFFFF;} .st1{fill:#DE2918;} .st2{fill:#08399C;} .st3{fill:#FFCC00;}</style><path class="st0" d="M87 87.2l5.5-1.8v-.1c10.8-3.4 19.3-6 25.4-7.2 8.7-1.8 16.2-4 39.6-4.4 23.5.4 31 2.6 39.7 4.4 6.1 1.2 14.7 3.8 25.7 7.3v.1l5.4 1.8c-2.1 31.6-3.6 55.4-6.1 72.8H640V0H0v160h93c-2.4-17.5-4-41.2-6-72.8z"/><path class="st1" d="M0 320h640v160H0z"/><path class="st2" d="M640 160H222.1c-2 14.5-4.7 24.6-8.6 31.3-9.5 15.7-18.8 27.3-55.9 41.1-37.1-13.9-46.4-25.4-55.9-41.1-4-6.6-6.6-16.8-8.6-31.3H0v160h640V160z"/><path class="st1" d="M228.2 87.2l-5.4-1.8c-3.6 57.6-6.5 84-11.2 96.7-9 21.7-23.3 33.7-54.1 45-30.8-11.4-45-23.3-54.1-45-4.6-12.7-7.6-39-11-96.7L87 87.2c2.1 31.6 3.6 55.4 6.1 72.8 2 14.5 4.7 24.6 8.6 31.3 9.5 15.7 18.8 27.3 55.9 41.1 37.1-13.9 46.4-25.4 55.9-41.1 4-6.6 6.6-16.8 8.6-31.3 2.5-17.5 4.1-41.2 6.1-72.8z"/><path class="st2" d="M103.5 182c9 21.7 23.3 33.7 54.1 45 30.7-11.4 45-23.3 54.1-45 4.6-12.7 7.6-39.1 11.2-96.7v-.1c-10.9-3.4-19.6-6.1-25.7-7.3-8.7-1.8-16.2-4-39.7-4.4-23.5.5-30.9 2.6-39.7 4.5-6.1 1.2-14.6 3.8-25.4 7.2v.1c3.5 57.7 6.4 84.1 11.1 96.7zm95.7 11.6l-4.8 1.4-6.5-.5-7.8-3.8-8.8.1-7.6 3.7-6 .5-6-.5-7.6-3.7-8.8-.1-7.8 3.8-6.5.5-4.8-1.2c-.8-1.1-1.6-2.3-2.3-3.5l7.1.1 6.5-.5 7.8-3.8 8.8.1 7.6 3.7 6 .5 6-.5 7.6-3.7 8.8-.1 7.8 3.8 6.5.5h7c-.8 1.1-1.5 2.1-2.2 3.2zM113 189l.2.4c-.1-.1-.1-.3-.2-.4zm44.5 32.6c-15.5-5.3-28.1-13.2-34.3-19.2-.8-.9-1.8-1.9-2.8-3.1l6.9-.5 7.8-3.8 8.8.1 7.6 3.7 6 .5 6-.5 7.6-3.7 8.8-.1 7.8 3.8 6.9.5c-1 1.2-2 2.2-2.8 3.1-6 5.9-18.8 14-34.3 19.2zm45.7-60.3l2.6 4.3 3.6 2.8c-.7 5.8-2.5 11.2-4.7 15.9l-10.2 1.8-6.5-.5-7.8-3.8-8.8.1-7.6 3.7-6 .5-6-.5-7.6-3.7-8.8-.1-7.8 3.8-6.5.5-10.4-1.7c-2.3-4.7-4.1-10.1-4.7-15.9l3.6-2.9 2.6-4.3 5.1-4.4 2.6-4.5 5.1-4.5 2.5-4.5 2.7-2.2 1.8-1.7 4.6 4 2.5 4.4 3.1 2.8 3.4-2.7 2.6-4.6 9.6-17.1 9.6 17.1 2.6 4.6 3.4 2.7 3.1-2.8 2.5-4.4 4.6-4 1.8 1.7 2.7 2.2 2.5 4.5 5.1 4.5 2.6 4.5 4.9 4.4zm-22.4-73l-5.9 1-1.8 3.2-2-3.3-5.6-.8 3.8-2.8-3.9-2.5 6.2-1 1.4-3.5 1.5 3.5 6.5.9-4.2 2.5 4 2.8zM159 106.4l6.5.9-4.2 2.5 4.1 2.7-5.9 1-1.8 3.2-2-3.3-5.6-.8 3.8-2.8-3.9-2.5 6.2-1 1.4-3.5 1.4 3.6zm-9.1-18.2l-5.9 1-1.8 3.2-2-3.3-5.6-.8 3.8-2.8-3.9-2.5 6.2-1 1.4-3.5 1.5 3.5 6.4 1-4.2 2.5 4.1 2.7z"/><path class="st3" d="M149.9 107.4l3.9 2.5-3.8 2.7 5.6.8 2 3.3 1.8-3.2 5.9-.9-4-2.8 4.2-2.5-6.5-.9-1.5-3.5-1.4 3.5z"/><path class="st0" d="M195.5 152.4l-5.1-4.5-2.5-4.5-2.7-2.2-1.8-1.7-4.6 4-2.5 4.4-3.1 2.8-3.4-2.7-2.6-4.6-9.6-17.1-9.6 17.1-2.6 4.6-3.4 2.7-3.1-2.8-2.5-4.4-4.6-4-1.8 1.7-2.7 2.2-2.5 4.5-5.1 4.5-2.6 4.5-5.1 4.4-2.6 4.3-3.6 2.9c.7 5.8 2.5 11.2 4.7 15.9l10.4 1.7 6.5-.5 7.8-3.8 8.8.1 7.6 3.7 6 .5 6-.5 7.6-3.7 8.8-.1 7.8 3.8 6.5.5 10.2-1.8c2.3-4.7 4.1-10.1 4.7-15.9l-3.6-2.8-2.6-4.3-5.1-4.4-2.4-4.5zM113.2 189.4l-.2-.4c.1.1.1.3.2.4z"/><path class="st0" d="M194.4 190.4l-6.5-.5-7.8-3.8-8.8.1-7.6 3.7-6 .5-6-.5-7.6-3.7-8.8-.1-7.8 3.8-6.5.5-7.1-.1c.8 1.2 1.5 2.4 2.3 3.5l4.8 1.2 6.5-.5 7.8-3.8 8.8.1 7.6 3.7 6 .5 6-.5 7.6-3.7 8.8-.1 7.8 3.8 6.5.5 4.8-1.4c.7-1 1.4-2.1 2.1-3.2h-6.9zM187.9 198.8l-7.8-3.8-8.8.1-7.6 3.7-6 .5-6-.5-7.6-3.7-8.8-.1-7.8 3.8-6.9.5c1 1.2 2 2.2 2.8 3.1 6.1 6 18.8 13.9 34.3 19.2 15.5-5.2 28.3-13.2 34.5-19.2.8-.9 1.8-1.9 2.8-3.1l-7.1-.5z"/><path class="st3" d="M143.5 82.1l-1.4-3.5-1.5 3.5-6.2.9 4 2.5-3.9 2.8 5.7.8 2 3.3 1.8-3.2 5.9-1-4.1-2.7L150 83zM174.5 82.1l-1.5-3.5-1.4 3.5-6.3 1 4 2.5-3.8 2.8 5.6.8 2 3.2 1.8-3.1 5.9-1-4.1-2.7 4.2-2.6z"/></svg>