<svg id="Ebene_1" xmlns="http://www.w3.org/2000/svg" viewBox="0 0 640 480"><style>.st0{fill:#E70013;} .st1{fill:#FFFFFF;}</style><path class="st0" d="M0 0v480h640V0H0zm441.7 239.8c0 66.9-54.2 121.1-121.1 121.1-66.9 0-121.1-54.2-121.1-121.1s54.2-121.1 121.1-121.1c66.9 0 121.1 54.2 121.1 121.1z"/><path class="st1" d="M320.6 118.7c-66.9 0-121.1 54.2-121.1 121.1s54.2 121.1 121.1 121.1c66.9 0 121.1-54.2 121.1-121.1 0-66.9-54.2-121.1-121.1-121.1zm0 201.4c-44.3 0-80.3-36-80.3-80.3s36-80.3 80.3-80.3c11.1 0 23.7 2.5 32.3 8.8-58.7 2.2-73.6 52-73.6 72.1s9.5 64.8 73.6 71.4c-7.3 4.8-21.2 8.3-32.3 8.3zm70.8-46.6l-36.5-13.3-24.1 30.4 1.4-38.8-36.4-13.5 37.3-10.7 1.6-38.8 21.7 32.2 37.4-10.4-23.9 30.6 21.5 32.3z"/><path class="st0" d="M279.3 240.4c0-20.1 14.9-69.9 73.6-72.1-8.6-6.3-21.2-8.8-32.3-8.8-44.3 0-80.3 36-80.3 80.3s36 80.3 80.3 80.3c11.1 0 25-3.5 32.3-8.2-64.1-6.6-73.6-51.4-73.6-71.5z"/><path class="st0" d="M356.4 221.1l-21.7-32.2-1.6 38.8-37.3 10.6 36.4 13.6-1.4 38.7 24.1-30.3 36.5 13.2-21.5-32.3 23.9-30.5z"/></svg>