<svg id="Ebene_1" xmlns="http://www.w3.org/2000/svg" viewBox="0 0 640 480"><style>.st0{fill:#F31930;} .st1{fill:#FFFFFF;} .st2{fill:#F31830;}</style><path class="st0" d="M0 0v480h640V0H0zm494.9 284.4l-40.2-13.9-26.6 31.7 1-40.6-16.4-5.9c-1.8 21.4-10.8 40.8-24.6 55.8-21.6 33.6-59.7 55.9-103.1 55.9-67.4 0-122-53.7-122-119.9s54.6-119.9 122-119.9c43.4 0 81.5 22.3 103.1 55.8 14 15.3 23.1 35.1 24.7 57l16.9-4.6 1-44.3 25.8 37 43.5-12-28.4 33.9 23.3 34z"/><path class="st1" d="M315.5 343.4c-53.9 0-97.6-42.9-97.6-95.9 0-53 43.7-95.9 97.6-95.9 28.8 0 54.7 12.3 72.6 31.9-21.6-33.5-59.7-55.8-103.1-55.8-67.4 0-122 53.7-122 119.9s54.6 119.9 122 119.9c43.4 0 81.5-22.3 103.1-55.9-17.8 19.5-43.7 31.8-72.6 31.8z"/><path class="st2" d="M388.4 247l24.4-6.6c-1.6-21.8-10.7-41.6-24.7-57-17.9-19.6-43.8-31.9-72.6-31.9-53.9 0-97.6 42.9-97.6 95.9 0 53 43.7 95.9 97.6 95.9 28.8 0 54.8-12.3 72.6-31.9 13.8-15.1 22.7-34.5 24.6-55.8l-24.3-8.6z"/><path class="st1" d="M430.7 191.5zM456.5 228.4l-25.8-36.9-1 44.3-16.9 4.6-24.4 6.6 24.3 8.7 16.5 5.8-1 40.7 26.5-31.8 40.2 14-23.2-34.1 28.3-33.9z"/></svg>