<svg id="Ebene_1" xmlns="http://www.w3.org/2000/svg" viewBox="0 0 640 480"><style>.st0{fill:#DE2110;} .st1{fill:#08399C;} .st2{fill:#FFFFFF;} .st3{fill:#005387;}</style><path class="st0" d="M361.6 0v240H0v240h640V0z"/><path class="st1" d="M361.6 0H0v240h361.6V0zM239.7 136.8l-1.2 1.9 25.9 28.7-38.4-7.9-2.5 4.5-2 1.1 8 37.5-29-25.8-4.6 2.7-2.5-.1-11.7 36.2-12.1-36.5-5.4.1-2.4-1.5-28 25.3 7.7-37.4-4.6-2.6-1.5-2.8-36.8 7.8 25.2-28.4-2.5-4.2.1-3.6-35.9-11.6 36.2-12v-4.4l2-3.2-25.5-28.4 37.7 7.8 1.9-3.4 3.3-1.8-8-37.7L162.3 63l3.2-1.9 3.4.1L181 24l12.4 37.4h3.8l2.5 1.6 29.1-26.3-8 38.8 3.6 2 1.2 2.3 38.3-8.2-26.3 29.6 2.3 3.9-.1 2.3 37.1 12-37.4 12.4.2 5z"/><path class="st2" d="M240 107.4l-.4 13.5.1 11 37.4-12.4zM169.6 179.1l12.1 36.5 11.7-36.2-13.4-.4zM135.9 80l-37.7-7.8 25.5 28.3 6.4-10.2zM141.5 165.6l-7.7 37.3 28-25.2-11.1-6.9zM121.7 108.1l-36.1 12.1 35.9 11.6.4-12.2zM226.1 159.5l38.4 7.9-25.9-28.7-7.3 11.5zM200.5 176.8l29 25.8-8-37.5-11.9 6.3zM123.8 139.6L98.6 168l36.8-7.8-6-11.2zM193.4 61.4L181 24l-12 37.2 12.4.4zM220.9 75.5l8-38.8L199.8 63l10.9 6.8zM237.8 101.2l26.3-29.6-38.3 8.2 6.2 11.7zM162.3 62.9L133.2 37l8 37.8 10.7-5.7z"/><path class="st3" d="M240 107.4l.1-2.3-2.3-3.9-5.8-9.7-6.3-11.7-1.2-2.3-3.6-2-10.2-5.7-10.9-6.8-2.5-1.6h-3.8l-12 .1-12.5-.3-3.4-.1-3.2 1.9-10.4 6.2-10.7 5.7-3.3 1.8-1.9 3.4-5.8 10.4-6.4 10.2-2 3.2v4.4l.1 11.5-.4 12.2-.1 3.6 2.5 4.2 5.6 9.4 5.9 11.1 1.5 2.8 4.6 2.6 9.3 5.2 11.1 6.9 2.4 1.5 5.4-.1 10.2-.2 13.4.5 2.5.1 4.6-2.7 9.1-5.4 12-6.4 2-1.1 2.5-4.5 5.2-9.3 7.2-11.5 1.2-1.9-.1-4.9-.1-11 .5-13.5zm-10.7 12.9c0 26.9-21.8 48.6-48.6 48.6-26.9 0-48.6-21.8-48.6-48.6s21.8-48.6 48.6-48.6c26.9-.1 48.6 21.7 48.6 48.6z"/><circle class="st2" cx="180.7" cy="120.3" r="48.6"/><path class="st2" d="M229.3 120.3z"/></svg>