<svg id="Ebene_1" xmlns="http://www.w3.org/2000/svg" viewBox="0 0 640 480"><style>.st0{fill:#BD3D44;} .st1{fill:#FFFFFF;} .st2{fill:#192F5D;}</style><path class="st0" d="M364.8 147.7H912v36.9H364.8zM0 295.4h912v36.9H0zM0 369.2h912v36.9H0zM364.8 258.5H0h912v-37H364.8zM364.8 0H912v36.9H364.8zM364.8 73.8H912v36.9H364.8zM0 443.1h912V480H0z"/><path class="st1" d="M364.8 36.9H912v36.9H364.8zM364.8 184.6H912v36.9H364.8zM364.8 110.8H912v36.9H364.8zM0 406.2v36.9h912v-36.9H0zM0 258.5v36.9h912v-36.9H0zM0 332.3v36.9h912v-36.9H0z"/><path class="st2" d="M364.8 221.5V0H0v258.3h364.8v-36.8zM39.1 244.6l-8.7-6.3-8.7 6.3 3.3-10.2-8.7-6.3H27l3.3-10.2 3.3 10.2h10.7l-8.7 6.3 3.5 10.2zm-3.3-61.9l3.3 10.2-8.7-6.3-8.7 6.3 3.3-10.2-8.7-6.3H27l3.3-10.2 3.3 10.2h10.7l-8.5 6.3zm0-51.7l3.3 10.2-8.7-6.3-8.7 6.3L25 131l-8.7-6.3H27l3.3-10.2 3.3 10.2h10.7l-8.5 6.3zm0-51.7l3.3 10.2-8.7-6.3-8.7 6.3L25 79.3 16.3 73H27l3.3-10.2L33.7 73h10.7l-8.6 6.3zm0-51.7l3.3 10.2-8.7-6.3-8.7 6.3L25 27.6l-8.7-6.3H27l3.3-10.2 3.3 10.2h10.7l-8.5 6.3zm33.7 191.1l-8.7-6.3-8.7 6.3 3.3-10.2-8.7-6.3h10.7l3.3-10.2 3.3 10.2h10.7l-8.7 6.3 3.5 10.2zm-3.3-61.9l3.3 10.2-8.7-6.3-8.7 6.3 3.3-10.2-8.7-6.3h10.7l3.3-10.2 3.3 10.2h10.7l-8.5 6.3zm0-51.7l3.3 10.2-8.7-6.3-8.7 6.3 3.3-10.2-8.7-6.3h10.7l3.3-10.2L64 98.8h10.7l-8.5 6.3zm0-51.7l3.3 10.2-8.7-6.3-8.7 6.3 3.3-10.2-8.7-6.3h10.7l3.3-10.2L64 47.1h10.7l-8.5 6.3zm33.7 191.2l-8.7-6.3-8.7 6.3 3.3-10.2-8.7-6.3h10.7l3.3-10.2 3.3 10.2h10.7l-8.7 6.3 3.5 10.2zm-3.3-61.9l3.3 10.2-8.7-6.3-8.7 6.3 3.3-10.2-8.7-6.3h10.7l3.3-10.2 3.3 10.2h10.7l-8.5 6.3zm0-51.7l3.3 10.2-8.7-6.3-8.7 6.3 3.3-10.2-8.7-6.3h10.7l3.3-10.2 3.3 10.2h10.7l-8.5 6.3zm0-51.7l3.3 10.2-8.7-6.3-8.7 6.3 3.3-10.2-8.7-6.3h10.7l3.3-10.2L94.5 73h10.7l-8.6 6.3zm0-51.7l3.3 10.2-8.7-6.3-8.7 6.3 3.3-10.2-8.7-6.3h10.7l3.3-10.2 3.3 10.2h10.7l-8.5 6.3zm33.7 191.1l-8.7-6.3-8.7 6.3 3.3-10.2-8.7-6.3h10.7l3.3-10.2 3.3 10.2h10.7l-8.7 6.3 3.5 10.2zm-3.3-61.9l3.3 10.2-8.7-6.3-8.7 6.3 3.3-10.2-8.7-6.3h10.7l3.3-10.2 3.3 10.2h10.7l-8.5 6.3zm0-51.7l3.3 10.2-8.7-6.3-8.7 6.3 3.3-10.2-8.7-6.3h10.7l3.3-10.2 3.3 10.2h10.7l-8.5 6.3zm0-51.7l3.3 10.2-8.7-6.3-8.7 6.3 3.3-10.2-8.7-6.3h10.7l3.3-10.2 3.3 10.2h10.7l-8.5 6.3zm33.7 191.2l-8.7-6.3-8.7 6.3 3.3-10.2-8.7-6.3h10.7l3.3-10.2 3.3 10.2h10.7l-8.7 6.3 3.5 10.2zm-3.3-61.9l3.3 10.2-8.7-6.3-8.7 6.3 3.3-10.2-8.7-6.3h10.7l3.3-10.2 3.3 10.2h10.7l-8.5 6.3zm0-51.7l3.3 10.2-8.7-6.3-8.7 6.3 3.3-10.2-8.7-6.3h10.7l3.3-10.2 3.3 10.2h10.7l-8.5 6.3zm0-51.7l3.3 10.2-8.7-6.3-8.7 6.3 3.3-10.2-8.7-6.3h10.7l3.3-10.2 3.3 10.2h10.7l-8.5 6.3zm0-51.7l3.3 10.2-8.7-6.3-8.7 6.3 3.3-10.2-8.7-6.3h10.7l3.3-10.2 3.3 10.2h10.7l-8.5 6.3zm33.7 191.1l-8.7-6.3-8.7 6.3 3.3-10.2-8.7-6.3H179l3.3-10.2 3.3 10.2h10.7l-8.7 6.3 3.5 10.2zm-3.3-61.9l3.3 10.2-8.7-6.3-8.7 6.3 3.3-10.2-8.7-6.3H179l3.3-10.2 3.3 10.2h10.7l-8.5 6.3zm0-51.7l3.3 10.2-8.7-6.3-8.7 6.3 3.3-10.2-8.7-6.3H179l3.3-10.2 3.3 10.2h10.7l-8.5 6.3zm0-51.7l3.3 10.2-8.7-6.3-8.7 6.3 3.3-10.2-8.7-6.3H179l3.3-10.2 3.3 10.2h10.7l-8.5 6.3zm33.7 191.2l-8.7-6.3-8.7 6.3 3.3-10.2-8.7-6.3h10.7l3.3-10.2 3.3 10.2h10.7l-8.7 6.3 3.5 10.2zm-3.3-61.9l3.3 10.2-8.7-6.3-8.7 6.3 3.3-10.2-8.7-6.3h10.7l3.3-10.2 3.3 10.2h10.7l-8.5 6.3zm0-51.7l3.3 10.2-8.7-6.3-8.7 6.3 3.3-10.2-8.7-6.3h10.7l3.3-10.2 3.3 10.2h10.7l-8.5 6.3zm0-51.7l3.3 10.2-8.7-6.3-8.7 6.3 3.3-10.2-8.7-6.3h10.7l3.3-10.2L216 73h10.7l-8.5 6.3zm0-51.7l3.3 10.2-8.7-6.3-8.7 6.3 3.3-10.2-8.7-6.3h10.7l3.3-10.2 3.3 10.2h10.7l-8.5 6.3zm33.7 191.1l-8.7-6.3-8.7 6.3 3.3-10.2-8.7-6.3h10.7l3.3-10.2 3.3 10.2h10.7l-8.7 6.3 3.5 10.2zm-3.3-61.9l3.3 10.2-8.7-6.3-8.7 6.3 3.3-10.2-8.7-6.3h10.7l3.3-10.2 3.3 10.2h10.7l-8.5 6.3zm0-51.7l3.3 10.2-8.7-6.3-8.7 6.3 3.3-10.2-8.7-6.3h10.7l3.3-10.2 3.3 10.2h10.7l-8.5 6.3zm0-51.7l3.3 10.2-8.7-6.3-8.7 6.3 3.3-10.2-8.7-6.3h10.7l3.3-10.2 3.3 10.2h10.7l-8.5 6.3zm33.7 191.2l-8.7-6.3-8.7 6.3 3.3-10.2-8.7-6.3h10.7l3.3-10.2 3.3 10.2h10.7l-8.7 6.3 3.5 10.2zm-3.3-61.9l3.3 10.2-8.7-6.3-8.7 6.3 3.3-10.2-8.7-6.3h10.7l3.3-10.2 3.3 10.2h10.7l-8.5 6.3zm0-51.7l3.3 10.2-8.7-6.3-8.7 6.3 3.3-10.2-8.7-6.3h10.7l3.3-10.2 3.3 10.2h10.7L279 131zm0-51.7l3.3 10.2-8.7-6.3-8.7 6.3 3.3-10.2-8.7-6.3h10.7l3.3-10.2 3.3 10.2h10.7l-8.5 6.3zm0-51.7l3.3 10.2-8.7-6.3-8.7 6.3 3.3-10.2-8.7-6.3h10.7l3.3-10.2 3.3 10.2h10.7l-8.5 6.3zm33.7 191.1l-8.7-6.3-8.7 6.3 3.3-10.2-8.7-6.3h10.7L304 192l3.3 10.2H318l-8.7 6.3 3.4 10.2zm-3.3-61.9l3.3 10.2-8.7-6.3-8.7 6.3 3.3-10.2-8.7-6.3h10.7l3.3-10.2 3.3 10.2h10.7l-8.5 6.3zm0-51.7l3.3 10.2-8.7-6.3-8.7 6.3 3.3-10.2-8.7-6.3h10.7l3.3-10.2 3.3 10.2h10.7l-8.5 6.3zm0-51.7l3.3 10.2-8.7-6.3-8.7 6.3 3.3-10.2-8.7-6.3h10.7l3.3-10.2 3.3 10.2h10.7l-8.5 6.3zm33.7 191.2l-8.7-6.3-8.7 6.3 3.3-10.2-8.7-6.3H331l3.3-10.2 3.3 10.2h10.7l-8.7 6.3 3.5 10.2zm-3.3-61.9l3.3 10.2-8.7-6.3-8.7 6.3 3.3-10.2-8.7-6.3H331l3.3-10.2 3.3 10.2h10.7l-8.5 6.3zm0-51.7l3.3 10.2-8.7-6.3-8.7 6.3L329 131l-8.7-6.3H331l3.3-10.2 3.3 10.2h10.7l-8.5 6.3zm0-51.7l3.3 10.2-8.7-6.3-8.7 6.3 3.3-10.2-8.7-6.3H331l3.3-10.2 3.3 10.2h10.7l-8.5 6.3zm0-51.7l3.3 10.2-8.7-6.3-8.7 6.3 3.3-10.2-8.7-6.3H331l3.3-10.2 3.3 10.2h10.7l-8.5 6.3z"/><path class="st1" d="M152 62.8L148.7 73h-10.8l8.7 6.3-3.3 10.2 8.7-6.3 8.7 6.3-3.3-10.2 8.7-6.3h-10.8zM30.4 62.8L27.1 73H16.3l8.7 6.3-3.3 10.2 8.7-6.3 8.7 6.3-3.3-10.2 8.7-6.3H33.7zM91.2 62.8L87.9 73H77.1l8.7 6.3-3.3 10.2 8.7-6.3 8.7 6.3-3.3-10.2 8.7-6.3H94.5zM91.2 11.1l-3.3 10.2H77.1l8.7 6.3-3.3 10.2 8.7-6.3 8.7 6.3-3.3-10.2 8.7-6.3H94.5zM212.8 62.8L209.5 73h-10.8l8.7 6.3-3.3 10.2 8.7-6.3 8.7 6.3-3.3-10.2 8.7-6.3h-10.8zM273.6 62.8L270.3 73h-10.8l8.7 6.3-3.3 10.2 8.7-6.3 8.7 6.3-3.3-10.2 8.7-6.3h-10.8zM304 88.6l-3.3 10.2h-10.8l8.7 6.3-3.3 10.2 8.7-6.3 8.7 6.3-3.3-10.2 8.7-6.3h-10.8zM273.6 11.1l-3.3 10.2h-10.8l8.7 6.3-3.3 10.2 8.7-6.3 8.7 6.3-3.3-10.2 8.7-6.3h-10.8zM121.6 140.3l-3.3 10.2h-10.8l8.7 6.3-3.3 10.2 8.7-6.3 8.7 6.3-3.3-10.2 8.7-6.3h-10.8zM334.4 11.1l-3.3 10.2h-10.8l8.7 6.3-3.3 10.2 8.7-6.3 8.7 6.3-3.3-10.2 8.7-6.3h-10.8zM60.8 140.3l-3.3 10.2H46.7l8.7 6.3-3.3 10.2 8.7-6.3 8.7 6.3-3.3-10.2 8.7-6.3H64.1zM243.2 88.6l-3.3 10.2h-10.8l8.7 6.3-3.3 10.2 8.7-6.3 8.7 6.3-3.3-10.2 8.7-6.3h-10.8zM212.8 11.1l-3.3 10.2h-10.8l8.7 6.3-3.3 10.2 8.7-6.3 8.7 6.3-3.3-10.2 8.7-6.3h-10.8zM152 11.1l-3.3 10.2h-10.8l8.7 6.3-3.3 10.2 8.7-6.3 8.7 6.3-3.3-10.2 8.7-6.3h-10.8zM304 36.9l-3.3 10.2h-10.8l8.7 6.3-3.3 10.3 8.7-6.4 8.7 6.4-3.3-10.3 8.7-6.3h-10.8zM243.2 36.9l-3.3 10.2h-10.8l8.7 6.3-3.3 10.3 8.7-6.4 8.7 6.4-3.3-10.3 8.7-6.3h-10.8zM182.4 36.9l-3.3 10.2h-10.8l8.7 6.3-3.3 10.3 8.7-6.4 8.7 6.4-3.3-10.3 8.7-6.3h-10.8zM304 140.3l-3.3 10.2h-10.8l8.7 6.3-3.3 10.2 8.7-6.3 8.7 6.3-3.3-10.2 8.7-6.3h-10.8zM334.4 114.4l-3.3 10.3h-10.8l8.7 6.3-3.3 10.2 8.7-6.3 8.7 6.3-3.3-10.2 8.7-6.3h-10.8zM334.4 62.8L331.1 73h-10.8l8.7 6.3-3.3 10.2 8.7-6.3 8.7 6.3-3.3-10.2 8.7-6.3h-10.8zM121.6 36.9l-3.3 10.2h-10.8l8.7 6.3-3.3 10.3 8.7-6.4 8.7 6.4-3.3-10.3 8.7-6.3h-10.8zM60.8 88.6l-3.3 10.2H46.7l8.7 6.3-3.3 10.2 8.7-6.3 8.7 6.3-3.3-10.2 8.7-6.3H64.1zM60.8 36.9l-3.3 10.2H46.7l8.7 6.3-3.3 10.3 8.7-6.4 8.7 6.4-3.3-10.3 8.7-6.3H64.1zM30.4 114.4l-3.3 10.3H16.3L25 131l-3.3 10.2 8.7-6.3 8.7 6.3-3.3-10.2 8.7-6.3H33.7zM30.4 11.1l-3.3 10.2H16.3l8.7 6.3-3.3 10.2 8.7-6.3 8.7 6.3-3.3-10.2 8.7-6.3H33.7zM273.6 114.4l-3.3 10.3h-10.8l8.7 6.3-3.3 10.2 8.7-6.3 8.7 6.3L279 131l8.7-6.3h-10.8zM152 114.4l-3.3 10.3h-10.8l8.7 6.3-3.3 10.2 8.7-6.3 8.7 6.3-3.3-10.2 8.7-6.3h-10.8zM212.8 114.4l-3.3 10.3h-10.8l8.7 6.3-3.3 10.2 8.7-6.3 8.7 6.3-3.3-10.2 8.7-6.3h-10.8zM182.4 88.6l-3.3 10.2h-10.8l8.7 6.3-3.3 10.2 8.7-6.3 8.7 6.3-3.3-10.2 8.7-6.3h-10.8zM121.6 88.6l-3.3 10.2h-10.8l8.7 6.3-3.3 10.2 8.7-6.3 8.7 6.3-3.3-10.2 8.7-6.3h-10.8zM91.2 114.4l-3.3 10.3H77.1l8.7 6.3-3.3 10.2 8.7-6.3 8.7 6.3-3.3-10.2 8.7-6.3H94.5zM182.4 140.3l-3.3 10.2h-10.8l8.7 6.3-3.3 10.2 8.7-6.3 8.7 6.3-3.3-10.2 8.7-6.3h-10.8zM243.2 140.3l-3.3 10.2h-10.8l8.7 6.3-3.3 10.2 8.7-6.3 8.7 6.3-3.3-10.2 8.7-6.3h-10.8zM334.4 166.1l-3.3 10.3h-10.8l8.7 6.3-3.3 10.2 8.7-6.3 8.7 6.3-3.3-10.2 8.7-6.3h-10.8zM64.1 202.2L60.8 192l-3.3 10.2H46.7l8.7 6.3-3.3 10.2 8.7-6.3 8.7 6.3-3.3-10.2 8.7-6.3zM91.2 166.1l-3.3 10.3H77.1l8.7 6.3-3.3 10.2 8.7-6.3 8.7 6.3-3.3-10.2 8.7-6.3H94.5zM124.9 202.2l-3.3-10.2-3.3 10.2h-10.8l8.7 6.3-3.3 10.2 8.7-6.3 8.7 6.3-3.3-10.2 8.7-6.3zM152 166.1l-3.3 10.3h-10.8l8.7 6.3-3.3 10.2 8.7-6.3 8.7 6.3-3.3-10.2 8.7-6.3h-10.8zM185.7 202.2l-3.3-10.2-3.3 10.2h-10.8l8.7 6.3-3.3 10.2 8.7-6.3 8.7 6.3-3.3-10.2 8.7-6.3zM246.5 202.2l-3.3-10.2-3.3 10.2h-10.8l8.7 6.3-3.3 10.2 8.7-6.3 8.7 6.3-3.3-10.2 8.7-6.3zM307.3 202.2L304 192l-3.3 10.2h-10.8l8.7 6.3-3.3 10.2 8.7-6.3 8.7 6.3-3.3-10.2 8.7-6.3zM30.4 166.1l-3.3 10.3H16.3l8.7 6.3-3.3 10.2 8.7-6.3 8.7 6.3-3.3-10.2 8.7-6.3H33.7zM273.6 166.1l-3.3 10.3h-10.8l8.7 6.3-3.3 10.2 8.7-6.3 8.7 6.3-3.3-10.2 8.7-6.3h-10.8zM212.8 166.1l-3.3 10.3h-10.8l8.7 6.3-3.3 10.2 8.7-6.3 8.7 6.3-3.3-10.2 8.7-6.3h-10.8zM216.1 228l-3.3-10.2-3.3 10.2h-10.8l8.7 6.4-3.3 10.2 8.7-6.3 8.7 6.3-3.3-10.2 8.7-6.4zM276.9 228l-3.3-10.2-3.3 10.2h-10.8l8.7 6.4-3.3 10.2 8.7-6.3 8.7 6.3-3.3-10.2 8.7-6.4zM337.7 228l-3.3-10.2-3.3 10.2h-10.8l8.7 6.4-3.3 10.2 8.7-6.3 8.7 6.3-3.3-10.2 8.7-6.4zM33.7 228l-3.3-10.2-3.3 10.2H16.3l8.7 6.4-3.3 10.2 8.7-6.3 8.7 6.3-3.3-10.2 8.7-6.4zM94.5 228l-3.3-10.2-3.3 10.2H77.1l8.7 6.4-3.3 10.2 8.7-6.3 8.7 6.3-3.3-10.2 8.7-6.4zM155.3 228l-3.3-10.2-3.3 10.2h-10.8l8.7 6.4-3.3 10.2 8.7-6.3 8.7 6.3-3.3-10.2 8.7-6.4z"/></svg>