<svg id="Ebene_1" xmlns="http://www.w3.org/2000/svg" viewBox="0 0 640 480"><style>.st0{fill:none;} .st1{fill:#0000CC;} .st2{fill:#FF0000;} .st3{fill:#FFCC00;} .st4{fill:#009933;} .st5{fill:none;stroke:#FFFFFF;stroke-width:0;stroke-linecap:round;stroke-linejoin:round;} .st6{fill:#FFFFFF;}</style><path class="st0" d="M371.4 191.2L89 .1l282.4 191.1z"/><path d="M0 97.9v284.4L211.7 240z"/><path class="st1" d="M640 480V320.1H382.1L144.6 480z"/><path class="st2" d="M640 160.1V.1H144.4l237.7 160zM129.2.1h0z"/><path class="st3" d="M0 382.3v37.8L266.7 240 0 60.1v37.8L211.7 240 0 382.3z"/><path class="st4" d="M0 420.1V480h89l282.4-191.1H640v-97.7H371.4L89 .1H0v60l266.7 180L0 420.1z"/><path class="st5" d="M89 .1"/><path class="st6" d="M640 289H371.4L89.1 480h55.5l237.5-159.9H640zM640 191.2v-31.1H382.1L144.4.1H89l282.4 191.1z"/></svg>